<svg width="220" height="60" viewBox="0 0 220 60" fill="none" xmlns="http://www.w3.org/2000/svg">
<rect width="220" height="60" rx="5" fill="#EE4D47"/>
<path d="M30.744 36.16C29.208 36.16 28.008 35.7867 27.144 35.04C26.28 34.2827 25.8213 33.2107 25.768 31.824C25.7573 31.5147 25.752 31.024 25.752 30.352C25.752 29.68 25.7573 29.1893 25.768 28.88C25.8213 27.5253 26.2853 26.48 27.16 25.744C28.0453 25.008 29.24 24.64 30.744 24.64C31.7573 24.64 32.6373 24.8053 33.384 25.136C34.1413 25.4667 34.7173 25.888 35.112 26.4C35.5173 26.912 35.7307 27.44 35.752 27.984C35.752 28.08 35.7147 28.16 35.64 28.224C35.576 28.288 35.496 28.32 35.4 28.32H33.064C32.9573 28.32 32.872 28.304 32.808 28.272C32.744 28.24 32.6907 28.1813 32.648 28.096C32.5093 27.7867 32.2907 27.52 31.992 27.296C31.6933 27.0613 31.2773 26.944 30.744 26.944C29.4747 26.944 28.808 27.616 28.744 28.96C28.7333 29.2587 28.728 29.7227 28.728 30.352C28.728 30.9707 28.7333 31.4347 28.744 31.744C28.808 33.152 29.4907 33.856 30.792 33.856C31.4213 33.856 31.9227 33.696 32.296 33.376C32.68 33.0453 32.872 32.544 32.872 31.872V31.568H31.368C31.2507 31.568 31.1547 31.5307 31.08 31.456C31.0053 31.3707 30.968 31.2693 30.968 31.152V29.968C30.968 29.8507 31.0053 29.7547 31.08 29.68C31.1547 29.5947 31.2507 29.552 31.368 29.552H35.4C35.5173 29.552 35.6133 29.5947 35.688 29.68C35.7627 29.7547 35.8 29.8507 35.8 29.968V31.792C35.8 32.6987 35.592 33.4827 35.176 34.144C34.76 34.7947 34.168 35.296 33.4 35.648C32.6427 35.9893 31.7573 36.16 30.744 36.16ZM38.8356 36C38.729 36 38.633 35.9627 38.5476 35.888C38.473 35.8027 38.4356 35.7067 38.4356 35.6V25.2C38.4356 25.0827 38.473 24.9867 38.5476 24.912C38.633 24.8373 38.729 24.8 38.8356 24.8H46.3076C46.425 24.8 46.521 24.8373 46.5956 24.912C46.6703 24.9867 46.7076 25.0827 46.7076 25.2V26.704C46.7076 26.8107 46.6703 26.9067 46.5956 26.992C46.521 27.0667 46.425 27.104 46.3076 27.104H41.2036V29.264H45.9556C46.073 29.264 46.169 29.3067 46.2436 29.392C46.3183 29.4667 46.3556 29.5627 46.3556 29.68V31.072C46.3556 31.1787 46.3183 31.2747 46.2436 31.36C46.169 31.4347 46.073 31.472 45.9556 31.472H41.2036V33.696H46.4356C46.553 33.696 46.649 33.7333 46.7236 33.808C46.7983 33.8827 46.8356 33.9787 46.8356 34.096V35.6C46.8356 35.7067 46.7983 35.8027 46.7236 35.888C46.649 35.9627 46.553 36 46.4356 36H38.8356ZM52.3184 36C52.2117 36 52.1157 35.9627 52.0304 35.888C51.9557 35.8027 51.9184 35.7067 51.9184 35.6V27.312H49.0704C48.9637 27.312 48.8677 27.2747 48.7824 27.2C48.7077 27.1147 48.6704 27.0187 48.6704 26.912V25.2C48.6704 25.0827 48.7077 24.9867 48.7824 24.912C48.8677 24.8373 48.9637 24.8 49.0704 24.8H57.6784C57.7957 24.8 57.8917 24.8373 57.9664 24.912C58.041 24.9867 58.0784 25.0827 58.0784 25.2V26.912C58.0784 27.0293 58.041 27.1253 57.9664 27.2C57.8917 27.2747 57.7957 27.312 57.6784 27.312H54.8304V35.6C54.8304 35.7067 54.793 35.8027 54.7184 35.888C54.6437 35.9627 54.5477 36 54.4304 36H52.3184ZM68.3398 36.16C67.3264 36.16 66.4571 36.0107 65.7318 35.712C65.0064 35.4133 64.4571 35.024 64.0838 34.544C63.7211 34.0533 63.5291 33.52 63.5078 32.944C63.5078 32.8587 63.5398 32.784 63.6038 32.72C63.6784 32.6453 63.7638 32.608 63.8598 32.608H65.8758C66.0038 32.608 66.1051 32.6347 66.1798 32.688C66.2651 32.7307 66.3504 32.8 66.4358 32.896C66.5744 33.1733 66.7984 33.4027 67.1078 33.584C67.4171 33.7653 67.8278 33.856 68.3398 33.856C68.9478 33.856 69.4118 33.76 69.7318 33.568C70.0518 33.376 70.2118 33.1147 70.2118 32.784C70.2118 32.5493 70.1264 32.3573 69.9558 32.208C69.7958 32.0587 69.5398 31.9253 69.1878 31.808C68.8358 31.6907 68.3131 31.5573 67.6198 31.408C66.3398 31.1413 65.3798 30.752 64.7398 30.24C64.1104 29.7173 63.7958 28.976 63.7958 28.016C63.7958 27.3653 63.9771 26.784 64.3398 26.272C64.7024 25.76 65.2198 25.36 65.8918 25.072C66.5638 24.784 67.3478 24.64 68.2438 24.64C69.1718 24.64 69.9771 24.8 70.6598 25.12C71.3424 25.44 71.8598 25.8453 72.2118 26.336C72.5744 26.816 72.7664 27.2907 72.7878 27.76C72.7878 27.856 72.7558 27.936 72.6918 28C72.6278 28.064 72.5478 28.096 72.4518 28.096H70.3398C70.2118 28.096 70.1051 28.0747 70.0198 28.032C69.9451 27.9893 69.8758 27.92 69.8118 27.824C69.7478 27.5787 69.5718 27.3707 69.2838 27.2C69.0064 27.0293 68.6598 26.944 68.2438 26.944C67.7638 26.944 67.3958 27.0293 67.1398 27.2C66.8838 27.3707 66.7558 27.6213 66.7558 27.952C66.7558 28.176 66.8251 28.3627 66.9638 28.512C67.1131 28.6613 67.3478 28.8 67.6678 28.928C67.9984 29.0453 68.4678 29.168 69.0758 29.296C70.0678 29.4773 70.8571 29.7067 71.4438 29.984C72.0411 30.2507 72.4784 30.6027 72.7558 31.04C73.0331 31.4667 73.1718 32.0053 73.1718 32.656C73.1718 33.3707 72.9638 33.9947 72.5478 34.528C72.1424 35.0507 71.5718 35.456 70.8358 35.744C70.1104 36.0213 69.2784 36.16 68.3398 36.16ZM78.3278 36C78.2211 36 78.1251 35.9627 78.0398 35.888C77.9651 35.8027 77.9278 35.7067 77.9278 35.6V27.312H75.0798C74.9731 27.312 74.8771 27.2747 74.7918 27.2C74.7171 27.1147 74.6798 27.0187 74.6798 26.912V25.2C74.6798 25.0827 74.7171 24.9867 74.7918 24.912C74.8771 24.8373 74.9731 24.8 75.0798 24.8H83.6878C83.8051 24.8 83.9011 24.8373 83.9758 24.912C84.0504 24.9867 84.0878 25.0827 84.0878 25.2V26.912C84.0878 27.0293 84.0504 27.1253 83.9758 27.2C83.9011 27.2747 83.8051 27.312 83.6878 27.312H80.8398V35.6C80.8398 35.7067 80.8024 35.8027 80.7278 35.888C80.6531 35.9627 80.5571 36 80.4398 36H78.3278ZM84.5612 36C84.4759 36 84.3959 35.968 84.3212 35.904C84.2572 35.8293 84.2252 35.7493 84.2252 35.664C84.2252 35.6 84.2306 35.552 84.2412 35.52L88.0012 25.248C88.0332 25.12 88.1026 25.0133 88.2092 24.928C88.3159 24.8427 88.4546 24.8 88.6252 24.8H90.9932C91.1639 24.8 91.3026 24.8427 91.4092 24.928C91.5159 25.0133 91.5852 25.12 91.6172 25.248L95.3612 35.52L95.3932 35.664C95.3932 35.7493 95.3559 35.8293 95.2812 35.904C95.2172 35.968 95.1372 36 95.0413 36H93.0732C92.8172 36 92.6466 35.888 92.5612 35.664L91.9372 34.032H87.6652L87.0572 35.664C86.9719 35.888 86.7959 36 86.5292 36H84.5612ZM91.2972 31.728L89.8092 27.504L88.3212 31.728H91.2972ZM97.8544 36C97.7477 36 97.6517 35.9627 97.5664 35.888C97.4917 35.8027 97.4544 35.7067 97.4544 35.6V25.2C97.4544 25.0827 97.4917 24.9867 97.5664 24.912C97.6517 24.8373 97.7477 24.8 97.8544 24.8H102.206C103.604 24.8 104.692 25.12 105.47 25.76C106.26 26.3893 106.654 27.2853 106.654 28.448C106.654 29.1947 106.478 29.8293 106.126 30.352C105.774 30.8747 105.289 31.2747 104.67 31.552L106.862 35.488C106.894 35.552 106.91 35.6107 106.91 35.664C106.91 35.7493 106.873 35.8293 106.798 35.904C106.734 35.968 106.66 36 106.574 36H104.446C104.137 36 103.918 35.856 103.79 35.568L101.966 32.048H100.334V35.6C100.334 35.7173 100.292 35.8133 100.206 35.888C100.132 35.9627 100.036 36 99.9184 36H97.8544ZM102.174 29.776C102.665 29.776 103.038 29.6587 103.294 29.424C103.55 29.1787 103.678 28.8427 103.678 28.416C103.678 27.9893 103.55 27.6533 103.294 27.408C103.049 27.152 102.676 27.024 102.174 27.024H100.334V29.776H102.174ZM112.072 36C111.965 36 111.869 35.9627 111.784 35.888C111.709 35.8027 111.672 35.7067 111.672 35.6V27.312H108.824C108.717 27.312 108.621 27.2747 108.536 27.2C108.461 27.1147 108.424 27.0187 108.424 26.912V25.2C108.424 25.0827 108.461 24.9867 108.536 24.912C108.621 24.8373 108.717 24.8 108.824 24.8H117.432C117.549 24.8 117.645 24.8373 117.72 24.912C117.794 24.9867 117.832 25.0827 117.832 25.2V26.912C117.832 27.0293 117.794 27.1253 117.72 27.2C117.645 27.2747 117.549 27.312 117.432 27.312H114.584V35.6C114.584 35.7067 114.546 35.8027 114.472 35.888C114.397 35.9627 114.301 36 114.184 36H112.072ZM120.486 36C120.379 36 120.283 35.9627 120.198 35.888C120.123 35.8027 120.086 35.7067 120.086 35.6V25.2C120.086 25.0827 120.123 24.9867 120.198 24.912C120.283 24.8373 120.379 24.8 120.486 24.8H127.958C128.075 24.8 128.171 24.8373 128.246 24.912C128.32 24.9867 128.358 25.0827 128.358 25.2V26.704C128.358 26.8107 128.32 26.9067 128.246 26.992C128.171 27.0667 128.075 27.104 127.958 27.104H122.854V29.264H127.606C127.723 29.264 127.819 29.3067 127.894 29.392C127.968 29.4667 128.006 29.5627 128.006 29.68V31.072C128.006 31.1787 127.968 31.2747 127.894 31.36C127.819 31.4347 127.723 31.472 127.606 31.472H122.854V33.696H128.086C128.203 33.696 128.299 33.7333 128.374 33.808C128.448 33.8827 128.486 33.9787 128.486 34.096V35.6C128.486 35.7067 128.448 35.8027 128.374 35.888C128.299 35.9627 128.203 36 128.086 36H120.486ZM131.504 36C131.398 36 131.302 35.9627 131.216 35.888C131.142 35.8027 131.104 35.7067 131.104 35.6V25.2C131.104 25.0827 131.142 24.9867 131.216 24.912C131.302 24.8373 131.398 24.8 131.504 24.8H135.664C137.232 24.8 138.448 25.1733 139.312 25.92C140.176 26.6667 140.63 27.7493 140.672 29.168C140.683 29.4773 140.688 29.888 140.688 30.4C140.688 30.912 140.683 31.3173 140.672 31.616C140.619 33.0987 140.176 34.2027 139.344 34.928C138.523 35.6427 137.323 36 135.744 36H131.504ZM135.664 33.696C136.368 33.696 136.886 33.5307 137.216 33.2C137.547 32.8587 137.723 32.32 137.744 31.584C137.766 31.2747 137.776 30.8747 137.776 30.384C137.776 29.8933 137.766 29.4987 137.744 29.2C137.723 28.4853 137.531 27.9573 137.168 27.616C136.816 27.2747 136.288 27.104 135.584 27.104H133.984V33.696H135.664Z" fill="white"/>
<path d="M189.888 36.355L195.5 30.1775L194.5 29.0766V29.0039H194.434L189.888 24L188.409 25.3464L191.731 29.0039L166 29.0039V31.0039L192.046 31.0039L188.409 35.0086L189.888 36.355Z" fill="white"/>
</svg>
