<svg width="570" height="160" viewBox="0 0 570 160" fill="none" xmlns="http://www.w3.org/2000/svg">
<path opacity="0.4" d="M0 0H570V160H0V0Z" fill="#FCDDD4"/>
<path d="M0 4.99988C0 2.23845 2.23858 -0.00012207 5 -0.00012207H10V160H5C2.23858 160 0 157.761 0 155V4.99988Z" fill="#ED4D47"/>
<path d="M57.448 56C57.288 56 57.152 55.944 57.04 55.832C56.928 55.72 56.872 55.584 56.872 55.424V39.8C56.872 39.624 56.92 39.48 57.016 39.368C57.128 39.256 57.272 39.2 57.448 39.2H59.632C59.808 39.2 59.944 39.256 60.04 39.368C60.152 39.48 60.208 39.624 60.208 39.8V45.992H67.288V39.8C67.288 39.624 67.336 39.48 67.432 39.368C67.544 39.256 67.688 39.2 67.864 39.2H70.024C70.2 39.2 70.344 39.256 70.456 39.368C70.568 39.48 70.624 39.624 70.624 39.8V55.424C70.624 55.6 70.568 55.744 70.456 55.856C70.344 55.952 70.2 56 70.024 56H67.864C67.704 56 67.568 55.944 67.456 55.832C67.344 55.72 67.288 55.584 67.288 55.424V48.992H60.208V55.424C60.208 55.584 60.152 55.72 60.04 55.832C59.944 55.944 59.808 56 59.632 56H57.448ZM79.5884 56.24C77.7164 56.24 76.2684 55.76 75.2444 54.8C74.2204 53.824 73.6684 52.496 73.5884 50.816L73.5644 49.76L73.5884 48.704C73.6684 47.04 74.2284 45.72 75.2684 44.744C76.3084 43.768 77.7484 43.28 79.5884 43.28C81.4284 43.28 82.8684 43.768 83.9084 44.744C84.9484 45.72 85.5084 47.04 85.5884 48.704C85.6044 48.896 85.6124 49.248 85.6124 49.76C85.6124 50.272 85.6044 50.624 85.5884 50.816C85.5084 52.496 84.9564 53.824 83.9324 54.8C82.9084 55.76 81.4604 56.24 79.5884 56.24ZM79.5884 53.864C80.4364 53.864 81.0924 53.6 81.5564 53.072C82.0204 52.528 82.2764 51.736 82.3244 50.696C82.3404 50.536 82.3484 50.224 82.3484 49.76C82.3484 49.296 82.3404 48.984 82.3244 48.824C82.2764 47.784 82.0204 47 81.5564 46.472C81.0924 45.928 80.4364 45.656 79.5884 45.656C78.7404 45.656 78.0844 45.928 77.6204 46.472C77.1564 47 76.9004 47.784 76.8524 48.824L76.8284 49.76L76.8524 50.696C76.9004 51.736 77.1564 52.528 77.6204 53.072C78.0844 53.6 78.7404 53.864 79.5884 53.864ZM91.3279 56C91.1199 56 90.9519 55.952 90.8239 55.856C90.7119 55.744 90.6159 55.592 90.5359 55.4L87.1039 44.264C87.0879 44.216 87.0799 44.144 87.0799 44.048C87.0799 43.904 87.1279 43.784 87.2239 43.688C87.3359 43.576 87.4559 43.52 87.5839 43.52H89.3599C89.5359 43.52 89.6799 43.568 89.7919 43.664C89.9039 43.76 89.9759 43.864 90.0079 43.976L92.3599 51.92L94.8559 44.048C94.9039 43.904 94.9839 43.784 95.0959 43.688C95.2239 43.576 95.3839 43.52 95.5759 43.52H96.7759C96.9679 43.52 97.1199 43.576 97.2319 43.688C97.3599 43.784 97.4479 43.904 97.4959 44.048L99.9919 51.92L102.344 43.976C102.36 43.864 102.424 43.76 102.536 43.664C102.664 43.568 102.808 43.52 102.968 43.52H104.744C104.888 43.52 105.008 43.576 105.104 43.688C105.216 43.784 105.272 43.904 105.272 44.048L105.224 44.264L101.792 55.4C101.728 55.592 101.632 55.744 101.504 55.856C101.392 55.952 101.232 56 101.024 56H99.4639C99.0479 56 98.7839 55.8 98.6719 55.4L96.1759 47.816L93.6799 55.4C93.5519 55.8 93.2799 56 92.8639 56H91.3279ZM117.185 56.24C115.569 56.24 114.329 55.72 113.465 54.68C112.601 53.64 112.137 52.256 112.073 50.528L112.049 49.736L112.073 48.968C112.121 47.288 112.577 45.92 113.441 44.864C114.321 43.808 115.569 43.28 117.185 43.28C118.737 43.28 119.969 43.808 120.881 44.864V39.536C120.881 39.36 120.937 39.224 121.049 39.128C121.161 39.016 121.297 38.96 121.457 38.96H123.497C123.673 38.96 123.809 39.016 123.905 39.128C124.017 39.224 124.073 39.36 124.073 39.536V55.424C124.073 55.584 124.017 55.72 123.905 55.832C123.809 55.944 123.673 56 123.497 56H121.601C121.441 56 121.305 55.944 121.193 55.832C121.081 55.72 121.025 55.584 121.025 55.424V54.536C120.113 55.672 118.833 56.24 117.185 56.24ZM118.073 53.672C119.001 53.672 119.689 53.376 120.137 52.784C120.585 52.192 120.833 51.464 120.881 50.6C120.897 50.408 120.905 50.096 120.905 49.664C120.905 49.248 120.897 48.944 120.881 48.752C120.849 47.952 120.593 47.272 120.113 46.712C119.649 46.136 118.969 45.848 118.073 45.848C116.345 45.848 115.425 46.912 115.313 49.04L115.289 49.76L115.313 50.48C115.425 52.608 116.345 53.672 118.073 53.672ZM132.792 56.24C130.92 56.24 129.472 55.76 128.448 54.8C127.424 53.824 126.872 52.496 126.792 50.816L126.768 49.76L126.792 48.704C126.872 47.04 127.432 45.72 128.472 44.744C129.512 43.768 130.952 43.28 132.792 43.28C134.632 43.28 136.072 43.768 137.112 44.744C138.152 45.72 138.712 47.04 138.792 48.704C138.808 48.896 138.816 49.248 138.816 49.76C138.816 50.272 138.808 50.624 138.792 50.816C138.712 52.496 138.16 53.824 137.136 54.8C136.112 55.76 134.664 56.24 132.792 56.24ZM132.792 53.864C133.64 53.864 134.296 53.6 134.76 53.072C135.224 52.528 135.48 51.736 135.528 50.696C135.544 50.536 135.552 50.224 135.552 49.76C135.552 49.296 135.544 48.984 135.528 48.824C135.48 47.784 135.224 47 134.76 46.472C134.296 45.928 133.64 45.656 132.792 45.656C131.944 45.656 131.288 45.928 130.824 46.472C130.36 47 130.104 47.784 130.056 48.824L130.032 49.76L130.056 50.696C130.104 51.736 130.36 52.528 130.824 53.072C131.288 53.6 131.944 53.864 132.792 53.864ZM148.582 60.56C148.454 60.56 148.342 60.512 148.246 60.416C148.15 60.32 148.102 60.208 148.102 60.08C148.102 59.936 148.134 59.808 148.198 59.696L150.07 55.256L145.462 44.384C145.398 44.24 145.366 44.128 145.366 44.048C145.382 43.904 145.438 43.784 145.534 43.688C145.63 43.576 145.75 43.52 145.894 43.52H147.838C148.142 43.52 148.358 43.672 148.486 43.976L151.678 51.824L154.966 43.976C155.094 43.672 155.31 43.52 155.614 43.52H157.534C157.662 43.52 157.774 43.568 157.87 43.664C157.982 43.76 158.038 43.872 158.038 44C158.038 44.112 158.006 44.24 157.942 44.384L151.15 60.104C151.006 60.408 150.782 60.56 150.478 60.56H148.582ZM165.182 56.24C163.31 56.24 161.862 55.76 160.838 54.8C159.814 53.824 159.262 52.496 159.182 50.816L159.158 49.76L159.182 48.704C159.262 47.04 159.822 45.72 160.862 44.744C161.902 43.768 163.342 43.28 165.182 43.28C167.022 43.28 168.462 43.768 169.502 44.744C170.542 45.72 171.102 47.04 171.182 48.704C171.198 48.896 171.206 49.248 171.206 49.76C171.206 50.272 171.198 50.624 171.182 50.816C171.102 52.496 170.55 53.824 169.526 54.8C168.502 55.76 167.054 56.24 165.182 56.24ZM165.182 53.864C166.03 53.864 166.686 53.6 167.15 53.072C167.614 52.528 167.87 51.736 167.918 50.696C167.934 50.536 167.942 50.224 167.942 49.76C167.942 49.296 167.934 48.984 167.918 48.824C167.87 47.784 167.614 47 167.15 46.472C166.686 45.928 166.03 45.656 165.182 45.656C164.334 45.656 163.678 45.928 163.214 46.472C162.75 47 162.494 47.784 162.446 48.824L162.422 49.76L162.446 50.696C162.494 51.736 162.75 52.528 163.214 53.072C163.678 53.6 164.334 53.864 165.182 53.864ZM178.497 56.24C177.025 56.24 175.865 55.76 175.017 54.8C174.169 53.824 173.745 52.504 173.745 50.84V44.096C173.745 43.936 173.801 43.8 173.913 43.688C174.025 43.576 174.161 43.52 174.321 43.52H176.433C176.609 43.52 176.745 43.576 176.841 43.688C176.953 43.784 177.009 43.92 177.009 44.096V50.696C177.009 52.68 177.881 53.672 179.625 53.672C180.457 53.672 181.113 53.408 181.593 52.88C182.089 52.352 182.337 51.624 182.337 50.696V44.096C182.337 43.936 182.393 43.8 182.505 43.688C182.617 43.576 182.753 43.52 182.913 43.52H185.025C185.201 43.52 185.337 43.576 185.433 43.688C185.545 43.784 185.601 43.92 185.601 44.096V55.424C185.601 55.584 185.545 55.72 185.433 55.832C185.337 55.944 185.201 56 185.025 56H183.081C182.921 56 182.785 55.944 182.673 55.832C182.561 55.72 182.505 55.584 182.505 55.424V54.44C181.609 55.64 180.273 56.24 178.497 56.24ZM198.888 56.24C197.272 56.24 196.032 55.72 195.168 54.68C194.304 53.64 193.84 52.256 193.776 50.528L193.752 49.736L193.776 48.968C193.824 47.288 194.28 45.92 195.144 44.864C196.024 43.808 197.272 43.28 198.888 43.28C200.44 43.28 201.672 43.808 202.584 44.864V39.536C202.584 39.36 202.64 39.224 202.752 39.128C202.864 39.016 203 38.96 203.16 38.96H205.2C205.376 38.96 205.512 39.016 205.608 39.128C205.72 39.224 205.776 39.36 205.776 39.536V55.424C205.776 55.584 205.72 55.72 205.608 55.832C205.512 55.944 205.376 56 205.2 56H203.304C203.144 56 203.008 55.944 202.896 55.832C202.784 55.72 202.728 55.584 202.728 55.424V54.536C201.816 55.672 200.536 56.24 198.888 56.24ZM199.776 53.672C200.704 53.672 201.392 53.376 201.84 52.784C202.288 52.192 202.536 51.464 202.584 50.6C202.6 50.408 202.608 50.096 202.608 49.664C202.608 49.248 202.6 48.944 202.584 48.752C202.552 47.952 202.296 47.272 201.816 46.712C201.352 46.136 200.672 45.848 199.776 45.848C198.048 45.848 197.128 46.912 197.016 49.04L196.992 49.76L197.016 50.48C197.128 52.608 198.048 53.672 199.776 53.672ZM214.495 56.24C212.623 56.24 211.175 55.76 210.151 54.8C209.127 53.824 208.575 52.496 208.495 50.816L208.471 49.76L208.495 48.704C208.575 47.04 209.135 45.72 210.175 44.744C211.215 43.768 212.655 43.28 214.495 43.28C216.335 43.28 217.775 43.768 218.815 44.744C219.855 45.72 220.415 47.04 220.495 48.704C220.511 48.896 220.519 49.248 220.519 49.76C220.519 50.272 220.511 50.624 220.495 50.816C220.415 52.496 219.863 53.824 218.839 54.8C217.815 55.76 216.367 56.24 214.495 56.24ZM214.495 53.864C215.343 53.864 215.999 53.6 216.463 53.072C216.927 52.528 217.183 51.736 217.231 50.696C217.247 50.536 217.255 50.224 217.255 49.76C217.255 49.296 217.247 48.984 217.231 48.824C217.183 47.784 216.927 47 216.463 46.472C215.999 45.928 215.343 45.656 214.495 45.656C213.647 45.656 212.991 45.928 212.527 46.472C212.063 47 211.807 47.784 211.759 48.824L211.735 49.76L211.759 50.696C211.807 51.736 212.063 52.528 212.527 53.072C212.991 53.6 213.647 53.864 214.495 53.864ZM231.531 56C231.323 56 231.155 55.952 231.027 55.856C230.915 55.744 230.819 55.592 230.739 55.4L227.307 44.264C227.291 44.216 227.283 44.144 227.283 44.048C227.283 43.904 227.331 43.784 227.427 43.688C227.539 43.576 227.659 43.52 227.787 43.52H229.563C229.739 43.52 229.883 43.568 229.995 43.664C230.107 43.76 230.179 43.864 230.211 43.976L232.563 51.92L235.059 44.048C235.107 43.904 235.187 43.784 235.299 43.688C235.427 43.576 235.587 43.52 235.779 43.52H236.979C237.171 43.52 237.323 43.576 237.435 43.688C237.563 43.784 237.651 43.904 237.699 44.048L240.195 51.92L242.547 43.976C242.563 43.864 242.627 43.76 242.739 43.664C242.867 43.568 243.011 43.52 243.171 43.52H244.947C245.091 43.52 245.211 43.576 245.307 43.688C245.419 43.784 245.475 43.904 245.475 44.048L245.427 44.264L241.995 55.4C241.931 55.592 241.835 55.744 241.707 55.856C241.595 55.952 241.435 56 241.227 56H239.667C239.251 56 238.987 55.8 238.875 55.4L236.379 47.816L233.883 55.4C233.755 55.8 233.483 56 233.067 56H231.531ZM248.411 56C248.251 56 248.115 55.944 248.003 55.832C247.891 55.72 247.835 55.584 247.835 55.424V39.536C247.835 39.36 247.891 39.224 248.003 39.128C248.115 39.016 248.251 38.96 248.411 38.96H250.547C250.723 38.96 250.859 39.016 250.955 39.128C251.067 39.224 251.123 39.36 251.123 39.536V45.008C252.083 43.856 253.379 43.28 255.011 43.28C256.483 43.28 257.659 43.768 258.539 44.744C259.419 45.704 259.859 47.016 259.859 48.68V55.424C259.859 55.584 259.803 55.72 259.691 55.832C259.595 55.944 259.459 56 259.283 56H257.123C256.963 56 256.827 55.944 256.715 55.832C256.603 55.72 256.547 55.584 256.547 55.424V48.824C256.547 47.88 256.315 47.152 255.851 46.64C255.403 46.112 254.747 45.848 253.883 45.848C253.035 45.848 252.363 46.112 251.867 46.64C251.371 47.168 251.123 47.896 251.123 48.824V55.424C251.123 55.584 251.067 55.72 250.955 55.832C250.859 55.944 250.723 56 250.547 56H248.411ZM268.28 56.24C266.504 56.24 265.088 55.728 264.032 54.704C262.992 53.664 262.44 52.208 262.376 50.336L262.352 49.736L262.376 49.136C262.456 47.312 263.016 45.88 264.056 44.84C265.112 43.8 266.52 43.28 268.28 43.28C270.168 43.28 271.624 43.856 272.648 45.008C273.688 46.16 274.208 47.696 274.208 49.616V50.12C274.208 50.28 274.152 50.416 274.04 50.528C273.928 50.64 273.784 50.696 273.608 50.696H265.64V50.888C265.672 51.768 265.912 52.512 266.36 53.12C266.824 53.712 267.456 54.008 268.256 54.008C269.2 54.008 269.96 53.64 270.536 52.904C270.68 52.728 270.792 52.616 270.872 52.568C270.968 52.52 271.104 52.496 271.28 52.496H273.344C273.488 52.496 273.608 52.544 273.704 52.64C273.816 52.72 273.872 52.824 273.872 52.952C273.872 53.336 273.64 53.792 273.176 54.32C272.728 54.832 272.08 55.28 271.232 55.664C270.384 56.048 269.4 56.24 268.28 56.24ZM270.944 48.68V48.608C270.944 47.664 270.704 46.904 270.224 46.328C269.76 45.752 269.112 45.464 268.28 45.464C267.448 45.464 266.8 45.752 266.336 46.328C265.872 46.904 265.64 47.664 265.64 48.608V48.68H270.944ZM277.332 56C277.172 56 277.036 55.944 276.924 55.832C276.812 55.72 276.756 55.584 276.756 55.424V44.096C276.756 43.936 276.812 43.8 276.924 43.688C277.036 43.576 277.172 43.52 277.332 43.52H279.3C279.46 43.52 279.596 43.576 279.708 43.688C279.82 43.8 279.876 43.936 279.876 44.096V45.08C280.82 43.88 282.156 43.28 283.884 43.28C285.356 43.28 286.524 43.768 287.388 44.744C288.252 45.704 288.684 47.016 288.684 48.68V55.424C288.684 55.584 288.628 55.72 288.516 55.832C288.42 55.944 288.284 56 288.108 56H285.996C285.836 56 285.7 55.944 285.588 55.832C285.476 55.72 285.42 55.584 285.42 55.424V48.824C285.42 47.88 285.188 47.152 284.724 46.64C284.276 46.112 283.62 45.848 282.756 45.848C281.908 45.848 281.236 46.112 280.74 46.64C280.26 47.168 280.02 47.896 280.02 48.824V55.424C280.02 55.584 279.964 55.72 279.852 55.832C279.756 55.944 279.62 56 279.444 56H277.332ZM298.84 60.56C298.712 60.56 298.6 60.512 298.504 60.416C298.408 60.32 298.36 60.208 298.36 60.08C298.36 59.936 298.392 59.808 298.456 59.696L300.328 55.256L295.72 44.384C295.656 44.24 295.624 44.128 295.624 44.048C295.64 43.904 295.696 43.784 295.792 43.688C295.888 43.576 296.008 43.52 296.152 43.52H298.096C298.4 43.52 298.616 43.672 298.744 43.976L301.936 51.824L305.224 43.976C305.352 43.672 305.568 43.52 305.872 43.52H307.792C307.92 43.52 308.032 43.568 308.128 43.664C308.24 43.76 308.296 43.872 308.296 44C308.296 44.112 308.264 44.24 308.2 44.384L301.408 60.104C301.264 60.408 301.04 60.56 300.736 60.56H298.84ZM315.44 56.24C313.568 56.24 312.12 55.76 311.096 54.8C310.072 53.824 309.52 52.496 309.44 50.816L309.416 49.76L309.44 48.704C309.52 47.04 310.08 45.72 311.12 44.744C312.16 43.768 313.6 43.28 315.44 43.28C317.28 43.28 318.72 43.768 319.76 44.744C320.8 45.72 321.36 47.04 321.44 48.704C321.456 48.896 321.464 49.248 321.464 49.76C321.464 50.272 321.456 50.624 321.44 50.816C321.36 52.496 320.808 53.824 319.784 54.8C318.76 55.76 317.312 56.24 315.44 56.24ZM315.44 53.864C316.288 53.864 316.944 53.6 317.408 53.072C317.872 52.528 318.128 51.736 318.176 50.696C318.192 50.536 318.2 50.224 318.2 49.76C318.2 49.296 318.192 48.984 318.176 48.824C318.128 47.784 317.872 47 317.408 46.472C316.944 45.928 316.288 45.656 315.44 45.656C314.592 45.656 313.936 45.928 313.472 46.472C313.008 47 312.752 47.784 312.704 48.824L312.68 49.76L312.704 50.696C312.752 51.736 313.008 52.528 313.472 53.072C313.936 53.6 314.592 53.864 315.44 53.864ZM328.755 56.24C327.283 56.24 326.123 55.76 325.275 54.8C324.427 53.824 324.003 52.504 324.003 50.84V44.096C324.003 43.936 324.059 43.8 324.171 43.688C324.283 43.576 324.419 43.52 324.579 43.52H326.691C326.867 43.52 327.003 43.576 327.099 43.688C327.211 43.784 327.267 43.92 327.267 44.096V50.696C327.267 52.68 328.139 53.672 329.883 53.672C330.715 53.672 331.371 53.408 331.851 52.88C332.347 52.352 332.595 51.624 332.595 50.696V44.096C332.595 43.936 332.651 43.8 332.763 43.688C332.875 43.576 333.011 43.52 333.171 43.52H335.283C335.459 43.52 335.595 43.576 335.691 43.688C335.803 43.784 335.859 43.92 335.859 44.096V55.424C335.859 55.584 335.803 55.72 335.691 55.832C335.595 55.944 335.459 56 335.283 56H333.339C333.179 56 333.043 55.944 332.931 55.832C332.819 55.72 332.763 55.584 332.763 55.424V54.44C331.867 55.64 330.531 56.24 328.755 56.24ZM345.09 56C344.93 56 344.794 55.944 344.682 55.832C344.57 55.72 344.514 55.584 344.514 55.424V44.096C344.514 43.936 344.57 43.8 344.682 43.688C344.794 43.576 344.93 43.52 345.09 43.52H347.058C347.218 43.52 347.354 43.576 347.466 43.688C347.578 43.8 347.634 43.936 347.634 44.096V45.08C348.578 43.88 349.914 43.28 351.642 43.28C353.114 43.28 354.282 43.768 355.146 44.744C356.01 45.704 356.442 47.016 356.442 48.68V55.424C356.442 55.584 356.386 55.72 356.274 55.832C356.178 55.944 356.042 56 355.866 56H353.754C353.594 56 353.458 55.944 353.346 55.832C353.234 55.72 353.178 55.584 353.178 55.424V48.824C353.178 47.88 352.946 47.152 352.482 46.64C352.034 46.112 351.378 45.848 350.514 45.848C349.666 45.848 348.994 46.112 348.498 46.64C348.018 47.168 347.778 47.896 347.778 48.824V55.424C347.778 55.584 347.722 55.72 347.61 55.832C347.514 55.944 347.378 56 347.202 56H345.09ZM364.866 56.24C363.09 56.24 361.674 55.728 360.618 54.704C359.578 53.664 359.026 52.208 358.962 50.336L358.938 49.736L358.962 49.136C359.042 47.312 359.602 45.88 360.642 44.84C361.698 43.8 363.106 43.28 364.866 43.28C366.754 43.28 368.21 43.856 369.234 45.008C370.274 46.16 370.794 47.696 370.794 49.616V50.12C370.794 50.28 370.738 50.416 370.626 50.528C370.514 50.64 370.37 50.696 370.194 50.696H362.226V50.888C362.258 51.768 362.498 52.512 362.946 53.12C363.41 53.712 364.042 54.008 364.842 54.008C365.786 54.008 366.546 53.64 367.122 52.904C367.266 52.728 367.378 52.616 367.458 52.568C367.554 52.52 367.69 52.496 367.866 52.496H369.93C370.074 52.496 370.194 52.544 370.29 52.64C370.402 52.72 370.458 52.824 370.458 52.952C370.458 53.336 370.226 53.792 369.762 54.32C369.314 54.832 368.666 55.28 367.818 55.664C366.97 56.048 365.986 56.24 364.866 56.24ZM367.53 48.68V48.608C367.53 47.664 367.29 46.904 366.81 46.328C366.346 45.752 365.698 45.464 364.866 45.464C364.034 45.464 363.386 45.752 362.922 46.328C362.458 46.904 362.226 47.664 362.226 48.608V48.68H367.53ZM378.718 56.24C376.942 56.24 375.526 55.728 374.47 54.704C373.43 53.664 372.878 52.208 372.814 50.336L372.79 49.736L372.814 49.136C372.894 47.312 373.454 45.88 374.494 44.84C375.55 43.8 376.958 43.28 378.718 43.28C380.606 43.28 382.062 43.856 383.086 45.008C384.126 46.16 384.646 47.696 384.646 49.616V50.12C384.646 50.28 384.59 50.416 384.478 50.528C384.366 50.64 384.222 50.696 384.046 50.696H376.078V50.888C376.11 51.768 376.35 52.512 376.798 53.12C377.262 53.712 377.894 54.008 378.694 54.008C379.638 54.008 380.398 53.64 380.974 52.904C381.118 52.728 381.23 52.616 381.31 52.568C381.406 52.52 381.542 52.496 381.718 52.496H383.782C383.926 52.496 384.046 52.544 384.142 52.64C384.254 52.72 384.31 52.824 384.31 52.952C384.31 53.336 384.078 53.792 383.614 54.32C383.166 54.832 382.518 55.28 381.67 55.664C380.822 56.048 379.838 56.24 378.718 56.24ZM381.382 48.68V48.608C381.382 47.664 381.142 46.904 380.662 46.328C380.198 45.752 379.55 45.464 378.718 45.464C377.886 45.464 377.238 45.752 376.774 46.328C376.31 46.904 376.078 47.664 376.078 48.608V48.68H381.382ZM391.825 56.24C390.209 56.24 388.969 55.72 388.105 54.68C387.241 53.64 386.777 52.256 386.713 50.528L386.689 49.736L386.713 48.968C386.761 47.288 387.217 45.92 388.081 44.864C388.961 43.808 390.209 43.28 391.825 43.28C393.377 43.28 394.609 43.808 395.521 44.864V39.536C395.521 39.36 395.577 39.224 395.689 39.128C395.801 39.016 395.937 38.96 396.097 38.96H398.137C398.313 38.96 398.449 39.016 398.545 39.128C398.657 39.224 398.713 39.36 398.713 39.536V55.424C398.713 55.584 398.657 55.72 398.545 55.832C398.449 55.944 398.313 56 398.137 56H396.241C396.081 56 395.945 55.944 395.833 55.832C395.721 55.72 395.665 55.584 395.665 55.424V54.536C394.753 55.672 393.473 56.24 391.825 56.24ZM392.713 53.672C393.641 53.672 394.329 53.376 394.777 52.784C395.225 52.192 395.473 51.464 395.521 50.6C395.537 50.408 395.545 50.096 395.545 49.664C395.545 49.248 395.537 48.944 395.521 48.752C395.489 47.952 395.233 47.272 394.753 46.712C394.289 46.136 393.609 45.848 392.713 45.848C390.985 45.848 390.065 46.912 389.953 49.04L389.929 49.76L389.953 50.48C390.065 52.608 390.985 53.672 392.713 53.672ZM412.568 56C411.112 56 410.016 55.624 409.28 54.872C408.56 54.104 408.2 52.984 408.2 51.512V46.064H406.304C406.144 46.064 406.008 46.008 405.896 45.896C405.784 45.768 405.728 45.624 405.728 45.464V44.096C405.728 43.936 405.784 43.8 405.896 43.688C406.008 43.576 406.144 43.52 406.304 43.52H408.2V39.536C408.2 39.36 408.256 39.224 408.368 39.128C408.48 39.016 408.616 38.96 408.776 38.96H410.72C410.896 38.96 411.032 39.016 411.128 39.128C411.24 39.224 411.296 39.36 411.296 39.536V43.52H414.296C414.472 43.52 414.608 43.576 414.704 43.688C414.816 43.784 414.872 43.92 414.872 44.096V45.464C414.872 45.64 414.816 45.784 414.704 45.896C414.592 46.008 414.456 46.064 414.296 46.064H411.296V51.272C411.296 51.96 411.416 52.48 411.656 52.832C411.896 53.184 412.296 53.36 412.856 53.36H414.512C414.672 53.36 414.808 53.416 414.92 53.528C415.032 53.64 415.088 53.776 415.088 53.936V55.424C415.088 55.584 415.032 55.72 414.92 55.832C414.824 55.944 414.688 56 414.512 56H412.568ZM422.737 56.24C420.865 56.24 419.417 55.76 418.393 54.8C417.369 53.824 416.817 52.496 416.737 50.816L416.713 49.76L416.737 48.704C416.817 47.04 417.377 45.72 418.417 44.744C419.457 43.768 420.897 43.28 422.737 43.28C424.577 43.28 426.017 43.768 427.057 44.744C428.097 45.72 428.657 47.04 428.737 48.704C428.753 48.896 428.761 49.248 428.761 49.76C428.761 50.272 428.753 50.624 428.737 50.816C428.657 52.496 428.105 53.824 427.081 54.8C426.057 55.76 424.609 56.24 422.737 56.24ZM422.737 53.864C423.585 53.864 424.241 53.6 424.705 53.072C425.169 52.528 425.425 51.736 425.473 50.696C425.489 50.536 425.497 50.224 425.497 49.76C425.497 49.296 425.489 48.984 425.473 48.824C425.425 47.784 425.169 47 424.705 46.472C424.241 45.928 423.585 45.656 422.737 45.656C421.889 45.656 421.233 45.928 420.769 46.472C420.305 47 420.049 47.784 420.001 48.824L419.977 49.76L420.001 50.696C420.049 51.736 420.305 52.528 420.769 53.072C421.233 53.6 421.889 53.864 422.737 53.864ZM442.424 56.24C440.552 56.24 439.104 55.76 438.08 54.8C437.056 53.824 436.504 52.496 436.424 50.816L436.4 49.76L436.424 48.704C436.504 47.04 437.064 45.72 438.104 44.744C439.144 43.768 440.584 43.28 442.424 43.28C444.264 43.28 445.704 43.768 446.744 44.744C447.784 45.72 448.344 47.04 448.424 48.704C448.44 48.896 448.448 49.248 448.448 49.76C448.448 50.272 448.44 50.624 448.424 50.816C448.344 52.496 447.792 53.824 446.768 54.8C445.744 55.76 444.296 56.24 442.424 56.24ZM442.424 53.864C443.272 53.864 443.928 53.6 444.392 53.072C444.856 52.528 445.112 51.736 445.16 50.696C445.176 50.536 445.184 50.224 445.184 49.76C445.184 49.296 445.176 48.984 445.16 48.824C445.112 47.784 444.856 47 444.392 46.472C443.928 45.928 443.272 45.656 442.424 45.656C441.576 45.656 440.92 45.928 440.456 46.472C439.992 47 439.736 47.784 439.688 48.824L439.664 49.76L439.688 50.696C439.736 51.736 439.992 52.528 440.456 53.072C440.92 53.6 441.576 53.864 442.424 53.864ZM458.019 56.24C456.371 56.24 455.091 55.672 454.179 54.536V55.424C454.179 55.584 454.123 55.72 454.011 55.832C453.915 55.944 453.779 56 453.603 56H451.707C451.547 56 451.411 55.944 451.299 55.832C451.187 55.72 451.131 55.584 451.131 55.424V39.536C451.131 39.36 451.187 39.224 451.299 39.128C451.411 39.016 451.547 38.96 451.707 38.96H453.747C453.923 38.96 454.059 39.016 454.155 39.128C454.267 39.224 454.323 39.36 454.323 39.536V44.864C455.235 43.808 456.467 43.28 458.019 43.28C459.635 43.28 460.875 43.808 461.739 44.864C462.603 45.92 463.067 47.288 463.131 48.968C463.147 49.16 463.155 49.416 463.155 49.736C463.155 50.072 463.147 50.336 463.131 50.528C463.067 52.256 462.603 53.64 461.739 54.68C460.875 55.72 459.635 56.24 458.019 56.24ZM457.131 53.672C458.859 53.672 459.779 52.608 459.891 50.48C459.907 50.32 459.915 50.08 459.915 49.76C459.915 49.44 459.907 49.2 459.891 49.04C459.779 46.912 458.859 45.848 457.131 45.848C456.235 45.848 455.547 46.136 455.067 46.712C454.603 47.272 454.355 47.952 454.323 48.752L454.299 49.664L454.323 50.6C454.371 51.464 454.619 52.192 455.067 52.784C455.515 53.376 456.203 53.672 457.131 53.672ZM471.372 56C469.916 56 468.82 55.624 468.084 54.872C467.364 54.104 467.004 52.984 467.004 51.512V46.064H465.108C464.948 46.064 464.812 46.008 464.7 45.896C464.588 45.768 464.532 45.624 464.532 45.464V44.096C464.532 43.936 464.588 43.8 464.7 43.688C464.812 43.576 464.948 43.52 465.108 43.52H467.004V39.536C467.004 39.36 467.06 39.224 467.172 39.128C467.284 39.016 467.42 38.96 467.58 38.96H469.524C469.7 38.96 469.836 39.016 469.932 39.128C470.044 39.224 470.1 39.36 470.1 39.536V43.52H473.1C473.276 43.52 473.412 43.576 473.508 43.688C473.62 43.784 473.676 43.92 473.676 44.096V45.464C473.676 45.64 473.62 45.784 473.508 45.896C473.396 46.008 473.26 46.064 473.1 46.064H470.1V51.272C470.1 51.96 470.22 52.48 470.46 52.832C470.7 53.184 471.1 53.36 471.66 53.36H473.316C473.476 53.36 473.612 53.416 473.724 53.528C473.836 53.64 473.892 53.776 473.892 53.936V55.424C473.892 55.584 473.836 55.72 473.724 55.832C473.628 55.944 473.492 56 473.316 56H471.372ZM479.646 56.24C478.83 56.24 478.078 56.08 477.39 55.76C476.718 55.424 476.182 54.976 475.782 54.416C475.398 53.856 475.206 53.24 475.206 52.568C475.206 51.48 475.646 50.6 476.526 49.928C477.406 49.256 478.614 48.8 480.15 48.56L483.438 48.08V47.576C483.438 46.872 483.262 46.344 482.91 45.992C482.558 45.64 481.99 45.464 481.206 45.464C480.678 45.464 480.246 45.568 479.91 45.776C479.59 45.968 479.334 46.16 479.142 46.352C478.95 46.56 478.822 46.696 478.758 46.76C478.694 46.952 478.574 47.048 478.398 47.048H476.55C476.406 47.048 476.278 47 476.166 46.904C476.07 46.808 476.021 46.68 476.021 46.52C476.038 46.12 476.23 45.664 476.598 45.152C476.982 44.64 477.566 44.2 478.35 43.832C479.134 43.464 480.094 43.28 481.23 43.28C483.118 43.28 484.494 43.704 485.358 44.552C486.222 45.4 486.654 46.512 486.654 47.888V55.424C486.654 55.584 486.598 55.72 486.486 55.832C486.39 55.944 486.254 56 486.078 56H484.134C483.974 56 483.838 55.944 483.726 55.832C483.614 55.72 483.558 55.584 483.558 55.424V54.488C483.206 55 482.702 55.424 482.046 55.76C481.406 56.08 480.606 56.24 479.646 56.24ZM480.462 53.96C481.342 53.96 482.062 53.672 482.622 53.096C483.182 52.52 483.462 51.68 483.462 50.576V50.072L481.062 50.456C480.134 50.6 479.43 50.832 478.95 51.152C478.486 51.472 478.254 51.864 478.254 52.328C478.254 52.84 478.47 53.24 478.902 53.528C479.334 53.816 479.854 53.96 480.462 53.96ZM490.212 41.456C490.052 41.456 489.916 41.4 489.804 41.288C489.692 41.176 489.636 41.04 489.636 40.88V39.152C489.636 38.992 489.692 38.856 489.804 38.744C489.916 38.632 490.052 38.576 490.212 38.576H492.396C492.556 38.576 492.692 38.632 492.804 38.744C492.932 38.856 492.996 38.992 492.996 39.152V40.88C492.996 41.04 492.94 41.176 492.828 41.288C492.716 41.4 492.572 41.456 492.396 41.456H490.212ZM490.308 56C490.148 56 490.012 55.944 489.9 55.832C489.788 55.72 489.732 55.584 489.732 55.424V44.096C489.732 43.936 489.788 43.8 489.9 43.688C490.012 43.576 490.148 43.52 490.308 43.52H492.3C492.476 43.52 492.612 43.576 492.708 43.688C492.82 43.784 492.876 43.92 492.876 44.096V55.424C492.876 55.584 492.82 55.72 492.708 55.832C492.612 55.944 492.476 56 492.3 56H490.308ZM496.637 56C496.477 56 496.341 55.944 496.229 55.832C496.117 55.72 496.061 55.584 496.061 55.424V44.096C496.061 43.936 496.117 43.8 496.229 43.688C496.341 43.576 496.477 43.52 496.637 43.52H498.605C498.765 43.52 498.901 43.576 499.013 43.688C499.125 43.8 499.181 43.936 499.181 44.096V45.08C500.125 43.88 501.461 43.28 503.189 43.28C504.661 43.28 505.829 43.768 506.693 44.744C507.557 45.704 507.989 47.016 507.989 48.68V55.424C507.989 55.584 507.933 55.72 507.821 55.832C507.725 55.944 507.589 56 507.413 56H505.301C505.141 56 505.005 55.944 504.893 55.832C504.781 55.72 504.725 55.584 504.725 55.424V48.824C504.725 47.88 504.493 47.152 504.029 46.64C503.581 46.112 502.925 45.848 502.061 45.848C501.213 45.848 500.541 46.112 500.045 46.64C499.565 47.168 499.325 47.896 499.325 48.824V55.424C499.325 55.584 499.269 55.72 499.157 55.832C499.061 55.944 498.925 56 498.749 56H496.637ZM60.208 92.24C59.392 92.24 58.64 92.08 57.952 91.76C57.28 91.424 56.744 90.976 56.344 90.416C55.96 89.856 55.768 89.24 55.768 88.568C55.768 87.48 56.208 86.6 57.088 85.928C57.968 85.256 59.176 84.8 60.712 84.56L64 84.08V83.576C64 82.872 63.824 82.344 63.472 81.992C63.12 81.64 62.552 81.464 61.768 81.464C61.24 81.464 60.808 81.568 60.472 81.776C60.152 81.968 59.896 82.16 59.704 82.352C59.512 82.56 59.384 82.696 59.32 82.76C59.256 82.952 59.136 83.048 58.96 83.048H57.112C56.968 83.048 56.84 83 56.728 82.904C56.632 82.808 56.584 82.68 56.584 82.52C56.6 82.12 56.792 81.664 57.16 81.152C57.544 80.64 58.128 80.2 58.912 79.832C59.696 79.464 60.656 79.28 61.792 79.28C63.68 79.28 65.056 79.704 65.92 80.552C66.784 81.4 67.216 82.512 67.216 83.888V91.424C67.216 91.584 67.16 91.72 67.048 91.832C66.952 91.944 66.816 92 66.64 92H64.696C64.536 92 64.4 91.944 64.288 91.832C64.176 91.72 64.12 91.584 64.12 91.424V90.488C63.768 91 63.264 91.424 62.608 91.76C61.968 92.08 61.168 92.24 60.208 92.24ZM61.024 89.96C61.904 89.96 62.624 89.672 63.184 89.096C63.744 88.52 64.024 87.68 64.024 86.576V86.072L61.624 86.456C60.696 86.6 59.992 86.832 59.512 87.152C59.048 87.472 58.816 87.864 58.816 88.328C58.816 88.84 59.032 89.24 59.464 89.528C59.896 89.816 60.416 89.96 61.024 89.96ZM81.1793 92.24C79.4193 92.24 78.0113 91.752 76.9553 90.776C75.9153 89.8 75.3633 88.448 75.2993 86.72L75.2753 85.76L75.2993 84.8C75.3633 83.072 75.9153 81.72 76.9553 80.744C78.0113 79.768 79.4193 79.28 81.1793 79.28C82.4273 79.28 83.4833 79.504 84.3473 79.952C85.2273 80.4 85.8753 80.952 86.2913 81.608C86.7233 82.248 86.9553 82.856 86.9873 83.432C87.0033 83.592 86.9473 83.728 86.8193 83.84C86.7073 83.952 86.5713 84.008 86.4113 84.008H84.2993C84.1393 84.008 84.0113 83.976 83.9153 83.912C83.8353 83.832 83.7553 83.704 83.6753 83.528C83.4353 82.904 83.1153 82.456 82.7153 82.184C82.3313 81.912 81.8353 81.776 81.2273 81.776C80.4113 81.776 79.7713 82.04 79.3073 82.568C78.8433 83.08 78.5953 83.864 78.5633 84.92L78.5393 85.808L78.5633 86.6C78.6273 88.696 79.5153 89.744 81.2273 89.744C81.8513 89.744 82.3553 89.608 82.7393 89.336C83.1233 89.064 83.4353 88.616 83.6753 87.992C83.7553 87.816 83.8353 87.696 83.9153 87.632C84.0113 87.552 84.1393 87.512 84.2993 87.512H86.4113C86.5713 87.512 86.7073 87.568 86.8193 87.68C86.9473 87.792 87.0033 87.928 86.9873 88.088C86.9553 88.648 86.7313 89.248 86.3153 89.888C85.8993 90.528 85.2593 91.08 84.3953 91.544C83.5313 92.008 82.4593 92.24 81.1793 92.24ZM95.0103 92.24C93.1383 92.24 91.6903 91.76 90.6663 90.8C89.6423 89.824 89.0903 88.496 89.0103 86.816L88.9863 85.76L89.0103 84.704C89.0903 83.04 89.6503 81.72 90.6903 80.744C91.7303 79.768 93.1703 79.28 95.0103 79.28C96.8503 79.28 98.2903 79.768 99.3303 80.744C100.37 81.72 100.93 83.04 101.01 84.704C101.026 84.896 101.034 85.248 101.034 85.76C101.034 86.272 101.026 86.624 101.01 86.816C100.93 88.496 100.378 89.824 99.3543 90.8C98.3303 91.76 96.8823 92.24 95.0103 92.24ZM95.0103 89.864C95.8583 89.864 96.5143 89.6 96.9783 89.072C97.4423 88.528 97.6983 87.736 97.7463 86.696C97.7623 86.536 97.7703 86.224 97.7703 85.76C97.7703 85.296 97.7623 84.984 97.7463 84.824C97.6983 83.784 97.4423 83 96.9783 82.472C96.5143 81.928 95.8583 81.656 95.0103 81.656C94.1623 81.656 93.5063 81.928 93.0423 82.472C92.5783 83 92.3223 83.784 92.2743 84.824L92.2503 85.76L92.2743 86.696C92.3223 87.736 92.5783 88.528 93.0423 89.072C93.5063 89.6 94.1623 89.864 95.0103 89.864ZM104.269 92C104.109 92 103.973 91.944 103.861 91.832C103.749 91.72 103.693 91.584 103.693 91.424V80.096C103.693 79.936 103.749 79.8 103.861 79.688C103.973 79.576 104.109 79.52 104.269 79.52H106.141C106.301 79.52 106.437 79.576 106.549 79.688C106.661 79.8 106.717 79.936 106.717 80.096V80.912C107.549 79.824 108.709 79.28 110.197 79.28C111.973 79.28 113.213 79.992 113.917 81.416C114.301 80.776 114.845 80.264 115.549 79.88C116.253 79.48 117.013 79.28 117.829 79.28C119.141 79.28 120.213 79.728 121.045 80.624C121.877 81.52 122.293 82.824 122.293 84.536V91.424C122.293 91.584 122.237 91.72 122.125 91.832C122.029 91.944 121.893 92 121.717 92H119.749C119.589 92 119.453 91.944 119.341 91.832C119.229 91.72 119.173 91.584 119.173 91.424V84.728C119.173 83.72 118.957 82.992 118.525 82.544C118.109 82.08 117.549 81.848 116.845 81.848C116.221 81.848 115.685 82.08 115.237 82.544C114.805 83.008 114.589 83.736 114.589 84.728V91.424C114.589 91.584 114.533 91.72 114.421 91.832C114.309 91.944 114.173 92 114.013 92H112.045C111.885 92 111.749 91.944 111.637 91.832C111.525 91.72 111.469 91.584 111.469 91.424V84.728C111.469 83.72 111.245 82.992 110.797 82.544C110.365 82.08 109.813 81.848 109.141 81.848C108.501 81.848 107.957 82.08 107.509 82.544C107.077 83.008 106.861 83.736 106.861 84.728V91.424C106.861 91.584 106.805 91.72 106.693 91.832C106.581 91.944 106.445 92 106.285 92H104.269ZM125.926 92C125.766 92 125.63 91.944 125.518 91.832C125.406 91.72 125.35 91.584 125.35 91.424V80.096C125.35 79.936 125.406 79.8 125.518 79.688C125.63 79.576 125.766 79.52 125.926 79.52H127.798C127.958 79.52 128.094 79.576 128.206 79.688C128.318 79.8 128.374 79.936 128.374 80.096V80.912C129.206 79.824 130.366 79.28 131.854 79.28C133.63 79.28 134.87 79.992 135.574 81.416C135.958 80.776 136.502 80.264 137.206 79.88C137.91 79.48 138.67 79.28 139.486 79.28C140.798 79.28 141.87 79.728 142.702 80.624C143.534 81.52 143.95 82.824 143.95 84.536V91.424C143.95 91.584 143.894 91.72 143.782 91.832C143.686 91.944 143.55 92 143.374 92H141.406C141.246 92 141.11 91.944 140.998 91.832C140.886 91.72 140.83 91.584 140.83 91.424V84.728C140.83 83.72 140.614 82.992 140.182 82.544C139.766 82.08 139.206 81.848 138.502 81.848C137.878 81.848 137.342 82.08 136.894 82.544C136.462 83.008 136.246 83.736 136.246 84.728V91.424C136.246 91.584 136.19 91.72 136.078 91.832C135.966 91.944 135.83 92 135.67 92H133.702C133.542 92 133.406 91.944 133.294 91.832C133.182 91.72 133.126 91.584 133.126 91.424V84.728C133.126 83.72 132.902 82.992 132.454 82.544C132.022 82.08 131.47 81.848 130.798 81.848C130.158 81.848 129.614 82.08 129.166 82.544C128.734 83.008 128.518 83.736 128.518 84.728V91.424C128.518 91.584 128.462 91.72 128.35 91.832C128.238 91.944 128.102 92 127.942 92H125.926ZM152.382 92.24C150.606 92.24 149.19 91.728 148.134 90.704C147.094 89.664 146.542 88.208 146.478 86.336L146.454 85.736L146.478 85.136C146.558 83.312 147.118 81.88 148.158 80.84C149.214 79.8 150.622 79.28 152.382 79.28C154.27 79.28 155.726 79.856 156.75 81.008C157.79 82.16 158.31 83.696 158.31 85.616V86.12C158.31 86.28 158.254 86.416 158.142 86.528C158.03 86.64 157.886 86.696 157.71 86.696H149.742V86.888C149.774 87.768 150.014 88.512 150.462 89.12C150.926 89.712 151.558 90.008 152.358 90.008C153.302 90.008 154.062 89.64 154.638 88.904C154.782 88.728 154.894 88.616 154.974 88.568C155.07 88.52 155.206 88.496 155.382 88.496H157.446C157.59 88.496 157.71 88.544 157.806 88.64C157.918 88.72 157.974 88.824 157.974 88.952C157.974 89.336 157.742 89.792 157.278 90.32C156.83 90.832 156.182 91.28 155.334 91.664C154.486 92.048 153.502 92.24 152.382 92.24ZM155.046 84.68V84.608C155.046 83.664 154.806 82.904 154.326 82.328C153.862 81.752 153.214 81.464 152.382 81.464C151.55 81.464 150.902 81.752 150.438 82.328C149.974 82.904 149.742 83.664 149.742 84.608V84.68H155.046ZM161.433 92C161.273 92 161.137 91.944 161.025 91.832C160.913 91.72 160.857 91.584 160.857 91.424V80.12C160.857 79.96 160.913 79.824 161.025 79.712C161.137 79.584 161.273 79.52 161.433 79.52H163.377C163.553 79.52 163.697 79.576 163.809 79.688C163.921 79.8 163.977 79.944 163.977 80.12V81.104C164.361 80.592 164.841 80.2 165.417 79.928C166.009 79.656 166.681 79.52 167.433 79.52H168.417C168.593 79.52 168.729 79.576 168.825 79.688C168.937 79.784 168.993 79.92 168.993 80.096V81.824C168.993 81.984 168.937 82.12 168.825 82.232C168.729 82.344 168.593 82.4 168.417 82.4H166.545C165.793 82.4 165.201 82.616 164.769 83.048C164.337 83.48 164.121 84.072 164.121 84.824V91.424C164.121 91.584 164.065 91.72 163.953 91.832C163.841 91.944 163.697 92 163.521 92H161.433ZM176.101 92.24C174.341 92.24 172.933 91.752 171.877 90.776C170.837 89.8 170.285 88.448 170.221 86.72L170.197 85.76L170.221 84.8C170.285 83.072 170.837 81.72 171.877 80.744C172.933 79.768 174.341 79.28 176.101 79.28C177.349 79.28 178.405 79.504 179.269 79.952C180.149 80.4 180.797 80.952 181.213 81.608C181.645 82.248 181.877 82.856 181.909 83.432C181.925 83.592 181.869 83.728 181.741 83.84C181.629 83.952 181.493 84.008 181.333 84.008H179.221C179.061 84.008 178.933 83.976 178.837 83.912C178.757 83.832 178.677 83.704 178.597 83.528C178.357 82.904 178.037 82.456 177.637 82.184C177.253 81.912 176.757 81.776 176.149 81.776C175.333 81.776 174.693 82.04 174.229 82.568C173.765 83.08 173.517 83.864 173.485 84.92L173.461 85.808L173.485 86.6C173.549 88.696 174.437 89.744 176.149 89.744C176.773 89.744 177.277 89.608 177.661 89.336C178.045 89.064 178.357 88.616 178.597 87.992C178.677 87.816 178.757 87.696 178.837 87.632C178.933 87.552 179.061 87.512 179.221 87.512H181.333C181.493 87.512 181.629 87.568 181.741 87.68C181.869 87.792 181.925 87.928 181.909 88.088C181.877 88.648 181.653 89.248 181.237 89.888C180.821 90.528 180.181 91.08 179.317 91.544C178.453 92.008 177.381 92.24 176.101 92.24ZM184.892 77.456C184.732 77.456 184.596 77.4 184.484 77.288C184.372 77.176 184.316 77.04 184.316 76.88V75.152C184.316 74.992 184.372 74.856 184.484 74.744C184.596 74.632 184.732 74.576 184.892 74.576H187.076C187.236 74.576 187.372 74.632 187.484 74.744C187.612 74.856 187.676 74.992 187.676 75.152V76.88C187.676 77.04 187.62 77.176 187.508 77.288C187.396 77.4 187.252 77.456 187.076 77.456H184.892ZM184.988 92C184.828 92 184.692 91.944 184.58 91.832C184.468 91.72 184.412 91.584 184.412 91.424V80.096C184.412 79.936 184.468 79.8 184.58 79.688C184.692 79.576 184.828 79.52 184.988 79.52H186.98C187.156 79.52 187.292 79.576 187.388 79.688C187.5 79.784 187.556 79.92 187.556 80.096V91.424C187.556 91.584 187.5 91.72 187.388 91.832C187.292 91.944 187.156 92 186.98 92H184.988ZM194.364 92.24C193.548 92.24 192.796 92.08 192.108 91.76C191.436 91.424 190.9 90.976 190.5 90.416C190.116 89.856 189.924 89.24 189.924 88.568C189.924 87.48 190.364 86.6 191.244 85.928C192.124 85.256 193.332 84.8 194.868 84.56L198.156 84.08V83.576C198.156 82.872 197.98 82.344 197.628 81.992C197.276 81.64 196.708 81.464 195.924 81.464C195.396 81.464 194.964 81.568 194.628 81.776C194.308 81.968 194.052 82.16 193.86 82.352C193.668 82.56 193.54 82.696 193.476 82.76C193.412 82.952 193.292 83.048 193.116 83.048H191.268C191.124 83.048 190.996 83 190.884 82.904C190.788 82.808 190.74 82.68 190.74 82.52C190.756 82.12 190.948 81.664 191.316 81.152C191.7 80.64 192.284 80.2 193.068 79.832C193.852 79.464 194.812 79.28 195.948 79.28C197.836 79.28 199.212 79.704 200.076 80.552C200.94 81.4 201.372 82.512 201.372 83.888V91.424C201.372 91.584 201.316 91.72 201.204 91.832C201.108 91.944 200.972 92 200.796 92H198.852C198.692 92 198.556 91.944 198.444 91.832C198.332 91.72 198.276 91.584 198.276 91.424V90.488C197.924 91 197.42 91.424 196.764 91.76C196.124 92.08 195.324 92.24 194.364 92.24ZM195.18 89.96C196.06 89.96 196.78 89.672 197.34 89.096C197.9 88.52 198.18 87.68 198.18 86.576V86.072L195.78 86.456C194.852 86.6 194.148 86.832 193.668 87.152C193.204 87.472 192.972 87.864 192.972 88.328C192.972 88.84 193.188 89.24 193.62 89.528C194.052 89.816 194.572 89.96 195.18 89.96ZM205.051 92C204.891 92 204.755 91.944 204.643 91.832C204.531 91.72 204.475 91.584 204.475 91.424V75.536C204.475 75.36 204.531 75.224 204.643 75.128C204.755 75.016 204.891 74.96 205.051 74.96H207.043C207.219 74.96 207.355 75.016 207.451 75.128C207.563 75.224 207.619 75.36 207.619 75.536V91.424C207.619 91.584 207.563 91.72 207.451 91.832C207.355 91.944 207.219 92 207.043 92H205.051ZM221.458 92C220.002 92 218.906 91.624 218.17 90.872C217.45 90.104 217.09 88.984 217.09 87.512V82.064H215.194C215.034 82.064 214.898 82.008 214.786 81.896C214.674 81.768 214.618 81.624 214.618 81.464V80.096C214.618 79.936 214.674 79.8 214.786 79.688C214.898 79.576 215.034 79.52 215.194 79.52H217.09V75.536C217.09 75.36 217.146 75.224 217.258 75.128C217.37 75.016 217.506 74.96 217.666 74.96H219.61C219.786 74.96 219.922 75.016 220.018 75.128C220.13 75.224 220.186 75.36 220.186 75.536V79.52H223.186C223.362 79.52 223.498 79.576 223.594 79.688C223.706 79.784 223.762 79.92 223.762 80.096V81.464C223.762 81.64 223.706 81.784 223.594 81.896C223.482 82.008 223.346 82.064 223.186 82.064H220.186V87.272C220.186 87.96 220.306 88.48 220.546 88.832C220.786 89.184 221.186 89.36 221.746 89.36H223.402C223.562 89.36 223.698 89.416 223.81 89.528C223.922 89.64 223.978 89.776 223.978 89.936V91.424C223.978 91.584 223.922 91.72 223.81 91.832C223.714 91.944 223.578 92 223.402 92H221.458ZM226.683 92C226.523 92 226.387 91.944 226.275 91.832C226.163 91.72 226.107 91.584 226.107 91.424V80.12C226.107 79.96 226.163 79.824 226.275 79.712C226.387 79.584 226.523 79.52 226.683 79.52H228.627C228.803 79.52 228.947 79.576 229.059 79.688C229.171 79.8 229.227 79.944 229.227 80.12V81.104C229.611 80.592 230.091 80.2 230.667 79.928C231.259 79.656 231.931 79.52 232.683 79.52H233.667C233.843 79.52 233.979 79.576 234.075 79.688C234.187 79.784 234.243 79.92 234.243 80.096V81.824C234.243 81.984 234.187 82.12 234.075 82.232C233.979 82.344 233.843 82.4 233.667 82.4H231.795C231.043 82.4 230.451 82.616 230.019 83.048C229.587 83.48 229.371 84.072 229.371 84.824V91.424C229.371 91.584 229.315 91.72 229.203 91.832C229.091 91.944 228.947 92 228.771 92H226.683ZM239.552 92.24C238.736 92.24 237.984 92.08 237.296 91.76C236.624 91.424 236.088 90.976 235.688 90.416C235.304 89.856 235.112 89.24 235.112 88.568C235.112 87.48 235.552 86.6 236.432 85.928C237.312 85.256 238.52 84.8 240.056 84.56L243.344 84.08V83.576C243.344 82.872 243.168 82.344 242.816 81.992C242.464 81.64 241.896 81.464 241.112 81.464C240.584 81.464 240.152 81.568 239.816 81.776C239.496 81.968 239.24 82.16 239.048 82.352C238.856 82.56 238.728 82.696 238.664 82.76C238.6 82.952 238.48 83.048 238.304 83.048H236.456C236.312 83.048 236.184 83 236.072 82.904C235.976 82.808 235.928 82.68 235.928 82.52C235.944 82.12 236.136 81.664 236.504 81.152C236.888 80.64 237.472 80.2 238.256 79.832C239.04 79.464 240 79.28 241.136 79.28C243.024 79.28 244.4 79.704 245.264 80.552C246.128 81.4 246.56 82.512 246.56 83.888V91.424C246.56 91.584 246.504 91.72 246.392 91.832C246.296 91.944 246.16 92 245.984 92H244.04C243.88 92 243.744 91.944 243.632 91.832C243.52 91.72 243.464 91.584 243.464 91.424V90.488C243.112 91 242.608 91.424 241.952 91.76C241.312 92.08 240.512 92.24 239.552 92.24ZM240.368 89.96C241.248 89.96 241.968 89.672 242.528 89.096C243.088 88.52 243.368 87.68 243.368 86.576V86.072L240.968 86.456C240.04 86.6 239.336 86.832 238.856 87.152C238.392 87.472 238.16 87.864 238.16 88.328C238.16 88.84 238.376 89.24 238.808 89.528C239.24 89.816 239.76 89.96 240.368 89.96ZM251.442 92C251.282 92 251.146 91.944 251.034 91.832C250.922 91.72 250.866 91.584 250.866 91.424V82.064H248.922C248.762 82.064 248.626 82.008 248.514 81.896C248.402 81.768 248.346 81.624 248.346 81.464V80.096C248.346 79.936 248.402 79.8 248.514 79.688C248.626 79.576 248.762 79.52 248.922 79.52H250.866V78.536C250.866 75.672 252.434 74.24 255.57 74.24H257.202C257.378 74.24 257.514 74.296 257.61 74.408C257.722 74.504 257.778 74.64 257.778 74.816V76.184C257.778 76.36 257.722 76.504 257.61 76.616C257.498 76.728 257.362 76.784 257.202 76.784H255.666C255.042 76.784 254.602 76.936 254.346 77.24C254.106 77.544 253.986 78.016 253.986 78.656V79.52H258.906V78.536C258.906 75.672 260.466 74.24 263.586 74.24H268.506C268.682 74.24 268.818 74.296 268.914 74.408C269.026 74.504 269.082 74.64 269.082 74.816V76.184C269.082 76.36 269.026 76.504 268.914 76.616C268.802 76.728 268.666 76.784 268.506 76.784H263.706C263.082 76.784 262.642 76.944 262.386 77.264C262.13 77.568 262.002 78.032 262.002 78.656V79.52H268.506C268.682 79.52 268.818 79.576 268.914 79.688C269.026 79.784 269.082 79.92 269.082 80.096V91.424C269.082 91.584 269.026 91.72 268.914 91.832C268.818 91.944 268.682 92 268.506 92H266.562C266.402 92 266.266 91.944 266.154 91.832C266.042 91.72 265.986 91.584 265.986 91.424V82.064H262.002V91.424C262.002 91.584 261.946 91.72 261.834 91.832C261.738 91.944 261.602 92 261.426 92H259.482C259.322 92 259.186 91.944 259.074 91.832C258.962 91.72 258.906 91.584 258.906 91.424V82.064H253.986V91.424C253.986 91.584 253.93 91.72 253.818 91.832C253.706 91.944 253.57 92 253.41 92H251.442ZM277.679 92.24C275.919 92.24 274.511 91.752 273.455 90.776C272.415 89.8 271.863 88.448 271.799 86.72L271.775 85.76L271.799 84.8C271.863 83.072 272.415 81.72 273.455 80.744C274.511 79.768 275.919 79.28 277.679 79.28C278.927 79.28 279.983 79.504 280.847 79.952C281.727 80.4 282.375 80.952 282.791 81.608C283.223 82.248 283.455 82.856 283.487 83.432C283.503 83.592 283.447 83.728 283.319 83.84C283.207 83.952 283.071 84.008 282.911 84.008H280.799C280.639 84.008 280.511 83.976 280.415 83.912C280.335 83.832 280.255 83.704 280.175 83.528C279.935 82.904 279.615 82.456 279.215 82.184C278.831 81.912 278.335 81.776 277.727 81.776C276.911 81.776 276.271 82.04 275.807 82.568C275.343 83.08 275.095 83.864 275.063 84.92L275.039 85.808L275.063 86.6C275.127 88.696 276.015 89.744 277.727 89.744C278.351 89.744 278.855 89.608 279.239 89.336C279.623 89.064 279.935 88.616 280.175 87.992C280.255 87.816 280.335 87.696 280.415 87.632C280.511 87.552 280.639 87.512 280.799 87.512H282.911C283.071 87.512 283.207 87.568 283.319 87.68C283.447 87.792 283.503 87.928 283.487 88.088C283.455 88.648 283.231 89.248 282.815 89.888C282.399 90.528 281.759 91.08 280.895 91.544C280.031 92.008 278.959 92.24 277.679 92.24ZM292.075 96.56C291.915 96.56 291.779 96.504 291.667 96.392C291.555 96.296 291.499 96.16 291.499 95.984V80.096C291.499 79.92 291.555 79.784 291.667 79.688C291.779 79.576 291.915 79.52 292.075 79.52H293.971C294.147 79.52 294.283 79.576 294.379 79.688C294.491 79.784 294.547 79.92 294.547 80.096V81.056C295.443 79.872 296.723 79.28 298.387 79.28C300.003 79.28 301.243 79.792 302.107 80.816C302.971 81.824 303.435 83.192 303.499 84.92C303.515 85.112 303.523 85.392 303.523 85.76C303.523 86.144 303.515 86.432 303.499 86.624C303.435 88.304 302.971 89.664 302.107 90.704C301.243 91.728 300.003 92.24 298.387 92.24C296.771 92.24 295.539 91.672 294.691 90.536V95.984C294.691 96.16 294.635 96.296 294.523 96.392C294.427 96.504 294.291 96.56 294.115 96.56H292.075ZM297.499 89.672C299.227 89.672 300.147 88.608 300.259 86.48C300.275 86.32 300.283 86.08 300.283 85.76C300.283 85.44 300.275 85.2 300.259 85.04C300.147 82.912 299.227 81.848 297.499 81.848C296.571 81.848 295.883 82.144 295.435 82.736C294.987 83.328 294.739 84.056 294.691 84.92L294.667 85.832L294.691 86.768C294.723 87.568 294.971 88.256 295.435 88.832C295.915 89.392 296.603 89.672 297.499 89.672ZM311.593 92.24C309.817 92.24 308.401 91.728 307.345 90.704C306.305 89.664 305.753 88.208 305.689 86.336L305.665 85.736L305.689 85.136C305.769 83.312 306.329 81.88 307.369 80.84C308.425 79.8 309.833 79.28 311.593 79.28C313.481 79.28 314.937 79.856 315.961 81.008C317.001 82.16 317.521 83.696 317.521 85.616V86.12C317.521 86.28 317.465 86.416 317.353 86.528C317.241 86.64 317.097 86.696 316.921 86.696H308.953V86.888C308.985 87.768 309.225 88.512 309.673 89.12C310.137 89.712 310.769 90.008 311.569 90.008C312.513 90.008 313.273 89.64 313.849 88.904C313.993 88.728 314.105 88.616 314.185 88.568C314.281 88.52 314.417 88.496 314.593 88.496H316.657C316.801 88.496 316.921 88.544 317.017 88.64C317.129 88.72 317.185 88.824 317.185 88.952C317.185 89.336 316.953 89.792 316.489 90.32C316.041 90.832 315.393 91.28 314.545 91.664C313.697 92.048 312.713 92.24 311.593 92.24ZM314.257 84.68V84.608C314.257 83.664 314.017 82.904 313.537 82.328C313.073 81.752 312.425 81.464 311.593 81.464C310.761 81.464 310.113 81.752 309.649 82.328C309.185 82.904 308.953 83.664 308.953 84.608V84.68H314.257ZM320.644 92C320.484 92 320.348 91.944 320.236 91.832C320.124 91.72 320.068 91.584 320.068 91.424V80.12C320.068 79.96 320.124 79.824 320.236 79.712C320.348 79.584 320.484 79.52 320.644 79.52H322.588C322.764 79.52 322.908 79.576 323.02 79.688C323.132 79.8 323.188 79.944 323.188 80.12V81.104C323.572 80.592 324.052 80.2 324.628 79.928C325.22 79.656 325.892 79.52 326.644 79.52H327.628C327.804 79.52 327.94 79.576 328.036 79.688C328.148 79.784 328.204 79.92 328.204 80.096V81.824C328.204 81.984 328.148 82.12 328.036 82.232C327.94 82.344 327.804 82.4 327.628 82.4H325.756C325.004 82.4 324.412 82.616 323.98 83.048C323.548 83.48 323.332 84.072 323.332 84.824V91.424C323.332 91.584 323.276 91.72 323.164 91.832C323.052 91.944 322.908 92 322.732 92H320.644ZM330.652 92C330.492 92 330.356 91.944 330.244 91.832C330.132 91.72 330.076 91.584 330.076 91.424V80.096C330.076 79.936 330.132 79.8 330.244 79.688C330.356 79.576 330.492 79.52 330.652 79.52H332.524C332.684 79.52 332.82 79.576 332.932 79.688C333.044 79.8 333.1 79.936 333.1 80.096V80.912C333.932 79.824 335.092 79.28 336.58 79.28C338.356 79.28 339.596 79.992 340.3 81.416C340.684 80.776 341.228 80.264 341.932 79.88C342.636 79.48 343.396 79.28 344.212 79.28C345.524 79.28 346.596 79.728 347.428 80.624C348.26 81.52 348.676 82.824 348.676 84.536V91.424C348.676 91.584 348.62 91.72 348.508 91.832C348.412 91.944 348.276 92 348.1 92H346.132C345.972 92 345.836 91.944 345.724 91.832C345.612 91.72 345.556 91.584 345.556 91.424V84.728C345.556 83.72 345.34 82.992 344.908 82.544C344.492 82.08 343.932 81.848 343.228 81.848C342.604 81.848 342.068 82.08 341.62 82.544C341.188 83.008 340.972 83.736 340.972 84.728V91.424C340.972 91.584 340.916 91.72 340.804 91.832C340.692 91.944 340.556 92 340.396 92H338.428C338.268 92 338.132 91.944 338.02 91.832C337.908 91.72 337.852 91.584 337.852 91.424V84.728C337.852 83.72 337.628 82.992 337.18 82.544C336.748 82.08 336.196 81.848 335.524 81.848C334.884 81.848 334.34 82.08 333.892 82.544C333.46 83.008 333.244 83.736 333.244 84.728V91.424C333.244 91.584 333.188 91.72 333.076 91.832C332.964 91.944 332.828 92 332.668 92H330.652ZM352.212 77.456C352.052 77.456 351.916 77.4 351.804 77.288C351.692 77.176 351.636 77.04 351.636 76.88V75.152C351.636 74.992 351.692 74.856 351.804 74.744C351.916 74.632 352.052 74.576 352.212 74.576H354.396C354.556 74.576 354.692 74.632 354.804 74.744C354.932 74.856 354.996 74.992 354.996 75.152V76.88C354.996 77.04 354.94 77.176 354.828 77.288C354.716 77.4 354.572 77.456 354.396 77.456H352.212ZM352.308 92C352.148 92 352.012 91.944 351.9 91.832C351.788 91.72 351.732 91.584 351.732 91.424V80.096C351.732 79.936 351.788 79.8 351.9 79.688C352.012 79.576 352.148 79.52 352.308 79.52H354.3C354.476 79.52 354.612 79.576 354.708 79.688C354.82 79.784 354.876 79.92 354.876 80.096V91.424C354.876 91.584 354.82 91.72 354.708 91.832C354.612 91.944 354.476 92 354.3 92H352.308ZM363.701 92C362.245 92 361.149 91.624 360.413 90.872C359.693 90.104 359.333 88.984 359.333 87.512V82.064H357.437C357.277 82.064 357.141 82.008 357.029 81.896C356.917 81.768 356.861 81.624 356.861 81.464V80.096C356.861 79.936 356.917 79.8 357.029 79.688C357.141 79.576 357.277 79.52 357.437 79.52H359.333V75.536C359.333 75.36 359.389 75.224 359.501 75.128C359.613 75.016 359.749 74.96 359.909 74.96H361.853C362.029 74.96 362.165 75.016 362.261 75.128C362.373 75.224 362.429 75.36 362.429 75.536V79.52H365.429C365.605 79.52 365.741 79.576 365.837 79.688C365.949 79.784 366.005 79.92 366.005 80.096V81.464C366.005 81.64 365.949 81.784 365.837 81.896C365.725 82.008 365.589 82.064 365.429 82.064H362.429V87.272C362.429 87.96 362.549 88.48 362.789 88.832C363.029 89.184 363.429 89.36 363.989 89.36H365.645C365.805 89.36 365.941 89.416 366.053 89.528C366.165 89.64 366.221 89.776 366.221 89.936V91.424C366.221 91.584 366.165 91.72 366.053 91.832C365.957 91.944 365.821 92 365.645 92H363.701ZM375.332 92C375.172 92 375.036 91.944 374.924 91.832C374.812 91.72 374.756 91.584 374.756 91.424V82.064H372.812C372.652 82.064 372.516 82.008 372.404 81.896C372.292 81.768 372.236 81.624 372.236 81.464V80.096C372.236 79.936 372.292 79.8 372.404 79.688C372.516 79.576 372.652 79.52 372.812 79.52H374.756V78.536C374.756 75.672 376.324 74.24 379.46 74.24H381.092C381.268 74.24 381.404 74.296 381.5 74.408C381.612 74.504 381.668 74.64 381.668 74.816V76.184C381.668 76.36 381.612 76.504 381.5 76.616C381.388 76.728 381.252 76.784 381.092 76.784H379.556C378.932 76.784 378.492 76.936 378.236 77.24C377.996 77.544 377.876 78.016 377.876 78.656V79.52H380.852C381.028 79.52 381.164 79.576 381.26 79.688C381.372 79.784 381.428 79.92 381.428 80.096V81.464C381.428 81.64 381.372 81.784 381.26 81.896C381.148 82.008 381.012 82.064 380.852 82.064H377.876V91.424C377.876 91.584 377.82 91.72 377.708 91.832C377.596 91.944 377.46 92 377.3 92H375.332ZM388.682 92.24C386.81 92.24 385.362 91.76 384.338 90.8C383.314 89.824 382.762 88.496 382.682 86.816L382.658 85.76L382.682 84.704C382.762 83.04 383.322 81.72 384.362 80.744C385.402 79.768 386.842 79.28 388.682 79.28C390.522 79.28 391.962 79.768 393.002 80.744C394.042 81.72 394.602 83.04 394.682 84.704C394.698 84.896 394.706 85.248 394.706 85.76C394.706 86.272 394.698 86.624 394.682 86.816C394.602 88.496 394.05 89.824 393.026 90.8C392.002 91.76 390.554 92.24 388.682 92.24ZM388.682 89.864C389.53 89.864 390.186 89.6 390.65 89.072C391.114 88.528 391.37 87.736 391.418 86.696C391.434 86.536 391.442 86.224 391.442 85.76C391.442 85.296 391.434 84.984 391.418 84.824C391.37 83.784 391.114 83 390.65 82.472C390.186 81.928 389.53 81.656 388.682 81.656C387.834 81.656 387.178 81.928 386.714 82.472C386.25 83 385.994 83.784 385.946 84.824L385.922 85.76L385.946 86.696C385.994 87.736 386.25 88.528 386.714 89.072C387.178 89.6 387.834 89.864 388.682 89.864ZM397.941 92C397.781 92 397.645 91.944 397.533 91.832C397.421 91.72 397.365 91.584 397.365 91.424V80.12C397.365 79.96 397.421 79.824 397.533 79.712C397.645 79.584 397.781 79.52 397.941 79.52H399.885C400.061 79.52 400.205 79.576 400.317 79.688C400.429 79.8 400.485 79.944 400.485 80.12V81.104C400.869 80.592 401.349 80.2 401.925 79.928C402.517 79.656 403.189 79.52 403.941 79.52H404.925C405.101 79.52 405.237 79.576 405.333 79.688C405.445 79.784 405.501 79.92 405.501 80.096V81.824C405.501 81.984 405.445 82.12 405.333 82.232C405.237 82.344 405.101 82.4 404.925 82.4H403.053C402.301 82.4 401.709 82.616 401.277 83.048C400.845 83.48 400.629 84.072 400.629 84.824V91.424C400.629 91.584 400.573 91.72 400.461 91.832C400.349 91.944 400.205 92 400.029 92H397.941ZM413.84 92C413.68 92 413.544 91.944 413.432 91.832C413.32 91.72 413.264 91.584 413.264 91.424V82.064H411.32C411.16 82.064 411.024 82.008 410.912 81.896C410.8 81.768 410.744 81.624 410.744 81.464V80.096C410.744 79.936 410.8 79.8 410.912 79.688C411.024 79.576 411.16 79.52 411.32 79.52H413.264V78.536C413.264 75.672 414.832 74.24 417.968 74.24H419.6C419.776 74.24 419.912 74.296 420.008 74.408C420.12 74.504 420.176 74.64 420.176 74.816V76.184C420.176 76.36 420.12 76.504 420.008 76.616C419.896 76.728 419.76 76.784 419.6 76.784H418.064C417.44 76.784 417 76.936 416.744 77.24C416.504 77.544 416.384 78.016 416.384 78.656V79.52H419.36C419.536 79.52 419.672 79.576 419.768 79.688C419.88 79.784 419.936 79.92 419.936 80.096V81.464C419.936 81.64 419.88 81.784 419.768 81.896C419.656 82.008 419.52 82.064 419.36 82.064H416.384V91.424C416.384 91.584 416.328 91.72 416.216 91.832C416.104 91.944 415.968 92 415.808 92H413.84ZM422.433 92C422.273 92 422.137 91.944 422.025 91.832C421.913 91.72 421.857 91.584 421.857 91.424V80.12C421.857 79.96 421.913 79.824 422.025 79.712C422.137 79.584 422.273 79.52 422.433 79.52H424.377C424.553 79.52 424.697 79.576 424.809 79.688C424.921 79.8 424.977 79.944 424.977 80.12V81.104C425.361 80.592 425.841 80.2 426.417 79.928C427.009 79.656 427.681 79.52 428.433 79.52H429.417C429.593 79.52 429.729 79.576 429.825 79.688C429.937 79.784 429.993 79.92 429.993 80.096V81.824C429.993 81.984 429.937 82.12 429.825 82.232C429.729 82.344 429.593 82.4 429.417 82.4H427.545C426.793 82.4 426.201 82.616 425.769 83.048C425.337 83.48 425.121 84.072 425.121 84.824V91.424C425.121 91.584 425.065 91.72 424.953 91.832C424.841 91.944 424.697 92 424.521 92H422.433ZM437.077 92.24C435.301 92.24 433.885 91.728 432.829 90.704C431.789 89.664 431.237 88.208 431.173 86.336L431.149 85.736L431.173 85.136C431.253 83.312 431.813 81.88 432.853 80.84C433.909 79.8 435.317 79.28 437.077 79.28C438.965 79.28 440.421 79.856 441.445 81.008C442.485 82.16 443.005 83.696 443.005 85.616V86.12C443.005 86.28 442.949 86.416 442.837 86.528C442.725 86.64 442.581 86.696 442.405 86.696H434.437V86.888C434.469 87.768 434.709 88.512 435.157 89.12C435.621 89.712 436.253 90.008 437.053 90.008C437.997 90.008 438.757 89.64 439.333 88.904C439.477 88.728 439.589 88.616 439.669 88.568C439.765 88.52 439.901 88.496 440.077 88.496H442.141C442.285 88.496 442.405 88.544 442.501 88.64C442.613 88.72 442.669 88.824 442.669 88.952C442.669 89.336 442.437 89.792 441.973 90.32C441.525 90.832 440.877 91.28 440.029 91.664C439.181 92.048 438.197 92.24 437.077 92.24ZM439.741 84.68V84.608C439.741 83.664 439.501 82.904 439.021 82.328C438.557 81.752 437.909 81.464 437.077 81.464C436.245 81.464 435.597 81.752 435.133 82.328C434.669 82.904 434.437 83.664 434.437 84.608V84.68H439.741ZM446.033 77.456C445.873 77.456 445.737 77.4 445.625 77.288C445.513 77.176 445.457 77.04 445.457 76.88V75.152C445.457 74.992 445.513 74.856 445.625 74.744C445.737 74.632 445.873 74.576 446.033 74.576H448.217C448.377 74.576 448.513 74.632 448.625 74.744C448.753 74.856 448.817 74.992 448.817 75.152V76.88C448.817 77.04 448.761 77.176 448.649 77.288C448.537 77.4 448.393 77.456 448.217 77.456H446.033ZM446.129 92C445.969 92 445.833 91.944 445.721 91.832C445.609 91.72 445.553 91.584 445.553 91.424V80.096C445.553 79.936 445.609 79.8 445.721 79.688C445.833 79.576 445.969 79.52 446.129 79.52H448.121C448.297 79.52 448.433 79.576 448.529 79.688C448.641 79.784 448.697 79.92 448.697 80.096V91.424C448.697 91.584 448.641 91.72 448.529 91.832C448.433 91.944 448.297 92 448.121 92H446.129ZM457.521 97.28C456.097 97.28 454.945 97.04 454.065 96.56C453.185 96.096 452.561 95.56 452.193 94.952C451.825 94.344 451.641 93.824 451.641 93.392C451.641 93.248 451.697 93.12 451.809 93.008C451.937 92.896 452.073 92.84 452.217 92.84H454.305C454.449 92.84 454.569 92.872 454.665 92.936C454.777 93.016 454.865 93.152 454.929 93.344C455.089 93.776 455.345 94.136 455.697 94.424C456.065 94.728 456.633 94.88 457.401 94.88C458.361 94.88 459.065 94.664 459.513 94.232C459.977 93.8 460.209 93.056 460.209 92V90.368C459.329 91.408 458.097 91.928 456.513 91.928C454.849 91.928 453.593 91.416 452.745 90.392C451.913 89.368 451.465 87.992 451.401 86.264L451.377 85.616L451.401 84.968C451.465 83.272 451.921 81.904 452.769 80.864C453.617 79.808 454.865 79.28 456.513 79.28C457.361 79.28 458.105 79.44 458.745 79.76C459.385 80.08 459.921 80.52 460.353 81.08V80.12C460.353 79.944 460.409 79.8 460.521 79.688C460.633 79.576 460.769 79.52 460.929 79.52H462.873C463.033 79.52 463.169 79.584 463.281 79.712C463.393 79.824 463.449 79.96 463.449 80.12L463.473 91.688C463.473 93.464 462.977 94.84 461.985 95.816C460.993 96.792 459.505 97.28 457.521 97.28ZM457.401 89.384C458.313 89.384 458.993 89.096 459.441 88.52C459.905 87.944 460.161 87.24 460.209 86.408C460.225 86.28 460.233 86.016 460.233 85.616C460.233 85.232 460.225 84.976 460.209 84.848C460.161 84 459.905 83.288 459.441 82.712C458.993 82.136 458.313 81.848 457.401 81.848C455.673 81.848 454.761 82.912 454.665 85.04L454.641 85.616C454.641 86.752 454.841 87.664 455.241 88.352C455.657 89.04 456.377 89.384 457.401 89.384ZM467.27 92C467.11 92 466.974 91.944 466.862 91.832C466.75 91.72 466.694 91.584 466.694 91.424V75.536C466.694 75.36 466.75 75.224 466.862 75.128C466.974 75.016 467.11 74.96 467.27 74.96H469.406C469.582 74.96 469.718 75.016 469.814 75.128C469.926 75.224 469.982 75.36 469.982 75.536V81.008C470.942 79.856 472.238 79.28 473.87 79.28C475.342 79.28 476.518 79.768 477.398 80.744C478.278 81.704 478.718 83.016 478.718 84.68V91.424C478.718 91.584 478.662 91.72 478.55 91.832C478.454 91.944 478.318 92 478.142 92H475.982C475.822 92 475.686 91.944 475.574 91.832C475.462 91.72 475.406 91.584 475.406 91.424V84.824C475.406 83.88 475.174 83.152 474.71 82.64C474.262 82.112 473.606 81.848 472.742 81.848C471.894 81.848 471.222 82.112 470.726 82.64C470.23 83.168 469.982 83.896 469.982 84.824V91.424C469.982 91.584 469.926 91.72 469.814 91.832C469.718 91.944 469.582 92 469.406 92H467.27ZM487.263 92C485.807 92 484.711 91.624 483.975 90.872C483.255 90.104 482.895 88.984 482.895 87.512V82.064H480.999C480.839 82.064 480.703 82.008 480.591 81.896C480.479 81.768 480.423 81.624 480.423 81.464V80.096C480.423 79.936 480.479 79.8 480.591 79.688C480.703 79.576 480.839 79.52 480.999 79.52H482.895V75.536C482.895 75.36 482.951 75.224 483.063 75.128C483.175 75.016 483.311 74.96 483.471 74.96H485.415C485.591 74.96 485.727 75.016 485.823 75.128C485.935 75.224 485.991 75.36 485.991 75.536V79.52H488.991C489.167 79.52 489.303 79.576 489.399 79.688C489.511 79.784 489.567 79.92 489.567 80.096V81.464C489.567 81.64 489.511 81.784 489.399 81.896C489.287 82.008 489.151 82.064 488.991 82.064H485.991V87.272C485.991 87.96 486.111 88.48 486.351 88.832C486.591 89.184 486.991 89.36 487.551 89.36H489.207C489.367 89.36 489.503 89.416 489.615 89.528C489.727 89.64 489.783 89.776 489.783 89.936V91.424C489.783 91.584 489.727 91.72 489.615 91.832C489.519 91.944 489.383 92 489.207 92H487.263ZM62.224 128C60.768 128 59.672 127.624 58.936 126.872C58.216 126.104 57.856 124.984 57.856 123.512V118.064H55.96C55.8 118.064 55.664 118.008 55.552 117.896C55.44 117.768 55.384 117.624 55.384 117.464V116.096C55.384 115.936 55.44 115.8 55.552 115.688C55.664 115.576 55.8 115.52 55.96 115.52H57.856V111.536C57.856 111.36 57.912 111.224 58.024 111.128C58.136 111.016 58.272 110.96 58.432 110.96H60.376C60.552 110.96 60.688 111.016 60.784 111.128C60.896 111.224 60.952 111.36 60.952 111.536V115.52H63.952C64.128 115.52 64.264 115.576 64.36 115.688C64.472 115.784 64.528 115.92 64.528 116.096V117.464C64.528 117.64 64.472 117.784 64.36 117.896C64.248 118.008 64.112 118.064 63.952 118.064H60.952V123.272C60.952 123.96 61.072 124.48 61.312 124.832C61.552 125.184 61.952 125.36 62.512 125.36H64.168C64.328 125.36 64.464 125.416 64.576 125.528C64.688 125.64 64.744 125.776 64.744 125.936V127.424C64.744 127.584 64.688 127.72 64.576 127.832C64.48 127.944 64.344 128 64.168 128H62.224ZM67.4491 128C67.2891 128 67.1531 127.944 67.0411 127.832C66.9291 127.72 66.8731 127.584 66.8731 127.424V116.12C66.8731 115.96 66.9291 115.824 67.0411 115.712C67.1531 115.584 67.2891 115.52 67.4491 115.52H69.3931C69.5691 115.52 69.7131 115.576 69.8251 115.688C69.9371 115.8 69.9931 115.944 69.9931 116.12V117.104C70.3771 116.592 70.8571 116.2 71.4331 115.928C72.0251 115.656 72.6971 115.52 73.4491 115.52H74.4331C74.6091 115.52 74.7451 115.576 74.8411 115.688C74.9531 115.784 75.0091 115.92 75.0091 116.096V117.824C75.0091 117.984 74.9531 118.12 74.8411 118.232C74.7451 118.344 74.6091 118.4 74.4331 118.4H72.5611C71.8091 118.4 71.2171 118.616 70.7851 119.048C70.3531 119.48 70.1371 120.072 70.1371 120.824V127.424C70.1371 127.584 70.0811 127.72 69.9691 127.832C69.8571 127.944 69.7131 128 69.5371 128H67.4491ZM80.3174 128.24C79.5014 128.24 78.7494 128.08 78.0614 127.76C77.3894 127.424 76.8534 126.976 76.4534 126.416C76.0694 125.856 75.8774 125.24 75.8774 124.568C75.8774 123.48 76.3174 122.6 77.1974 121.928C78.0774 121.256 79.2854 120.8 80.8214 120.56L84.1094 120.08V119.576C84.1094 118.872 83.9334 118.344 83.5814 117.992C83.2294 117.64 82.6614 117.464 81.8774 117.464C81.3494 117.464 80.9174 117.568 80.5814 117.776C80.2614 117.968 80.0054 118.16 79.8134 118.352C79.6214 118.56 79.4934 118.696 79.4294 118.76C79.3654 118.952 79.2454 119.048 79.0694 119.048H77.2214C77.0774 119.048 76.9494 119 76.8374 118.904C76.7414 118.808 76.6934 118.68 76.6934 118.52C76.7094 118.12 76.9014 117.664 77.2694 117.152C77.6534 116.64 78.2374 116.2 79.0214 115.832C79.8054 115.464 80.7654 115.28 81.9014 115.28C83.7894 115.28 85.1654 115.704 86.0294 116.552C86.8934 117.4 87.3254 118.512 87.3254 119.888V127.424C87.3254 127.584 87.2694 127.72 87.1574 127.832C87.0614 127.944 86.9254 128 86.7494 128H84.8054C84.6454 128 84.5094 127.944 84.3974 127.832C84.2854 127.72 84.2294 127.584 84.2294 127.424V126.488C83.8774 127 83.3734 127.424 82.7174 127.76C82.0774 128.08 81.2774 128.24 80.3174 128.24ZM81.1334 125.96C82.0134 125.96 82.7334 125.672 83.2934 125.096C83.8534 124.52 84.1334 123.68 84.1334 122.576V122.072L81.7334 122.456C80.8054 122.6 80.1014 122.832 79.6214 123.152C79.1574 123.472 78.9254 123.864 78.9254 124.328C78.9254 124.84 79.1414 125.24 79.5734 125.528C80.0054 125.816 80.5254 125.96 81.1334 125.96ZM90.9803 128C90.8203 128 90.6843 127.944 90.5723 127.832C90.4603 127.72 90.4043 127.584 90.4043 127.424V116.096C90.4043 115.936 90.4603 115.8 90.5723 115.688C90.6843 115.576 90.8203 115.52 90.9803 115.52H92.9483C93.1083 115.52 93.2443 115.576 93.3563 115.688C93.4683 115.8 93.5243 115.936 93.5243 116.096V117.08C94.4683 115.88 95.8043 115.28 97.5323 115.28C99.0043 115.28 100.172 115.768 101.036 116.744C101.9 117.704 102.332 119.016 102.332 120.68V127.424C102.332 127.584 102.276 127.72 102.164 127.832C102.068 127.944 101.932 128 101.756 128H99.6443C99.4843 128 99.3483 127.944 99.2363 127.832C99.1243 127.72 99.0683 127.584 99.0683 127.424V120.824C99.0683 119.88 98.8363 119.152 98.3723 118.64C97.9243 118.112 97.2683 117.848 96.4043 117.848C95.5563 117.848 94.8843 118.112 94.3883 118.64C93.9083 119.168 93.6683 119.896 93.6683 120.824V127.424C93.6683 127.584 93.6123 127.72 93.5003 127.832C93.4043 127.944 93.2683 128 93.0923 128H90.9803ZM110.109 128.24C108.909 128.24 107.901 128.064 107.085 127.712C106.269 127.344 105.661 126.92 105.261 126.44C104.877 125.944 104.685 125.52 104.685 125.168C104.685 125.008 104.741 124.88 104.853 124.784C104.965 124.688 105.093 124.64 105.237 124.64H107.133C107.277 124.64 107.397 124.696 107.493 124.808C107.557 124.856 107.725 125 107.997 125.24C108.269 125.496 108.589 125.696 108.957 125.84C109.325 125.984 109.733 126.056 110.181 126.056C110.821 126.056 111.349 125.928 111.765 125.672C112.181 125.416 112.389 125.064 112.389 124.616C112.389 124.28 112.293 124.008 112.101 123.8C111.925 123.592 111.597 123.408 111.117 123.248C110.637 123.072 109.925 122.888 108.981 122.696C107.621 122.408 106.613 121.968 105.957 121.376C105.317 120.784 104.997 120 104.997 119.024C104.997 118.384 105.189 117.784 105.573 117.224C105.957 116.648 106.525 116.184 107.277 115.832C108.045 115.464 108.957 115.28 110.013 115.28C111.085 115.28 112.013 115.456 112.797 115.808C113.581 116.144 114.173 116.552 114.573 117.032C114.989 117.496 115.197 117.912 115.197 118.28C115.197 118.424 115.141 118.552 115.029 118.664C114.933 118.76 114.813 118.808 114.669 118.808H112.893C112.765 118.808 112.629 118.752 112.485 118.64C112.373 118.56 112.197 118.408 111.957 118.184C111.717 117.96 111.437 117.784 111.117 117.656C110.797 117.528 110.421 117.464 109.989 117.464C109.397 117.464 108.933 117.592 108.597 117.848C108.277 118.104 108.117 118.44 108.117 118.856C108.117 119.16 108.197 119.408 108.357 119.6C108.517 119.792 108.829 119.976 109.293 120.152C109.757 120.328 110.453 120.504 111.381 120.68C112.917 120.984 114.013 121.456 114.669 122.096C115.341 122.736 115.677 123.52 115.677 124.448C115.677 125.568 115.189 126.48 114.213 127.184C113.237 127.888 111.869 128.24 110.109 128.24ZM118.754 132.56C118.594 132.56 118.458 132.504 118.346 132.392C118.234 132.296 118.178 132.16 118.178 131.984V116.096C118.178 115.92 118.234 115.784 118.346 115.688C118.458 115.576 118.594 115.52 118.754 115.52H120.65C120.826 115.52 120.962 115.576 121.058 115.688C121.17 115.784 121.226 115.92 121.226 116.096V117.056C122.122 115.872 123.402 115.28 125.066 115.28C126.682 115.28 127.922 115.792 128.786 116.816C129.65 117.824 130.114 119.192 130.178 120.92C130.194 121.112 130.202 121.392 130.202 121.76C130.202 122.144 130.194 122.432 130.178 122.624C130.114 124.304 129.65 125.664 128.786 126.704C127.922 127.728 126.682 128.24 125.066 128.24C123.45 128.24 122.218 127.672 121.37 126.536V131.984C121.37 132.16 121.314 132.296 121.202 132.392C121.106 132.504 120.97 132.56 120.794 132.56H118.754ZM124.178 125.672C125.906 125.672 126.826 124.608 126.938 122.48C126.954 122.32 126.962 122.08 126.962 121.76C126.962 121.44 126.954 121.2 126.938 121.04C126.826 118.912 125.906 117.848 124.178 117.848C123.25 117.848 122.562 118.144 122.114 118.736C121.666 119.328 121.418 120.056 121.37 120.92L121.346 121.832L121.37 122.768C121.402 123.568 121.65 124.256 122.114 124.832C122.594 125.392 123.282 125.672 124.178 125.672ZM138.417 128.24C136.545 128.24 135.097 127.76 134.073 126.8C133.049 125.824 132.497 124.496 132.417 122.816L132.393 121.76L132.417 120.704C132.497 119.04 133.057 117.72 134.097 116.744C135.137 115.768 136.577 115.28 138.417 115.28C140.257 115.28 141.697 115.768 142.737 116.744C143.777 117.72 144.337 119.04 144.417 120.704C144.433 120.896 144.441 121.248 144.441 121.76C144.441 122.272 144.433 122.624 144.417 122.816C144.337 124.496 143.785 125.824 142.761 126.8C141.737 127.76 140.289 128.24 138.417 128.24ZM138.417 125.864C139.265 125.864 139.921 125.6 140.385 125.072C140.849 124.528 141.105 123.736 141.153 122.696C141.169 122.536 141.177 122.224 141.177 121.76C141.177 121.296 141.169 120.984 141.153 120.824C141.105 119.784 140.849 119 140.385 118.472C139.921 117.928 139.265 117.656 138.417 117.656C137.569 117.656 136.913 117.928 136.449 118.472C135.985 119 135.729 119.784 135.681 120.824L135.657 121.76L135.681 122.696C135.729 123.736 135.985 124.528 136.449 125.072C136.913 125.6 137.569 125.864 138.417 125.864ZM147.676 128C147.516 128 147.38 127.944 147.268 127.832C147.156 127.72 147.1 127.584 147.1 127.424V116.12C147.1 115.96 147.156 115.824 147.268 115.712C147.38 115.584 147.516 115.52 147.676 115.52H149.62C149.796 115.52 149.94 115.576 150.052 115.688C150.164 115.8 150.22 115.944 150.22 116.12V117.104C150.604 116.592 151.084 116.2 151.66 115.928C152.252 115.656 152.924 115.52 153.676 115.52H154.66C154.836 115.52 154.972 115.576 155.068 115.688C155.18 115.784 155.236 115.92 155.236 116.096V117.824C155.236 117.984 155.18 118.12 155.068 118.232C154.972 118.344 154.836 118.4 154.66 118.4H152.788C152.036 118.4 151.444 118.616 151.012 119.048C150.58 119.48 150.364 120.072 150.364 120.824V127.424C150.364 127.584 150.308 127.72 150.196 127.832C150.084 127.944 149.94 128 149.764 128H147.676ZM162.747 128C161.291 128 160.195 127.624 159.459 126.872C158.739 126.104 158.379 124.984 158.379 123.512V118.064H156.483C156.323 118.064 156.187 118.008 156.075 117.896C155.963 117.768 155.907 117.624 155.907 117.464V116.096C155.907 115.936 155.963 115.8 156.075 115.688C156.187 115.576 156.323 115.52 156.483 115.52H158.379V111.536C158.379 111.36 158.435 111.224 158.547 111.128C158.659 111.016 158.795 110.96 158.955 110.96H160.899C161.075 110.96 161.211 111.016 161.307 111.128C161.419 111.224 161.475 111.36 161.475 111.536V115.52H164.475C164.651 115.52 164.787 115.576 164.883 115.688C164.995 115.784 165.051 115.92 165.051 116.096V117.464C165.051 117.64 164.995 117.784 164.883 117.896C164.771 118.008 164.635 118.064 164.475 118.064H161.475V123.272C161.475 123.96 161.595 124.48 161.835 124.832C162.075 125.184 162.475 125.36 163.035 125.36H164.691C164.851 125.36 164.987 125.416 165.099 125.528C165.211 125.64 165.267 125.776 165.267 125.936V127.424C165.267 127.584 165.211 127.72 165.099 127.832C165.003 127.944 164.867 128 164.691 128H162.747ZM178.052 128C176.596 128 175.5 127.624 174.764 126.872C174.044 126.104 173.684 124.984 173.684 123.512V118.064H171.788C171.628 118.064 171.492 118.008 171.38 117.896C171.268 117.768 171.212 117.624 171.212 117.464V116.096C171.212 115.936 171.268 115.8 171.38 115.688C171.492 115.576 171.628 115.52 171.788 115.52H173.684V111.536C173.684 111.36 173.74 111.224 173.852 111.128C173.964 111.016 174.1 110.96 174.26 110.96H176.204C176.38 110.96 176.516 111.016 176.612 111.128C176.724 111.224 176.78 111.36 176.78 111.536V115.52H179.78C179.956 115.52 180.092 115.576 180.188 115.688C180.3 115.784 180.356 115.92 180.356 116.096V117.464C180.356 117.64 180.3 117.784 180.188 117.896C180.076 118.008 179.94 118.064 179.78 118.064H176.78V123.272C176.78 123.96 176.9 124.48 177.14 124.832C177.38 125.184 177.78 125.36 178.34 125.36H179.996C180.156 125.36 180.292 125.416 180.404 125.528C180.516 125.64 180.572 125.776 180.572 125.936V127.424C180.572 127.584 180.516 127.72 180.404 127.832C180.308 127.944 180.172 128 179.996 128H178.052ZM188.221 128.24C186.349 128.24 184.901 127.76 183.877 126.8C182.853 125.824 182.301 124.496 182.221 122.816L182.197 121.76L182.221 120.704C182.301 119.04 182.861 117.72 183.901 116.744C184.941 115.768 186.381 115.28 188.221 115.28C190.061 115.28 191.501 115.768 192.541 116.744C193.581 117.72 194.141 119.04 194.221 120.704C194.237 120.896 194.245 121.248 194.245 121.76C194.245 122.272 194.237 122.624 194.221 122.816C194.141 124.496 193.589 125.824 192.565 126.8C191.541 127.76 190.093 128.24 188.221 128.24ZM188.221 125.864C189.069 125.864 189.725 125.6 190.189 125.072C190.653 124.528 190.909 123.736 190.957 122.696C190.973 122.536 190.981 122.224 190.981 121.76C190.981 121.296 190.973 120.984 190.957 120.824C190.909 119.784 190.653 119 190.189 118.472C189.725 117.928 189.069 117.656 188.221 117.656C187.373 117.656 186.717 117.928 186.253 118.472C185.789 119 185.533 119.784 185.485 120.824L185.461 121.76L185.485 122.696C185.533 123.736 185.789 124.528 186.253 125.072C186.717 125.6 187.373 125.864 188.221 125.864ZM204.012 132.56C203.884 132.56 203.772 132.512 203.676 132.416C203.58 132.32 203.532 132.208 203.532 132.08C203.532 131.936 203.564 131.808 203.628 131.696L205.5 127.256L200.892 116.384C200.828 116.24 200.796 116.128 200.796 116.048C200.812 115.904 200.868 115.784 200.964 115.688C201.06 115.576 201.18 115.52 201.324 115.52H203.268C203.572 115.52 203.788 115.672 203.916 115.976L207.108 123.824L210.396 115.976C210.524 115.672 210.74 115.52 211.044 115.52H212.964C213.092 115.52 213.204 115.568 213.3 115.664C213.412 115.76 213.468 115.872 213.468 116C213.468 116.112 213.436 116.24 213.372 116.384L206.58 132.104C206.436 132.408 206.212 132.56 205.908 132.56H204.012ZM220.612 128.24C218.74 128.24 217.292 127.76 216.268 126.8C215.244 125.824 214.692 124.496 214.612 122.816L214.588 121.76L214.612 120.704C214.692 119.04 215.252 117.72 216.292 116.744C217.332 115.768 218.772 115.28 220.612 115.28C222.452 115.28 223.892 115.768 224.932 116.744C225.972 117.72 226.532 119.04 226.612 120.704C226.628 120.896 226.636 121.248 226.636 121.76C226.636 122.272 226.628 122.624 226.612 122.816C226.532 124.496 225.98 125.824 224.956 126.8C223.932 127.76 222.484 128.24 220.612 128.24ZM220.612 125.864C221.46 125.864 222.116 125.6 222.58 125.072C223.044 124.528 223.3 123.736 223.348 122.696C223.364 122.536 223.372 122.224 223.372 121.76C223.372 121.296 223.364 120.984 223.348 120.824C223.3 119.784 223.044 119 222.58 118.472C222.116 117.928 221.46 117.656 220.612 117.656C219.764 117.656 219.108 117.928 218.644 118.472C218.18 119 217.924 119.784 217.876 120.824L217.852 121.76L217.876 122.696C217.924 123.736 218.18 124.528 218.644 125.072C219.108 125.6 219.764 125.864 220.612 125.864ZM233.927 128.24C232.455 128.24 231.295 127.76 230.447 126.8C229.599 125.824 229.175 124.504 229.175 122.84V116.096C229.175 115.936 229.231 115.8 229.343 115.688C229.455 115.576 229.591 115.52 229.751 115.52H231.863C232.039 115.52 232.175 115.576 232.271 115.688C232.383 115.784 232.439 115.92 232.439 116.096V122.696C232.439 124.68 233.311 125.672 235.055 125.672C235.887 125.672 236.543 125.408 237.023 124.88C237.519 124.352 237.767 123.624 237.767 122.696V116.096C237.767 115.936 237.823 115.8 237.935 115.688C238.047 115.576 238.183 115.52 238.343 115.52H240.455C240.631 115.52 240.767 115.576 240.863 115.688C240.975 115.784 241.031 115.92 241.031 116.096V127.424C241.031 127.584 240.975 127.72 240.863 127.832C240.767 127.944 240.631 128 240.455 128H238.511C238.351 128 238.215 127.944 238.103 127.832C237.991 127.72 237.935 127.584 237.935 127.424V126.44C237.039 127.64 235.703 128.24 233.927 128.24ZM244.777 128C244.617 128 244.481 127.944 244.369 127.832C244.257 127.72 244.201 127.584 244.201 127.424V116.12C244.201 115.96 244.257 115.824 244.369 115.712C244.481 115.584 244.617 115.52 244.777 115.52H246.721C246.897 115.52 247.041 115.576 247.153 115.688C247.265 115.8 247.321 115.944 247.321 116.12V117.104C247.705 116.592 248.185 116.2 248.761 115.928C249.353 115.656 250.025 115.52 250.777 115.52H251.761C251.937 115.52 252.073 115.576 252.169 115.688C252.281 115.784 252.337 115.92 252.337 116.096V117.824C252.337 117.984 252.281 118.12 252.169 118.232C252.073 118.344 251.937 118.4 251.761 118.4H249.889C249.137 118.4 248.545 118.616 248.113 119.048C247.681 119.48 247.465 120.072 247.465 120.824V127.424C247.465 127.584 247.409 127.72 247.297 127.832C247.185 127.944 247.041 128 246.865 128H244.777ZM266.09 128.24C264.442 128.24 263.162 127.672 262.25 126.536V127.424C262.25 127.584 262.194 127.72 262.082 127.832C261.986 127.944 261.85 128 261.674 128H259.778C259.618 128 259.482 127.944 259.37 127.832C259.258 127.72 259.202 127.584 259.202 127.424V111.536C259.202 111.36 259.258 111.224 259.37 111.128C259.482 111.016 259.618 110.96 259.778 110.96H261.818C261.994 110.96 262.13 111.016 262.226 111.128C262.338 111.224 262.394 111.36 262.394 111.536V116.864C263.306 115.808 264.538 115.28 266.09 115.28C267.706 115.28 268.946 115.808 269.81 116.864C270.674 117.92 271.138 119.288 271.202 120.968C271.218 121.16 271.226 121.416 271.226 121.736C271.226 122.072 271.218 122.336 271.202 122.528C271.138 124.256 270.674 125.64 269.81 126.68C268.946 127.72 267.706 128.24 266.09 128.24ZM265.202 125.672C266.93 125.672 267.85 124.608 267.962 122.48C267.978 122.32 267.986 122.08 267.986 121.76C267.986 121.44 267.978 121.2 267.962 121.04C267.85 118.912 266.93 117.848 265.202 117.848C264.306 117.848 263.618 118.136 263.138 118.712C262.674 119.272 262.426 119.952 262.394 120.752L262.37 121.664L262.394 122.6C262.442 123.464 262.69 124.192 263.138 124.784C263.586 125.376 264.274 125.672 265.202 125.672ZM278.529 128.24C277.057 128.24 275.897 127.76 275.049 126.8C274.201 125.824 273.777 124.504 273.777 122.84V116.096C273.777 115.936 273.833 115.8 273.945 115.688C274.057 115.576 274.193 115.52 274.353 115.52H276.465C276.641 115.52 276.777 115.576 276.873 115.688C276.985 115.784 277.041 115.92 277.041 116.096V122.696C277.041 124.68 277.913 125.672 279.657 125.672C280.489 125.672 281.145 125.408 281.625 124.88C282.121 124.352 282.369 123.624 282.369 122.696V116.096C282.369 115.936 282.425 115.8 282.537 115.688C282.649 115.576 282.785 115.52 282.945 115.52H285.057C285.233 115.52 285.369 115.576 285.465 115.688C285.577 115.784 285.633 115.92 285.633 116.096V127.424C285.633 127.584 285.577 127.72 285.465 127.832C285.369 127.944 285.233 128 285.057 128H283.113C282.953 128 282.817 127.944 282.705 127.832C282.593 127.72 282.537 127.584 282.537 127.424V126.44C281.641 127.64 280.305 128.24 278.529 128.24ZM293.531 128.24C292.331 128.24 291.323 128.064 290.507 127.712C289.691 127.344 289.083 126.92 288.683 126.44C288.299 125.944 288.107 125.52 288.107 125.168C288.107 125.008 288.163 124.88 288.275 124.784C288.387 124.688 288.515 124.64 288.659 124.64H290.555C290.699 124.64 290.819 124.696 290.915 124.808C290.979 124.856 291.147 125 291.419 125.24C291.691 125.496 292.011 125.696 292.379 125.84C292.747 125.984 293.155 126.056 293.603 126.056C294.243 126.056 294.771 125.928 295.187 125.672C295.603 125.416 295.811 125.064 295.811 124.616C295.811 124.28 295.715 124.008 295.523 123.8C295.347 123.592 295.019 123.408 294.539 123.248C294.059 123.072 293.347 122.888 292.403 122.696C291.043 122.408 290.035 121.968 289.379 121.376C288.739 120.784 288.419 120 288.419 119.024C288.419 118.384 288.611 117.784 288.995 117.224C289.379 116.648 289.947 116.184 290.699 115.832C291.467 115.464 292.379 115.28 293.435 115.28C294.507 115.28 295.435 115.456 296.219 115.808C297.003 116.144 297.595 116.552 297.995 117.032C298.411 117.496 298.619 117.912 298.619 118.28C298.619 118.424 298.563 118.552 298.451 118.664C298.355 118.76 298.235 118.808 298.091 118.808H296.315C296.187 118.808 296.051 118.752 295.907 118.64C295.795 118.56 295.619 118.408 295.379 118.184C295.139 117.96 294.859 117.784 294.539 117.656C294.219 117.528 293.843 117.464 293.411 117.464C292.819 117.464 292.355 117.592 292.019 117.848C291.699 118.104 291.539 118.44 291.539 118.856C291.539 119.16 291.619 119.408 291.779 119.6C291.939 119.792 292.251 119.976 292.715 120.152C293.179 120.328 293.875 120.504 294.803 120.68C296.339 120.984 297.435 121.456 298.091 122.096C298.763 122.736 299.099 123.52 299.099 124.448C299.099 125.568 298.611 126.48 297.635 127.184C296.659 127.888 295.291 128.24 293.531 128.24ZM302.056 113.456C301.896 113.456 301.76 113.4 301.648 113.288C301.536 113.176 301.48 113.04 301.48 112.88V111.152C301.48 110.992 301.536 110.856 301.648 110.744C301.76 110.632 301.896 110.576 302.056 110.576H304.24C304.4 110.576 304.536 110.632 304.648 110.744C304.776 110.856 304.84 110.992 304.84 111.152V112.88C304.84 113.04 304.784 113.176 304.672 113.288C304.56 113.4 304.416 113.456 304.24 113.456H302.056ZM302.152 128C301.992 128 301.856 127.944 301.744 127.832C301.632 127.72 301.576 127.584 301.576 127.424V116.096C301.576 115.936 301.632 115.8 301.744 115.688C301.856 115.576 301.992 115.52 302.152 115.52H304.144C304.32 115.52 304.456 115.576 304.552 115.688C304.664 115.784 304.72 115.92 304.72 116.096V127.424C304.72 127.584 304.664 127.72 304.552 127.832C304.456 127.944 304.32 128 304.144 128H302.152ZM308.48 128C308.32 128 308.184 127.944 308.072 127.832C307.96 127.72 307.904 127.584 307.904 127.424V116.096C307.904 115.936 307.96 115.8 308.072 115.688C308.184 115.576 308.32 115.52 308.48 115.52H310.448C310.608 115.52 310.744 115.576 310.856 115.688C310.968 115.8 311.024 115.936 311.024 116.096V117.08C311.968 115.88 313.304 115.28 315.032 115.28C316.504 115.28 317.672 115.768 318.536 116.744C319.4 117.704 319.832 119.016 319.832 120.68V127.424C319.832 127.584 319.776 127.72 319.664 127.832C319.568 127.944 319.432 128 319.256 128H317.144C316.984 128 316.848 127.944 316.736 127.832C316.624 127.72 316.568 127.584 316.568 127.424V120.824C316.568 119.88 316.336 119.152 315.872 118.64C315.424 118.112 314.768 117.848 313.904 117.848C313.056 117.848 312.384 118.112 311.888 118.64C311.408 119.168 311.168 119.896 311.168 120.824V127.424C311.168 127.584 311.112 127.72 311 127.832C310.904 127.944 310.768 128 310.592 128H308.48ZM328.257 128.24C326.481 128.24 325.065 127.728 324.009 126.704C322.969 125.664 322.417 124.208 322.353 122.336L322.329 121.736L322.353 121.136C322.433 119.312 322.993 117.88 324.033 116.84C325.089 115.8 326.497 115.28 328.257 115.28C330.145 115.28 331.601 115.856 332.625 117.008C333.665 118.16 334.185 119.696 334.185 121.616V122.12C334.185 122.28 334.129 122.416 334.017 122.528C333.905 122.64 333.761 122.696 333.585 122.696H325.617V122.888C325.649 123.768 325.889 124.512 326.337 125.12C326.801 125.712 327.433 126.008 328.233 126.008C329.177 126.008 329.937 125.64 330.513 124.904C330.657 124.728 330.769 124.616 330.849 124.568C330.945 124.52 331.081 124.496 331.257 124.496H333.321C333.465 124.496 333.585 124.544 333.681 124.64C333.793 124.72 333.849 124.824 333.849 124.952C333.849 125.336 333.617 125.792 333.153 126.32C332.705 126.832 332.057 127.28 331.209 127.664C330.361 128.048 329.377 128.24 328.257 128.24ZM330.921 120.68V120.608C330.921 119.664 330.681 118.904 330.201 118.328C329.737 117.752 329.089 117.464 328.257 117.464C327.425 117.464 326.777 117.752 326.313 118.328C325.849 118.904 325.617 119.664 325.617 120.608V120.68H330.921ZM341.46 128.24C340.26 128.24 339.252 128.064 338.436 127.712C337.62 127.344 337.012 126.92 336.612 126.44C336.228 125.944 336.036 125.52 336.036 125.168C336.036 125.008 336.092 124.88 336.204 124.784C336.316 124.688 336.444 124.64 336.588 124.64H338.484C338.628 124.64 338.748 124.696 338.844 124.808C338.908 124.856 339.076 125 339.348 125.24C339.62 125.496 339.94 125.696 340.308 125.84C340.676 125.984 341.084 126.056 341.532 126.056C342.172 126.056 342.7 125.928 343.116 125.672C343.532 125.416 343.74 125.064 343.74 124.616C343.74 124.28 343.644 124.008 343.452 123.8C343.276 123.592 342.948 123.408 342.468 123.248C341.988 123.072 341.276 122.888 340.332 122.696C338.972 122.408 337.964 121.968 337.308 121.376C336.668 120.784 336.348 120 336.348 119.024C336.348 118.384 336.54 117.784 336.924 117.224C337.308 116.648 337.876 116.184 338.628 115.832C339.396 115.464 340.308 115.28 341.364 115.28C342.436 115.28 343.364 115.456 344.148 115.808C344.932 116.144 345.524 116.552 345.924 117.032C346.34 117.496 346.548 117.912 346.548 118.28C346.548 118.424 346.492 118.552 346.38 118.664C346.284 118.76 346.164 118.808 346.02 118.808H344.244C344.116 118.808 343.98 118.752 343.836 118.64C343.724 118.56 343.548 118.408 343.308 118.184C343.068 117.96 342.788 117.784 342.468 117.656C342.148 117.528 341.772 117.464 341.34 117.464C340.748 117.464 340.284 117.592 339.948 117.848C339.628 118.104 339.468 118.44 339.468 118.856C339.468 119.16 339.548 119.408 339.708 119.6C339.868 119.792 340.18 119.976 340.644 120.152C341.108 120.328 341.804 120.504 342.732 120.68C344.268 120.984 345.364 121.456 346.02 122.096C346.692 122.736 347.028 123.52 347.028 124.448C347.028 125.568 346.54 126.48 345.564 127.184C344.588 127.888 343.22 128.24 341.46 128.24ZM354.234 128.24C353.034 128.24 352.026 128.064 351.21 127.712C350.394 127.344 349.786 126.92 349.386 126.44C349.002 125.944 348.81 125.52 348.81 125.168C348.81 125.008 348.866 124.88 348.978 124.784C349.09 124.688 349.218 124.64 349.362 124.64H351.258C351.402 124.64 351.522 124.696 351.618 124.808C351.682 124.856 351.85 125 352.122 125.24C352.394 125.496 352.714 125.696 353.082 125.84C353.45 125.984 353.858 126.056 354.306 126.056C354.946 126.056 355.474 125.928 355.89 125.672C356.306 125.416 356.514 125.064 356.514 124.616C356.514 124.28 356.418 124.008 356.226 123.8C356.05 123.592 355.722 123.408 355.242 123.248C354.762 123.072 354.05 122.888 353.106 122.696C351.746 122.408 350.738 121.968 350.082 121.376C349.442 120.784 349.122 120 349.122 119.024C349.122 118.384 349.314 117.784 349.698 117.224C350.082 116.648 350.65 116.184 351.402 115.832C352.17 115.464 353.082 115.28 354.138 115.28C355.21 115.28 356.138 115.456 356.922 115.808C357.706 116.144 358.298 116.552 358.698 117.032C359.114 117.496 359.322 117.912 359.322 118.28C359.322 118.424 359.266 118.552 359.154 118.664C359.058 118.76 358.938 118.808 358.794 118.808H357.018C356.89 118.808 356.754 118.752 356.61 118.64C356.498 118.56 356.322 118.408 356.082 118.184C355.842 117.96 355.562 117.784 355.242 117.656C354.922 117.528 354.546 117.464 354.114 117.464C353.522 117.464 353.058 117.592 352.722 117.848C352.402 118.104 352.242 118.44 352.242 118.856C352.242 119.16 352.322 119.408 352.482 119.6C352.642 119.792 352.954 119.976 353.418 120.152C353.882 120.328 354.578 120.504 355.506 120.68C357.042 120.984 358.138 121.456 358.794 122.096C359.466 122.736 359.802 123.52 359.802 124.448C359.802 125.568 359.314 126.48 358.338 127.184C357.362 127.888 355.994 128.24 354.234 128.24ZM366.22 123.488C366.092 123.488 365.98 123.44 365.884 123.344C365.788 123.248 365.74 123.136 365.74 123.008V122.24C365.82 121.488 366.052 120.832 366.436 120.272C366.836 119.696 367.396 119.04 368.116 118.304C368.644 117.792 369.044 117.352 369.316 116.984C369.588 116.616 369.748 116.24 369.796 115.856C369.86 115.2 369.644 114.68 369.148 114.296C368.652 113.896 368.052 113.696 367.348 113.696C365.78 113.696 364.836 114.472 364.516 116.024C364.404 116.392 364.172 116.576 363.82 116.576H361.78C361.62 116.576 361.492 116.528 361.396 116.432C361.3 116.32 361.252 116.176 361.252 116C361.284 115.12 361.548 114.296 362.044 113.528C362.54 112.76 363.26 112.144 364.204 111.68C365.148 111.2 366.252 110.96 367.516 110.96C368.844 110.96 369.932 111.176 370.78 111.608C371.644 112.024 372.268 112.56 372.652 113.216C373.052 113.872 373.252 114.552 373.252 115.256C373.252 116.072 373.068 116.776 372.7 117.368C372.348 117.944 371.812 118.616 371.092 119.384C370.58 119.944 370.18 120.424 369.892 120.824C369.62 121.208 369.436 121.624 369.34 122.072C369.276 122.472 369.236 122.744 369.22 122.888C369.092 123.288 368.876 123.488 368.572 123.488H366.22ZM366.148 128C365.988 128 365.852 127.944 365.74 127.832C365.628 127.72 365.572 127.584 365.572 127.424V125.336C365.572 125.176 365.628 125.04 365.74 124.928C365.852 124.8 365.988 124.736 366.148 124.736H368.476C368.652 124.736 368.796 124.792 368.908 124.904C369.02 125.016 369.076 125.16 369.076 125.336V127.424C369.076 127.584 369.02 127.72 368.908 127.832C368.796 127.944 368.652 128 368.476 128H366.148Z" fill="#402B2B"/>
</svg>
