<svg width="492" height="169" viewBox="0 0 492 169" fill="none" xmlns="http://www.w3.org/2000/svg">
<path d="M16.08 35.0261C14.032 35.0261 12.096 34.6581 10.272 33.9221L8.16 36.8981C10.24 37.4101 12.608 37.9541 15.264 38.5301C17.952 39.1381 20.592 39.7141 23.184 40.2581C24.432 40.5141 25.36 40.6261 25.968 40.5941C26.608 40.5941 27.184 40.4341 27.696 40.1141L28.992 39.2981L29.376 39.8261L26.928 42.4661C26.224 43.2021 25.536 43.7941 24.864 44.2421C24.192 44.7221 23.44 44.9621 22.608 44.9621C21.936 44.9621 20.976 44.8501 19.728 44.6261C18.48 44.4341 17.088 44.1781 15.552 43.8581C14.016 43.5701 12.48 43.2501 10.944 42.8981C9.408 42.5781 8.016 42.2901 6.768 42.0341C6.256 41.9061 5.792 41.8741 5.376 41.9381C4.96 42.0341 4.56 42.2901 4.176 42.7061L3.6 43.2821L3.024 42.8501L9.072 33.3461C6.736 32.1621 4.8 30.3221 3.264 27.8261C1.728 25.2981 0.96 22.1301 0.96 18.3221C0.96 15.5701 1.376 13.1541 2.208 11.0741C3.04 8.99411 4.176 7.26611 5.616 5.89011C7.056 4.48211 8.672 3.42611 10.464 2.72211C12.288 1.98611 14.16 1.61811 16.08 1.61811C18.032 1.61811 19.904 1.97011 21.696 2.67411C23.52 3.34611 25.136 4.38611 26.544 5.79411C27.984 7.17011 29.12 8.91411 29.952 11.0261C30.784 13.1061 31.2 15.5381 31.2 18.3221C31.2 21.0421 30.784 23.4581 29.952 25.5701C29.12 27.6501 27.984 29.3941 26.544 30.8021C25.136 32.1781 23.52 33.2341 21.696 33.9701C19.904 34.6741 18.032 35.0261 16.08 35.0261ZM16.08 34.0181C17.84 34.0181 19.264 33.5541 20.352 32.6261C21.44 31.6661 22.224 30.0501 22.704 27.7781C23.216 25.4741 23.472 22.3221 23.472 18.3221C23.472 14.2901 23.216 11.1381 22.704 8.86611C22.224 6.56211 21.44 4.94611 20.352 4.01811C19.264 3.05811 17.84 2.57811 16.08 2.57811C14.352 2.57811 12.944 3.05811 11.856 4.01811C10.768 4.94611 9.968 6.56211 9.456 8.86611C8.976 11.1381 8.736 14.2901 8.736 18.3221C8.736 22.3221 8.976 25.4741 9.456 27.7781C9.968 30.0501 10.768 31.6661 11.856 32.6261C12.944 33.5541 14.352 34.0181 16.08 34.0181ZM41.8043 34.8821C40.5563 34.8821 39.4043 34.6421 38.3483 34.1621C37.3243 33.6821 36.5083 32.9141 35.9003 31.8581C35.3243 30.7701 35.0523 29.3461 35.0843 27.5861L35.2283 15.2501C35.2283 14.5141 35.1003 13.9861 34.8443 13.6661C34.5883 13.3461 34.1883 13.1221 33.6443 12.9941L33.0683 12.8021V12.3221L41.6603 10.6421L42.1403 11.1221L41.9003 17.9381V29.5061C41.9003 30.5301 42.1883 31.2821 42.7643 31.7621C43.3723 32.2421 44.1243 32.4821 45.0203 32.4821C45.9163 32.4821 46.7163 32.3541 47.4203 32.0981C48.1243 31.8421 48.8283 31.4581 49.5323 30.9461L49.7243 15.2981C49.7243 14.5621 49.6123 14.0501 49.3883 13.7621C49.1643 13.4421 48.7483 13.2181 48.1403 13.0901L47.6603 12.9461V12.4661L56.0603 10.6421L56.5403 11.1221L56.3962 17.9381V30.9461C56.3962 31.6501 56.4923 32.1941 56.6843 32.5781C56.8763 32.9621 57.2923 33.2821 57.9323 33.5381L58.4123 33.6821V34.1621L50.0123 34.6421L49.5803 31.8101C48.5243 32.6741 47.3723 33.4101 46.1243 34.0181C44.9083 34.5941 43.4683 34.8821 41.8043 34.8821ZM72.2111 10.3541C74.2911 10.3541 76.0671 10.7861 77.5391 11.6501C79.0111 12.4821 80.1311 13.6341 80.8991 15.1061C81.6991 16.5461 82.0991 18.1941 82.0991 20.0501C82.0991 20.4021 82.0831 20.7701 82.0511 21.1541C82.0191 21.5061 81.9551 21.8261 81.8591 22.1141H67.5551C67.5871 25.5701 68.1951 28.0661 69.3791 29.6021C70.5951 31.1061 72.3871 31.8581 74.7551 31.8581C76.3551 31.8581 77.6511 31.6021 78.6431 31.0901C79.6351 30.5781 80.5631 29.8261 81.4271 28.8341L81.9071 29.2661C80.9151 31.0261 79.5871 32.4021 77.9231 33.3941C76.2911 34.3861 74.3231 34.8821 72.0191 34.8821C69.7471 34.8821 67.7311 34.4021 65.9711 33.4421C64.2111 32.4501 62.8351 31.0421 61.8431 29.2181C60.8511 27.3941 60.3551 25.2181 60.3551 22.6901C60.3551 20.0661 60.9311 17.8421 62.0831 16.0181C63.2351 14.1621 64.7071 12.7541 66.4991 11.7941C68.3231 10.8341 70.2271 10.3541 72.2111 10.3541ZM72.0671 11.3141C71.1391 11.3141 70.3391 11.6021 69.6671 12.1781C69.0271 12.7221 68.5151 13.7141 68.1311 15.1541C67.7791 16.5621 67.5871 18.5621 67.5551 21.1541H75.7631C76.0831 17.6661 75.9551 15.1541 75.3791 13.6181C74.8031 12.0821 73.6991 11.3141 72.0671 11.3141ZM92.7953 34.8821C91.2273 34.8821 89.8193 34.6901 88.5713 34.3061C87.3233 33.9541 86.1712 33.5061 85.1152 32.9621L85.1633 27.2501H85.6433L87.2753 30.1301C87.9793 31.4101 88.7473 32.3701 89.5793 33.0101C90.4433 33.6181 91.5313 33.9221 92.8433 33.9221C94.3793 33.9221 95.6113 33.5861 96.5393 32.9141C97.4993 32.2101 97.9793 31.2821 97.9793 30.1301C97.9793 29.0741 97.6433 28.2101 96.9713 27.5381C96.2993 26.8661 95.0513 26.2581 93.2273 25.7141L91.2113 25.0901C89.2593 24.5141 87.7233 23.6181 86.6033 22.4021C85.4833 21.1861 84.9233 19.6981 84.9233 17.9381C84.9233 15.8261 85.7553 14.0341 87.4193 12.5621C89.0833 11.0901 91.4673 10.3541 94.5713 10.3541C95.8193 10.3541 96.9873 10.4981 98.0753 10.7861C99.1953 11.0421 100.267 11.4421 101.291 11.9861L101.003 17.1701H100.523L98.8433 14.1941C98.2353 13.1381 97.6273 12.4021 97.0193 11.9861C96.4433 11.5381 95.5633 11.3141 94.3793 11.3141C93.2913 11.3141 92.2673 11.6181 91.3073 12.2261C90.3472 12.8341 89.8672 13.6981 89.8672 14.8181C89.8672 15.9061 90.2673 16.7701 91.0673 17.4101C91.8993 18.0501 93.1153 18.6421 94.7153 19.1861L96.8753 19.8101C99.1793 20.5141 100.827 21.4901 101.819 22.7381C102.811 23.9541 103.307 25.4261 103.307 27.1541C103.307 29.4901 102.379 31.3621 100.523 32.7701C98.6993 34.1781 96.1233 34.8821 92.7953 34.8821ZM114.518 34.8821C112.47 34.8821 110.87 34.3701 109.718 33.3461C108.598 32.3221 108.038 30.6901 108.038 28.4501V12.0341H104.726V11.5541L105.878 11.3621C106.87 11.1381 107.718 10.8181 108.422 10.4021C109.158 9.98611 109.878 9.42611 110.582 8.72211L114.518 4.35411H114.998L114.854 11.0741H120.23V12.0341H114.806V29.3141C114.806 30.4341 115.046 31.2821 115.526 31.8581C116.038 32.4341 116.678 32.7221 117.446 32.7221C118.118 32.7221 118.71 32.5621 119.222 32.2421C119.734 31.8901 120.246 31.4261 120.758 30.8501L121.238 31.3301C120.598 32.4181 119.718 33.2821 118.598 33.9221C117.478 34.5621 116.118 34.8821 114.518 34.8821ZM128.501 7.85811C127.413 7.85811 126.485 7.52211 125.717 6.85011C124.981 6.14611 124.613 5.26611 124.613 4.21011C124.613 3.12211 124.981 2.24211 125.717 1.57011C126.485 0.898108 127.413 0.562107 128.501 0.562107C129.589 0.562107 130.501 0.898108 131.237 1.57011C131.973 2.24211 132.341 3.12211 132.341 4.21011C132.341 5.26611 131.973 6.14611 131.237 6.85011C130.501 7.52211 129.589 7.85811 128.501 7.85811ZM122.837 34.1621V33.6821L123.509 33.4901C124.149 33.2981 124.581 33.0101 124.805 32.6261C125.061 32.2421 125.189 31.7301 125.189 31.0901V16.0661C125.189 15.3941 125.061 14.8981 124.805 14.5781C124.581 14.2261 124.149 13.9861 123.509 13.8581L122.837 13.7141V13.2341L131.621 10.4021L132.101 10.8821L131.957 17.6981V31.1381C131.957 31.7781 132.069 32.2901 132.293 32.6741C132.549 33.0581 132.981 33.3461 133.589 33.5381L134.069 33.6821V34.1621H122.837ZM148.338 34.8821C145.906 34.8821 143.794 34.3861 142.002 33.3941C140.21 32.3701 138.818 30.9301 137.826 29.0741C136.866 27.2181 136.386 25.0421 136.386 22.5461C136.386 20.0501 136.898 17.8901 137.922 16.0661C138.978 14.2421 140.402 12.8341 142.194 11.8421C144.018 10.8501 146.066 10.3541 148.338 10.3541C150.61 10.3541 152.642 10.8501 154.434 11.8421C156.226 12.8021 157.634 14.1941 158.658 16.0181C159.714 17.8421 160.242 20.0181 160.242 22.5461C160.242 25.0741 159.746 27.2661 158.754 29.1221C157.794 30.9461 156.418 32.3701 154.626 33.3941C152.866 34.3861 150.77 34.8821 148.338 34.8821ZM148.338 33.9221C149.458 33.9221 150.354 33.6021 151.026 32.9621C151.698 32.3221 152.178 31.1861 152.466 29.5541C152.786 27.9221 152.946 25.6181 152.946 22.6421C152.946 19.6341 152.786 17.3141 152.466 15.6821C152.178 14.0501 151.698 12.9141 151.026 12.2741C150.354 11.6341 149.458 11.3141 148.338 11.3141C147.218 11.3141 146.306 11.6341 145.602 12.2741C144.93 12.9141 144.434 14.0501 144.114 15.6821C143.826 17.3141 143.682 19.6341 143.682 22.6421C143.682 25.6181 143.826 27.9221 144.114 29.5541C144.434 31.1861 144.93 32.3221 145.602 32.9621C146.306 33.6021 147.218 33.9221 148.338 33.9221ZM162.351 34.1621V33.6821L163.023 33.4901C164.143 33.1701 164.703 32.3861 164.703 31.1381V16.1141C164.703 15.4101 164.591 14.8981 164.367 14.5781C164.143 14.2261 163.711 13.9861 163.071 13.8581L162.351 13.6661V13.1861L170.559 10.4021L171.039 10.8821L171.423 13.7621C172.543 12.7701 173.807 11.9541 175.215 11.3141C176.623 10.6741 178.015 10.3541 179.391 10.3541C181.503 10.3541 183.119 10.9301 184.239 12.0821C185.391 13.2341 185.967 14.9941 185.967 17.3621V31.1861C185.967 32.4341 186.575 33.2181 187.791 33.5381L188.223 33.6821V34.1621H176.895V33.6821L177.519 33.4901C178.639 33.1381 179.199 32.3541 179.199 31.1381V15.8261C179.199 13.7781 178.175 12.7541 176.127 12.7541C174.719 12.7541 173.183 13.4581 171.519 14.8661V31.1861C171.519 32.4341 172.079 33.2181 173.199 33.5381L173.631 33.6821V34.1621H162.351ZM198.405 34.8821C196.837 34.8821 195.429 34.6901 194.181 34.3061C192.933 33.9541 191.781 33.5061 190.725 32.9621L190.773 27.2501H191.253L192.885 30.1301C193.589 31.4101 194.357 32.3701 195.189 33.0101C196.053 33.6181 197.141 33.9221 198.453 33.9221C199.989 33.9221 201.221 33.5861 202.149 32.9141C203.109 32.2101 203.589 31.2821 203.589 30.1301C203.589 29.0741 203.253 28.2101 202.581 27.5381C201.909 26.8661 200.661 26.2581 198.837 25.7141L196.821 25.0901C194.869 24.5141 193.333 23.6181 192.213 22.4021C191.093 21.1861 190.533 19.6981 190.533 17.9381C190.533 15.8261 191.365 14.0341 193.029 12.5621C194.693 11.0901 197.077 10.3541 200.181 10.3541C201.429 10.3541 202.597 10.4981 203.685 10.7861C204.805 11.0421 205.877 11.4421 206.901 11.9861L206.613 17.1701H206.133L204.453 14.1941C203.845 13.1381 203.237 12.4021 202.629 11.9861C202.053 11.5381 201.173 11.3141 199.989 11.3141C198.901 11.3141 197.877 11.6181 196.917 12.2261C195.957 12.8341 195.477 13.6981 195.477 14.8181C195.477 15.9061 195.877 16.7701 196.677 17.4101C197.509 18.0501 198.725 18.6421 200.325 19.1861L202.485 19.8101C204.789 20.5141 206.437 21.4901 207.429 22.7381C208.421 23.9541 208.917 25.4261 208.917 27.1541C208.917 29.4901 207.989 31.3621 206.133 32.7701C204.309 34.1781 201.733 34.8821 198.405 34.8821ZM228.468 34.8821C226.612 34.8821 225.044 34.3541 223.764 33.2981C222.516 32.2421 221.892 30.7221 221.892 28.7381C221.892 27.2341 222.66 25.8581 224.196 24.6101C225.732 23.3301 228.148 22.3701 231.444 21.7301C231.956 21.6341 232.532 21.5381 233.172 21.4421C233.812 21.3141 234.484 21.1861 235.188 21.0581V17.2661C235.188 15.0901 234.916 13.5701 234.372 12.7061C233.86 11.8101 233.044 11.3621 231.924 11.3621C231.156 11.3621 230.548 11.6181 230.1 12.1301C229.652 12.6101 229.364 13.4581 229.236 14.6741L229.14 15.2021C229.076 16.5781 228.74 17.5861 228.132 18.2261C227.524 18.8661 226.772 19.1861 225.876 19.1861C225.044 19.1861 224.356 18.9301 223.812 18.4181C223.268 17.9061 222.996 17.2181 222.996 16.3541C222.996 15.0421 223.444 13.9381 224.34 13.0421C225.268 12.1461 226.484 11.4741 227.988 11.0261C229.492 10.5781 231.124 10.3541 232.884 10.3541C235.732 10.3541 237.924 11.0581 239.46 12.4661C241.028 13.8421 241.812 16.0981 241.812 19.2341V29.8421C241.812 31.2821 242.484 32.0021 243.828 32.0021H244.884L245.316 32.3861C244.708 33.1541 244.036 33.7461 243.3 34.1621C242.596 34.5781 241.588 34.7861 240.276 34.7861C238.868 34.7861 237.748 34.4661 236.916 33.8261C236.116 33.1541 235.588 32.2741 235.332 31.1861C234.372 32.2101 233.38 33.0901 232.356 33.8261C231.364 34.5301 230.068 34.8821 228.468 34.8821ZM231.396 31.9541C232.036 31.9541 232.628 31.8101 233.172 31.5221C233.748 31.2021 234.42 30.7221 235.188 30.0821V22.0181C234.868 22.0821 234.548 22.1461 234.228 22.2101C233.908 22.2741 233.54 22.3381 233.124 22.4021C231.652 22.7861 230.468 23.4421 229.572 24.3701C228.708 25.2661 228.276 26.4821 228.276 28.0181C228.276 29.3301 228.58 30.3221 229.188 30.9941C229.796 31.6341 230.532 31.9541 231.396 31.9541ZM246.21 34.1621V33.6821L246.882 33.4901C248.002 33.1701 248.562 32.3861 248.562 31.1381V16.1141C248.562 15.4101 248.45 14.8981 248.226 14.5781C248.002 14.2261 247.57 13.9861 246.93 13.8581L246.21 13.6661V13.1861L254.418 10.4021L254.898 10.8821L255.282 13.7621C256.402 12.7701 257.666 11.9541 259.074 11.3141C260.482 10.6741 261.874 10.3541 263.25 10.3541C265.362 10.3541 266.978 10.9301 268.098 12.0821C269.25 13.2341 269.826 14.9941 269.826 17.3621V31.1861C269.826 32.4341 270.434 33.2181 271.65 33.5381L272.082 33.6821V34.1621H260.754V33.6821L261.378 33.4901C262.498 33.1381 263.058 32.3541 263.058 31.1381V15.8261C263.058 13.7781 262.034 12.7541 259.986 12.7541C258.578 12.7541 257.042 13.4581 255.378 14.8661V31.1861C255.378 32.4341 255.938 33.2181 257.058 33.5381L257.49 33.6821V34.1621H246.21ZM284.136 34.8821C282.248 34.8821 280.552 34.4661 279.048 33.6341C277.544 32.7701 276.344 31.4581 275.448 29.6981C274.584 27.9061 274.152 25.6181 274.152 22.8341C274.152 20.0181 274.648 17.6981 275.64 15.8741C276.632 14.0181 277.944 12.6421 279.576 11.7461C281.208 10.8181 282.984 10.3541 284.904 10.3541C286.024 10.3541 287.096 10.4661 288.12 10.6901C289.144 10.9141 290.056 11.2501 290.856 11.6981V5.45811C290.856 4.78611 290.744 4.29011 290.52 3.97011C290.328 3.65011 289.896 3.42611 289.224 3.29811L288.312 3.10611V2.62611L297.048 0.514108L297.576 0.946108L297.384 7.66611V31.1381C297.384 31.7781 297.496 32.3061 297.72 32.7221C297.944 33.1061 298.36 33.3781 298.968 33.5381L299.4 33.6821V34.1621L291.192 34.6901L290.76 32.9621C289.896 33.5381 288.904 34.0021 287.784 34.3541C286.696 34.7061 285.48 34.8821 284.136 34.8821ZM286.92 33.1061C288.264 33.1061 289.496 32.7061 290.616 31.9061V12.8501C289.432 12.0821 288.216 11.6981 286.968 11.6981C285.432 11.6981 284.12 12.5941 283.032 14.3861C281.944 16.1461 281.4 18.9301 281.4 22.7381C281.4 26.5461 281.912 29.2341 282.936 30.8021C283.96 32.3381 285.288 33.1061 286.92 33.1061ZM311.4 34.1621V33.6821L312.6 33.2501C313.24 32.9941 313.736 32.6901 314.088 32.3381C314.44 31.9541 314.728 31.4261 314.952 30.7541L324.84 2.38611H328.92L338.664 30.9461C338.92 31.6501 339.208 32.1941 339.528 32.5781C339.848 32.9301 340.344 33.2341 341.016 33.4901L341.592 33.6821V34.1621H329.4V33.6821L330.12 33.4421C330.792 33.1861 331.192 32.8341 331.32 32.3861C331.48 31.9061 331.464 31.3461 331.272 30.7061L329.016 23.7941H318.36L316.056 30.5621C315.832 31.2661 315.752 31.8261 315.816 32.2421C315.912 32.6581 316.296 32.9941 316.968 33.2501L318.024 33.6821V34.1621H311.4ZM318.696 22.8341H328.728L323.88 7.90611L318.696 22.8341ZM343.194 34.1621V33.6821L343.866 33.4901C344.986 33.1701 345.546 32.3861 345.546 31.1381V16.1141C345.546 15.4101 345.434 14.8981 345.21 14.5781C344.986 14.2261 344.554 13.9861 343.914 13.8581L343.194 13.6661V13.1861L351.402 10.4021L351.882 10.8821L352.266 13.7621C353.386 12.7701 354.65 11.9541 356.058 11.3141C357.466 10.6741 358.858 10.3541 360.234 10.3541C362.346 10.3541 363.962 10.9301 365.082 12.0821C366.234 13.2341 366.81 14.9941 366.81 17.3621V31.1861C366.81 32.4341 367.418 33.2181 368.634 33.5381L369.066 33.6821V34.1621H357.738V33.6821L358.362 33.4901C359.482 33.1381 360.042 32.3541 360.042 31.1381V15.8261C360.042 13.7781 359.018 12.7541 356.97 12.7541C355.562 12.7541 354.026 13.4581 352.362 14.8661V31.1861C352.362 32.4341 352.922 33.2181 354.042 33.5381L354.474 33.6821V34.1621H343.194ZM379.248 34.8821C377.68 34.8821 376.272 34.6901 375.024 34.3061C373.776 33.9541 372.624 33.5061 371.568 32.9621L371.616 27.2501H372.096L373.728 30.1301C374.432 31.4101 375.2 32.3701 376.032 33.0101C376.896 33.6181 377.984 33.9221 379.296 33.9221C380.832 33.9221 382.064 33.5861 382.992 32.9141C383.952 32.2101 384.432 31.2821 384.432 30.1301C384.432 29.0741 384.096 28.2101 383.424 27.5381C382.752 26.8661 381.504 26.2581 379.68 25.7141L377.664 25.0901C375.712 24.5141 374.176 23.6181 373.056 22.4021C371.936 21.1861 371.376 19.6981 371.376 17.9381C371.376 15.8261 372.208 14.0341 373.872 12.5621C375.536 11.0901 377.92 10.3541 381.024 10.3541C382.272 10.3541 383.44 10.4981 384.528 10.7861C385.648 11.0421 386.72 11.4421 387.744 11.9861L387.456 17.1701H386.976L385.296 14.1941C384.688 13.1381 384.08 12.4021 383.472 11.9861C382.896 11.5381 382.016 11.3141 380.832 11.3141C379.744 11.3141 378.72 11.6181 377.76 12.2261C376.8 12.8341 376.32 13.6981 376.32 14.8181C376.32 15.9061 376.72 16.7701 377.52 17.4101C378.352 18.0501 379.568 18.6421 381.168 19.1861L383.328 19.8101C385.632 20.5141 387.28 21.4901 388.272 22.7381C389.264 23.9541 389.76 25.4261 389.76 27.1541C389.76 29.4901 388.832 31.3621 386.976 32.7701C385.152 34.1781 382.576 34.8821 379.248 34.8821ZM401.409 34.3061L394.017 14.0021C393.665 12.9781 392.961 12.2581 391.905 11.8421L391.089 11.5541V11.0741H402.849V11.5541L402.129 11.7461C400.881 12.1301 400.465 12.8981 400.881 14.0501L405.345 27.6341L409.329 17.0741L408.417 14.3381C408.193 13.6341 407.953 13.1061 407.697 12.7541C407.473 12.3701 407.169 12.0981 406.785 11.9381L405.969 11.5541V11.0741H415.905V11.5541L415.233 11.8421C414.753 12.0341 414.465 12.2901 414.369 12.6101C414.273 12.9301 414.337 13.4101 414.561 14.0501L418.977 27.3941L423.537 14.1461C423.985 12.9301 423.745 12.1621 422.817 11.8421L421.761 11.5541V11.0741H427.521V11.5541L426.369 11.8901C425.825 12.0501 425.425 12.3061 425.169 12.6581C424.945 12.9781 424.737 13.4261 424.545 14.0021L417.633 34.3061H415.185L409.857 18.6101L404.193 34.3061H401.409ZM439.852 10.3541C441.932 10.3541 443.708 10.7861 445.18 11.6501C446.652 12.4821 447.772 13.6341 448.54 15.1061C449.34 16.5461 449.74 18.1941 449.74 20.0501C449.74 20.4021 449.724 20.7701 449.692 21.1541C449.66 21.5061 449.596 21.8261 449.5 22.1141H435.196C435.228 25.5701 435.836 28.0661 437.02 29.6021C438.236 31.1061 440.028 31.8581 442.396 31.8581C443.996 31.8581 445.292 31.6021 446.284 31.0901C447.276 30.5781 448.204 29.8261 449.068 28.8341L449.548 29.2661C448.556 31.0261 447.228 32.4021 445.564 33.3941C443.932 34.3861 441.964 34.8821 439.66 34.8821C437.388 34.8821 435.372 34.4021 433.612 33.4421C431.852 32.4501 430.476 31.0421 429.484 29.2181C428.492 27.3941 427.996 25.2181 427.996 22.6901C427.996 20.0661 428.572 17.8421 429.724 16.0181C430.876 14.1621 432.348 12.7541 434.14 11.7941C435.964 10.8341 437.868 10.3541 439.852 10.3541ZM439.708 11.3141C438.78 11.3141 437.98 11.6021 437.308 12.1781C436.668 12.7221 436.156 13.7141 435.772 15.1541C435.42 16.5621 435.228 18.5621 435.196 21.1541H443.404C443.724 17.6661 443.596 15.1541 443.02 13.6181C442.444 12.0821 441.34 11.3141 439.708 11.3141ZM452.132 34.1621V33.6821L452.852 33.4901C453.492 33.2981 453.924 33.0101 454.148 32.6261C454.404 32.2421 454.532 31.7461 454.532 31.1381V16.1141C454.532 15.4101 454.404 14.8981 454.148 14.5781C453.924 14.2261 453.492 13.9861 452.852 13.8581L452.132 13.6661V13.1861L460.388 10.4021L460.868 10.8821L461.3 15.0101V15.3941C461.748 14.4981 462.324 13.6821 463.028 12.9461C463.764 12.1781 464.564 11.5541 465.428 11.0741C466.324 10.5941 467.204 10.3541 468.068 10.3541C469.284 10.3541 470.212 10.6901 470.852 11.3621C471.492 12.0341 471.812 12.8821 471.812 13.9061C471.812 14.9941 471.492 15.8421 470.852 16.4501C470.244 17.0261 469.508 17.3141 468.644 17.3141C467.3 17.3141 466.116 16.6421 465.092 15.2981L464.996 15.2021C464.676 14.7541 464.308 14.5141 463.892 14.4821C463.476 14.4181 463.092 14.6101 462.74 15.0581C462.42 15.3461 462.148 15.6981 461.924 16.1141C461.732 16.4981 461.54 16.9461 461.348 17.4581V30.8501C461.348 32.1301 461.908 32.9301 463.028 33.2501L464.564 33.6821V34.1621H452.132ZM481.155 34.8821C479.587 34.8821 478.179 34.6901 476.931 34.3061C475.683 33.9541 474.531 33.5061 473.475 32.9621L473.523 27.2501H474.003L475.635 30.1301C476.339 31.4101 477.107 32.3701 477.939 33.0101C478.803 33.6181 479.891 33.9221 481.203 33.9221C482.739 33.9221 483.971 33.5861 484.899 32.9141C485.859 32.2101 486.339 31.2821 486.339 30.1301C486.339 29.0741 486.003 28.2101 485.331 27.5381C484.659 26.8661 483.411 26.2581 481.587 25.7141L479.571 25.0901C477.619 24.5141 476.083 23.6181 474.963 22.4021C473.843 21.1861 473.283 19.6981 473.283 17.9381C473.283 15.8261 474.115 14.0341 475.779 12.5621C477.443 11.0901 479.827 10.3541 482.931 10.3541C484.179 10.3541 485.347 10.4981 486.435 10.7861C487.555 11.0421 488.627 11.4421 489.651 11.9861L489.363 17.1701H488.883L487.203 14.1941C486.595 13.1381 485.987 12.4021 485.379 11.9861C484.803 11.5381 483.923 11.3141 482.739 11.3141C481.651 11.3141 480.627 11.6181 479.667 12.2261C478.707 12.8341 478.227 13.6981 478.227 14.8181C478.227 15.9061 478.627 16.7701 479.427 17.4101C480.259 18.0501 481.475 18.6421 483.075 19.1861L485.235 19.8101C487.539 20.5141 489.187 21.4901 490.179 22.7381C491.171 23.9541 491.667 25.4261 491.667 27.1541C491.667 29.4901 490.739 31.3621 488.883 32.7701C487.059 34.1781 484.483 34.8821 481.155 34.8821ZM13.104 101.882C10.672 101.882 8.56 101.386 6.768 100.394C4.976 99.3701 3.584 97.9301 2.592 96.0741C1.632 94.2181 1.152 92.0421 1.152 89.5461C1.152 87.0501 1.664 84.8901 2.688 83.0661C3.744 81.2421 5.168 79.8341 6.96 78.8421C8.784 77.8501 10.832 77.3541 13.104 77.3541C15.376 77.3541 17.408 77.8501 19.2 78.8421C20.992 79.8021 22.4 81.1941 23.424 83.0181C24.48 84.8421 25.008 87.0181 25.008 89.5461C25.008 92.0741 24.512 94.2661 23.52 96.1221C22.56 97.9461 21.184 99.3701 19.392 100.394C17.632 101.386 15.536 101.882 13.104 101.882ZM13.104 100.922C14.224 100.922 15.12 100.602 15.792 99.9621C16.464 99.3221 16.944 98.1861 17.232 96.5541C17.552 94.9221 17.712 92.6181 17.712 89.6421C17.712 86.6341 17.552 84.3141 17.232 82.6821C16.944 81.0501 16.464 79.9141 15.792 79.2741C15.12 78.6341 14.224 78.3141 13.104 78.3141C11.984 78.3141 11.072 78.6341 10.368 79.2741C9.696 79.9141 9.2 81.0501 8.88 82.6821C8.592 84.3141 8.448 86.6341 8.448 89.6421C8.448 92.6181 8.592 94.9221 8.88 96.5541C9.2 98.1861 9.696 99.3221 10.368 99.9621C11.072 100.602 11.984 100.922 13.104 100.922ZM27.1163 101.162V100.682L27.7883 100.49C28.9083 100.17 29.4683 99.3861 29.4683 98.1381V83.1141C29.4683 82.4101 29.3563 81.8981 29.1323 81.5781C28.9083 81.2261 28.4763 80.9861 27.8363 80.8581L27.1163 80.6661V80.1861L35.3243 77.4021L35.8043 77.8821L36.1883 80.7621C37.3083 79.7701 38.5723 78.9541 39.9803 78.3141C41.3883 77.6741 42.7803 77.3541 44.1563 77.3541C46.2683 77.3541 47.8843 77.9301 49.0043 79.0821C50.1563 80.2341 50.7323 81.9941 50.7323 84.3621V98.1861C50.7323 99.4341 51.3403 100.218 52.5563 100.538L52.9883 100.682V101.162H41.6603V100.682L42.2843 100.49C43.4043 100.138 43.9643 99.3541 43.9643 98.1381V82.8261C43.9643 80.7781 42.9403 79.7541 40.8923 79.7541C39.4843 79.7541 37.9483 80.4581 36.2843 81.8661V98.1861C36.2843 99.4341 36.8443 100.218 37.9643 100.538L38.3963 100.682V101.162H27.1163ZM65.4154 101.162V100.682L66.3754 100.346C67.0154 100.154 67.4314 99.8661 67.6234 99.4821C67.8474 99.0981 67.9594 98.5861 67.9594 97.9461V72.7941C67.9594 72.1541 67.8474 71.6421 67.6234 71.2581C67.3994 70.8741 66.9674 70.5701 66.3274 70.3461L65.4154 69.9621V69.4821H77.0794C81.8474 69.4821 85.2874 70.3621 87.3994 72.1221C89.5434 73.8501 90.6154 76.1381 90.6154 78.9861C90.6154 80.8101 90.1674 82.4901 89.2714 84.0261C88.4074 85.5301 86.9674 86.7301 84.9514 87.6261C82.9354 88.5221 80.2154 88.9701 76.7914 88.9701H75.1594V97.8021C75.1594 99.0501 75.7834 99.8661 77.0314 100.25L78.4714 100.682V101.162H65.4154ZM75.1594 88.0101H76.9834C78.5514 88.0101 79.8314 87.7541 80.8234 87.2421C81.8154 86.7301 82.5514 85.8341 83.0314 84.5541C83.5114 83.2741 83.7514 81.4981 83.7514 79.2261C83.7514 76.9221 83.4794 75.1301 82.9354 73.8501C82.4234 72.5701 81.6554 71.6901 80.6314 71.2101C79.6074 70.6981 78.3274 70.4421 76.7914 70.4421H75.1594V88.0101ZM92.2725 101.162V100.682L92.9925 100.49C93.6325 100.298 94.0645 100.01 94.2885 99.6261C94.5445 99.2421 94.6725 98.7461 94.6725 98.1381V83.1141C94.6725 82.4101 94.5445 81.8981 94.2885 81.5781C94.0645 81.2261 93.6325 80.9861 92.9925 80.8581L92.2725 80.6661V80.1861L100.529 77.4021L101.009 77.8821L101.441 82.0101V82.3941C101.889 81.4981 102.465 80.6821 103.169 79.9461C103.905 79.1781 104.705 78.5541 105.569 78.0741C106.465 77.5941 107.345 77.3541 108.209 77.3541C109.425 77.3541 110.353 77.6901 110.993 78.3621C111.633 79.0341 111.953 79.8821 111.953 80.9061C111.953 81.9941 111.633 82.8421 110.993 83.4501C110.385 84.0261 109.649 84.3141 108.785 84.3141C107.441 84.3141 106.257 83.6421 105.233 82.2981L105.137 82.2021C104.817 81.7541 104.449 81.5141 104.033 81.4821C103.617 81.4181 103.233 81.6101 102.881 82.0581C102.561 82.3461 102.289 82.6981 102.065 83.1141C101.873 83.4981 101.681 83.9461 101.489 84.4581V97.8501C101.489 99.1301 102.049 99.9301 103.169 100.25L104.705 100.682V101.162H92.2725ZM124.854 101.882C122.422 101.882 120.31 101.386 118.518 100.394C116.726 99.3701 115.334 97.9301 114.342 96.0741C113.382 94.2181 112.902 92.0421 112.902 89.5461C112.902 87.0501 113.414 84.8901 114.438 83.0661C115.494 81.2421 116.918 79.8341 118.71 78.8421C120.534 77.8501 122.582 77.3541 124.854 77.3541C127.126 77.3541 129.158 77.8501 130.95 78.8421C132.742 79.8021 134.15 81.1941 135.174 83.0181C136.23 84.8421 136.758 87.0181 136.758 89.5461C136.758 92.0741 136.262 94.2661 135.27 96.1221C134.31 97.9461 132.934 99.3701 131.142 100.394C129.382 101.386 127.286 101.882 124.854 101.882ZM124.854 100.922C125.974 100.922 126.87 100.602 127.542 99.9621C128.214 99.3221 128.694 98.1861 128.982 96.5541C129.302 94.9221 129.462 92.6181 129.462 89.6421C129.462 86.6341 129.302 84.3141 128.982 82.6821C128.694 81.0501 128.214 79.9141 127.542 79.2741C126.87 78.6341 125.974 78.3141 124.854 78.3141C123.734 78.3141 122.822 78.6341 122.118 79.2741C121.446 79.9141 120.95 81.0501 120.63 82.6821C120.342 84.3141 120.198 86.6341 120.198 89.6421C120.198 92.6181 120.342 94.9221 120.63 96.5541C120.95 98.1861 121.446 99.3221 122.118 99.9621C122.822 100.602 123.734 100.922 124.854 100.922ZM138.962 101.162V100.682L139.586 100.538C140.194 100.378 140.674 100.106 141.026 99.7221C141.378 99.3061 141.554 98.7781 141.554 98.1381C141.554 96.9541 141.554 95.7861 141.554 94.6341C141.586 93.4501 141.602 92.2661 141.602 91.0821V79.0341H138.914V78.5061L139.97 78.3141C140.61 78.2501 141.074 78.0261 141.362 77.6421C141.65 77.2581 141.858 76.7301 141.986 76.0581C142.306 74.8101 142.77 73.7221 143.378 72.7941C144.018 71.8341 144.738 70.9541 145.538 70.1541C146.754 69.0021 148.034 68.2021 149.378 67.7541C150.754 67.2741 152.098 67.0341 153.41 67.0341C154.69 67.0341 155.858 67.3061 156.914 67.8501C157.97 68.3621 158.498 69.2261 158.498 70.4421C158.498 71.3061 158.242 71.9941 157.73 72.5061C157.218 72.9861 156.498 73.2261 155.57 73.2261C154.802 73.2261 154.098 73.0181 153.458 72.6021C152.818 72.1861 152.194 71.4501 151.586 70.3941L150.914 69.5781C150.562 69.1301 150.21 68.9221 149.858 68.9541C149.506 68.9541 149.25 69.2101 149.09 69.7221C148.866 70.8421 148.69 72.1541 148.562 73.6581C148.466 75.1621 148.418 76.6341 148.418 78.0741H153.794V79.0341H148.418V98.0421C148.418 99.2581 149.058 100.042 150.338 100.394L151.538 100.682V101.162H138.962ZM166.805 77.3541C168.885 77.3541 170.661 77.7861 172.133 78.6501C173.605 79.4821 174.725 80.6341 175.493 82.1061C176.293 83.5461 176.693 85.1941 176.693 87.0501C176.693 87.4021 176.677 87.7701 176.645 88.1541C176.613 88.5061 176.549 88.8261 176.453 89.1141H162.149C162.181 92.5701 162.789 95.0661 163.973 96.6021C165.189 98.1061 166.981 98.8581 169.349 98.8581C170.949 98.8581 172.245 98.6021 173.237 98.0901C174.229 97.5781 175.157 96.8261 176.021 95.8341L176.501 96.2661C175.509 98.0261 174.181 99.4021 172.517 100.394C170.885 101.386 168.917 101.882 166.613 101.882C164.341 101.882 162.325 101.402 160.565 100.442C158.805 99.4501 157.429 98.0421 156.437 96.2181C155.445 94.3941 154.949 92.2181 154.949 89.6901C154.949 87.0661 155.525 84.8421 156.677 83.0181C157.829 81.1621 159.301 79.7541 161.093 78.7941C162.917 77.8341 164.821 77.3541 166.805 77.3541ZM166.661 78.3141C165.733 78.3141 164.933 78.6021 164.261 79.1781C163.621 79.7221 163.109 80.7141 162.725 82.1541C162.373 83.5621 162.181 85.5621 162.149 88.1541H170.357C170.677 84.6661 170.549 82.1541 169.973 80.6181C169.397 79.0821 168.293 78.3141 166.661 78.3141ZM187.389 101.882C185.821 101.882 184.413 101.69 183.165 101.306C181.917 100.954 180.765 100.506 179.709 99.9621L179.757 94.2501H180.237L181.869 97.1301C182.573 98.4101 183.341 99.3701 184.173 100.01C185.037 100.618 186.125 100.922 187.437 100.922C188.973 100.922 190.205 100.586 191.133 99.9141C192.093 99.2101 192.573 98.2821 192.573 97.1301C192.573 96.0741 192.237 95.2101 191.565 94.5381C190.893 93.8661 189.645 93.2581 187.821 92.7141L185.805 92.0901C183.853 91.5141 182.317 90.6181 181.197 89.4021C180.077 88.1861 179.517 86.6981 179.517 84.9381C179.517 82.8261 180.349 81.0341 182.013 79.5621C183.677 78.0901 186.061 77.3541 189.165 77.3541C190.413 77.3541 191.581 77.4981 192.669 77.7861C193.789 78.0421 194.861 78.4421 195.885 78.9861L195.597 84.1701H195.117L193.437 81.1941C192.829 80.1381 192.221 79.4021 191.613 78.9861C191.037 78.5381 190.157 78.3141 188.973 78.3141C187.885 78.3141 186.861 78.6181 185.901 79.2261C184.941 79.8341 184.461 80.6981 184.461 81.8181C184.461 82.9061 184.861 83.7701 185.661 84.4101C186.493 85.0501 187.709 85.6421 189.309 86.1861L191.469 86.8101C193.773 87.5141 195.421 88.4901 196.413 89.7381C197.405 90.9541 197.901 92.4261 197.901 94.1541C197.901 96.4901 196.973 98.3621 195.117 99.7701C193.293 101.178 190.717 101.882 187.389 101.882ZM208.295 101.882C206.727 101.882 205.319 101.69 204.071 101.306C202.823 100.954 201.671 100.506 200.615 99.9621L200.663 94.2501H201.143L202.775 97.1301C203.479 98.4101 204.247 99.3701 205.079 100.01C205.943 100.618 207.031 100.922 208.343 100.922C209.879 100.922 211.111 100.586 212.039 99.9141C212.999 99.2101 213.479 98.2821 213.479 97.1301C213.479 96.0741 213.143 95.2101 212.471 94.5381C211.799 93.8661 210.551 93.2581 208.727 92.7141L206.711 92.0901C204.759 91.5141 203.223 90.6181 202.103 89.4021C200.983 88.1861 200.423 86.6981 200.423 84.9381C200.423 82.8261 201.255 81.0341 202.919 79.5621C204.583 78.0901 206.967 77.3541 210.071 77.3541C211.319 77.3541 212.487 77.4981 213.575 77.7861C214.695 78.0421 215.767 78.4421 216.791 78.9861L216.503 84.1701H216.023L214.343 81.1941C213.735 80.1381 213.127 79.4021 212.519 78.9861C211.943 78.5381 211.063 78.3141 209.879 78.3141C208.791 78.3141 207.767 78.6181 206.807 79.2261C205.847 79.8341 205.367 80.6981 205.367 81.8181C205.367 82.9061 205.767 83.7701 206.567 84.4101C207.399 85.0501 208.615 85.6421 210.215 86.1861L212.375 86.8101C214.679 87.5141 216.327 88.4901 217.319 89.7381C218.311 90.9541 218.807 92.4261 218.807 94.1541C218.807 96.4901 217.879 98.3621 216.023 99.7701C214.199 101.178 211.623 101.882 208.295 101.882ZM226.517 74.8581C225.429 74.8581 224.501 74.5221 223.733 73.8501C222.997 73.1461 222.629 72.2661 222.629 71.2101C222.629 70.1221 222.997 69.2421 223.733 68.5701C224.501 67.8981 225.429 67.5621 226.517 67.5621C227.605 67.5621 228.517 67.8981 229.253 68.5701C229.989 69.2421 230.357 70.1221 230.357 71.2101C230.357 72.2661 229.989 73.1461 229.253 73.8501C228.517 74.5221 227.605 74.8581 226.517 74.8581ZM220.853 101.162V100.682L221.525 100.49C222.165 100.298 222.597 100.01 222.821 99.6261C223.077 99.2421 223.205 98.7301 223.205 98.0901V83.0661C223.205 82.3941 223.077 81.8981 222.821 81.5781C222.597 81.2261 222.165 80.9861 221.525 80.8581L220.853 80.7141V80.2341L229.637 77.4021L230.117 77.8821L229.973 84.6981V98.1381C229.973 98.7781 230.085 99.2901 230.309 99.6741C230.565 100.058 230.997 100.346 231.605 100.538L232.085 100.682V101.162H220.853ZM246.354 101.882C243.922 101.882 241.81 101.386 240.018 100.394C238.226 99.3701 236.834 97.9301 235.842 96.0741C234.882 94.2181 234.402 92.0421 234.402 89.5461C234.402 87.0501 234.914 84.8901 235.938 83.0661C236.994 81.2421 238.418 79.8341 240.21 78.8421C242.034 77.8501 244.082 77.3541 246.354 77.3541C248.626 77.3541 250.658 77.8501 252.45 78.8421C254.242 79.8021 255.65 81.1941 256.674 83.0181C257.73 84.8421 258.258 87.0181 258.258 89.5461C258.258 92.0741 257.762 94.2661 256.77 96.1221C255.81 97.9461 254.434 99.3701 252.642 100.394C250.882 101.386 248.786 101.882 246.354 101.882ZM246.354 100.922C247.474 100.922 248.37 100.602 249.042 99.9621C249.714 99.3221 250.194 98.1861 250.482 96.5541C250.802 94.9221 250.962 92.6181 250.962 89.6421C250.962 86.6341 250.802 84.3141 250.482 82.6821C250.194 81.0501 249.714 79.9141 249.042 79.2741C248.37 78.6341 247.474 78.3141 246.354 78.3141C245.234 78.3141 244.322 78.6341 243.618 79.2741C242.946 79.9141 242.45 81.0501 242.13 82.6821C241.842 84.3141 241.698 86.6341 241.698 89.6421C241.698 92.6181 241.842 94.9221 242.13 96.5541C242.45 98.1861 242.946 99.3221 243.618 99.9621C244.322 100.602 245.234 100.922 246.354 100.922ZM260.366 101.162V100.682L261.038 100.49C262.158 100.17 262.718 99.3861 262.718 98.1381V83.1141C262.718 82.4101 262.606 81.8981 262.382 81.5781C262.158 81.2261 261.726 80.9861 261.086 80.8581L260.366 80.6661V80.1861L268.574 77.4021L269.054 77.8821L269.438 80.7621C270.558 79.7701 271.822 78.9541 273.23 78.3141C274.638 77.6741 276.03 77.3541 277.406 77.3541C279.518 77.3541 281.134 77.9301 282.254 79.0821C283.406 80.2341 283.982 81.9941 283.982 84.3621V98.1861C283.982 99.4341 284.59 100.218 285.806 100.538L286.238 100.682V101.162H274.91V100.682L275.534 100.49C276.654 100.138 277.214 99.3541 277.214 98.1381V82.8261C277.214 80.7781 276.19 79.7541 274.142 79.7541C272.734 79.7541 271.198 80.4581 269.534 81.8661V98.1861C269.534 99.4341 270.094 100.218 271.214 100.538L271.646 100.682V101.162H260.366ZM294.843 101.882C292.987 101.882 291.419 101.354 290.139 100.298C288.891 99.2421 288.267 97.7221 288.267 95.7381C288.267 94.2341 289.035 92.8581 290.571 91.6101C292.107 90.3301 294.523 89.3701 297.819 88.7301C298.331 88.6341 298.907 88.5381 299.547 88.4421C300.187 88.3141 300.859 88.1861 301.563 88.0581V84.2661C301.563 82.0901 301.291 80.5701 300.747 79.7061C300.235 78.8101 299.419 78.3621 298.299 78.3621C297.531 78.3621 296.923 78.6181 296.475 79.1301C296.027 79.6101 295.739 80.4581 295.611 81.6741L295.515 82.2021C295.451 83.5781 295.115 84.5861 294.507 85.2261C293.899 85.8661 293.147 86.1861 292.251 86.1861C291.419 86.1861 290.731 85.9301 290.187 85.4181C289.643 84.9061 289.371 84.2181 289.371 83.3541C289.371 82.0421 289.819 80.9381 290.715 80.0421C291.643 79.1461 292.859 78.4741 294.363 78.0261C295.867 77.5781 297.499 77.3541 299.259 77.3541C302.107 77.3541 304.299 78.0581 305.835 79.4661C307.403 80.8421 308.187 83.0981 308.187 86.2341V96.8421C308.187 98.2821 308.859 99.0021 310.203 99.0021H311.259L311.691 99.3861C311.083 100.154 310.411 100.746 309.675 101.162C308.971 101.578 307.963 101.786 306.651 101.786C305.243 101.786 304.123 101.466 303.291 100.826C302.491 100.154 301.963 99.2741 301.707 98.1861C300.747 99.2101 299.755 100.09 298.731 100.826C297.739 101.53 296.443 101.882 294.843 101.882ZM297.771 98.9541C298.411 98.9541 299.003 98.8101 299.547 98.5221C300.123 98.2021 300.795 97.7221 301.563 97.0821V89.0181C301.243 89.0821 300.923 89.1461 300.603 89.2101C300.283 89.2741 299.915 89.3381 299.499 89.4021C298.027 89.7861 296.843 90.4421 295.947 91.3701C295.083 92.2661 294.651 93.4821 294.651 95.0181C294.651 96.3301 294.955 97.3221 295.563 97.9941C296.171 98.6341 296.907 98.9541 297.771 98.9541ZM312.823 101.162V100.682L313.399 100.49C314.551 100.106 315.127 99.3061 315.127 98.0901V72.4101C315.127 71.7701 314.999 71.2901 314.743 70.9701C314.487 70.6181 314.039 70.3621 313.399 70.2021L312.775 70.0581V69.5781L321.559 67.5141L322.135 67.9461L321.943 74.6661V91.0821C321.943 92.2661 321.943 93.4501 321.943 94.6341C321.975 95.7861 321.991 96.9381 321.991 98.0901C321.991 98.7301 322.119 99.2581 322.375 99.6741C322.631 100.058 323.063 100.346 323.671 100.538L324.295 100.682V101.162H312.823ZM342.972 101.162V100.682L344.94 100.202C346.252 99.9141 346.908 99.1141 346.908 97.8021V70.4421H342.828C341.644 70.4421 340.796 70.7621 340.284 71.4021C339.772 72.0101 339.228 72.8581 338.652 73.9461L336.924 77.3061H336.444L336.684 69.4821H364.38L364.572 77.3061H364.092L362.364 73.9461C361.82 72.8581 361.292 72.0101 360.78 71.4021C360.268 70.7621 359.42 70.4421 358.236 70.4421H354.156V97.8021C354.156 99.1141 354.812 99.9141 356.124 100.202L358.092 100.682V101.162H342.972ZM364.804 101.162V100.682L365.524 100.49C366.164 100.298 366.596 100.01 366.82 99.6261C367.076 99.2421 367.204 98.7461 367.204 98.1381V83.1141C367.204 82.4101 367.076 81.8981 366.82 81.5781C366.596 81.2261 366.164 80.9861 365.524 80.8581L364.804 80.6661V80.1861L373.06 77.4021L373.54 77.8821L373.972 82.0101V82.3941C374.42 81.4981 374.996 80.6821 375.7 79.9461C376.436 79.1781 377.236 78.5541 378.1 78.0741C378.996 77.5941 379.876 77.3541 380.74 77.3541C381.956 77.3541 382.884 77.6901 383.524 78.3621C384.164 79.0341 384.484 79.8821 384.484 80.9061C384.484 81.9941 384.164 82.8421 383.524 83.4501C382.916 84.0261 382.18 84.3141 381.316 84.3141C379.972 84.3141 378.788 83.6421 377.764 82.2981L377.668 82.2021C377.348 81.7541 376.98 81.5141 376.564 81.4821C376.148 81.4181 375.764 81.6101 375.412 82.0581C375.092 82.3461 374.82 82.6981 374.596 83.1141C374.404 83.4981 374.212 83.9461 374.02 84.4581V97.8501C374.02 99.1301 374.58 99.9301 375.7 100.25L377.236 100.682V101.162H364.804ZM391.968 101.882C390.112 101.882 388.544 101.354 387.264 100.298C386.016 99.2421 385.392 97.7221 385.392 95.7381C385.392 94.2341 386.16 92.8581 387.696 91.6101C389.232 90.3301 391.648 89.3701 394.944 88.7301C395.456 88.6341 396.032 88.5381 396.672 88.4421C397.312 88.3141 397.984 88.1861 398.688 88.0581V84.2661C398.688 82.0901 398.416 80.5701 397.872 79.7061C397.36 78.8101 396.544 78.3621 395.424 78.3621C394.656 78.3621 394.048 78.6181 393.6 79.1301C393.152 79.6101 392.864 80.4581 392.736 81.6741L392.64 82.2021C392.576 83.5781 392.24 84.5861 391.632 85.2261C391.024 85.8661 390.272 86.1861 389.376 86.1861C388.544 86.1861 387.856 85.9301 387.312 85.4181C386.768 84.9061 386.496 84.2181 386.496 83.3541C386.496 82.0421 386.944 80.9381 387.84 80.0421C388.768 79.1461 389.984 78.4741 391.488 78.0261C392.992 77.5781 394.624 77.3541 396.384 77.3541C399.232 77.3541 401.424 78.0581 402.96 79.4661C404.528 80.8421 405.312 83.0981 405.312 86.2341V96.8421C405.312 98.2821 405.984 99.0021 407.328 99.0021H408.384L408.816 99.3861C408.208 100.154 407.536 100.746 406.8 101.162C406.096 101.578 405.088 101.786 403.776 101.786C402.368 101.786 401.248 101.466 400.416 100.826C399.616 100.154 399.088 99.2741 398.832 98.1861C397.872 99.2101 396.88 100.09 395.856 100.826C394.864 101.53 393.568 101.882 391.968 101.882ZM394.896 98.9541C395.536 98.9541 396.128 98.8101 396.672 98.5221C397.248 98.2021 397.92 97.7221 398.688 97.0821V89.0181C398.368 89.0821 398.048 89.1461 397.728 89.2101C397.408 89.2741 397.04 89.3381 396.624 89.4021C395.152 89.7861 393.968 90.4421 393.072 91.3701C392.208 92.2661 391.776 93.4821 391.776 95.0181C391.776 96.3301 392.08 97.3221 392.688 97.9941C393.296 98.6341 394.032 98.9541 394.896 98.9541ZM409.9 101.162V100.682L410.524 100.538C411.132 100.346 411.612 100.058 411.964 99.6741C412.316 99.2901 412.492 98.7781 412.492 98.1381C412.492 96.9541 412.492 95.7861 412.492 94.6341C412.524 93.4501 412.54 92.2661 412.54 91.0821V79.0341H409.852V78.5061L410.908 78.3141C411.58 78.2181 412.044 77.9941 412.3 77.6421C412.556 77.2581 412.764 76.7301 412.924 76.0581C413.244 74.8101 413.708 73.7221 414.316 72.7941C414.956 71.8341 415.676 70.9541 416.476 70.1541C417.692 69.0021 418.972 68.2021 420.316 67.7541C421.692 67.2741 423.036 67.0341 424.348 67.0341C425.18 67.0341 425.98 67.1621 426.748 67.4181C427.548 67.6421 428.188 68.0101 428.668 68.5221C429.18 69.0021 429.436 69.6421 429.436 70.4421C429.436 71.3061 429.18 71.9941 428.668 72.5061C428.188 72.9861 427.468 73.2261 426.508 73.2261C425.74 73.2261 425.036 73.0181 424.396 72.6021C423.756 72.1861 423.132 71.4501 422.524 70.3941L421.852 69.5781C421.5 69.0981 421.132 68.8741 420.748 68.9061C420.396 68.9381 420.156 69.2101 420.028 69.7221C419.804 70.8741 419.628 72.2021 419.5 73.7061C419.404 75.1781 419.356 76.6341 419.356 78.0741H427.372C428.044 78.0741 428.508 77.8981 428.764 77.5461C429.02 77.1621 429.228 76.6661 429.388 76.0581C429.708 74.8101 430.172 73.7221 430.78 72.7941C431.42 71.8341 432.14 70.9541 432.94 70.1541C434.156 69.0021 435.436 68.2021 436.78 67.7541C438.156 67.2741 439.5 67.0341 440.812 67.0341C441.676 67.0341 442.492 67.1621 443.26 67.4181C444.028 67.6421 444.668 68.0101 445.18 68.5221C445.692 69.0021 445.948 69.6421 445.948 70.4421C445.948 71.3061 445.692 71.9941 445.18 72.5061C444.668 72.9861 443.932 73.2261 442.972 73.2261C442.204 73.2261 441.5 73.0181 440.86 72.6021C440.22 72.1861 439.596 71.4501 438.988 70.3941L438.316 69.5781C437.964 69.0981 437.612 68.8741 437.26 68.9061C436.908 68.9381 436.652 69.2101 436.492 69.7221C436.268 70.8741 436.092 72.2021 435.964 73.7061C435.868 75.1781 435.82 76.6341 435.82 78.0741H441.196V79.0341H435.82V91.0821C435.82 92.2341 435.82 93.4021 435.82 94.5861C435.82 95.7381 435.82 96.8901 435.82 98.0421C435.852 99.2581 436.508 100.042 437.788 100.394L438.988 100.682V101.162H426.364V100.682L426.988 100.538C427.596 100.346 428.076 100.058 428.428 99.6741C428.78 99.2901 428.972 98.7781 429.004 98.1381C429.004 96.9541 429.004 95.7861 429.004 94.6341C429.004 93.4501 429.004 92.2661 429.004 91.0821V79.0341H419.356V91.0821C419.356 92.2341 419.356 93.4021 419.356 94.5861C419.356 95.7381 419.356 96.8901 419.356 98.0421C419.388 99.2581 420.028 100.042 421.276 100.394L422.476 100.682V101.162H409.9ZM450.486 74.8581C449.398 74.8581 448.47 74.5221 447.702 73.8501C446.966 73.1461 446.598 72.2661 446.598 71.2101C446.598 70.1221 446.966 69.2421 447.702 68.5701C448.47 67.8981 449.398 67.5621 450.486 67.5621C451.574 67.5621 452.486 67.8981 453.222 68.5701C453.958 69.2421 454.326 70.1221 454.326 71.2101C454.326 72.2661 453.958 73.1461 453.222 73.8501C452.486 74.5221 451.574 74.8581 450.486 74.8581ZM444.822 101.162V100.682L445.494 100.49C446.134 100.298 446.566 100.01 446.79 99.6261C447.046 99.2421 447.174 98.7301 447.174 98.0901V83.0661C447.174 82.3941 447.046 81.8981 446.79 81.5781C446.566 81.2261 446.134 80.9861 445.494 80.8581L444.822 80.7141V80.2341L453.606 77.4021L454.086 77.8821L453.942 84.6981V98.1381C453.942 98.7781 454.054 99.2901 454.278 99.6741C454.534 100.058 454.966 100.346 455.574 100.538L456.054 100.682V101.162H444.822ZM470.083 101.882C467.907 101.882 465.923 101.418 464.131 100.49C462.371 99.5301 460.963 98.1541 459.907 96.3621C458.883 94.5381 458.371 92.3141 458.371 89.6901C458.371 87.0981 458.931 84.8901 460.051 83.0661C461.203 81.2101 462.723 79.8021 464.611 78.8421C466.531 77.8501 468.627 77.3541 470.899 77.3541C472.755 77.3541 474.323 77.6581 475.603 78.2661C476.883 78.8741 477.859 79.6741 478.531 80.6661C479.203 81.6261 479.539 82.6341 479.539 83.6901C479.539 84.5861 479.267 85.2901 478.723 85.8021C478.179 86.2821 477.475 86.5221 476.611 86.5221C475.683 86.5221 474.931 86.1861 474.355 85.5141C473.779 84.8421 473.443 83.9621 473.347 82.8741C473.315 82.1701 473.331 81.5781 473.395 81.0981C473.459 80.5861 473.459 80.0741 473.395 79.5621C473.267 79.0181 473.059 78.6661 472.771 78.5061C472.515 78.3141 472.147 78.2181 471.667 78.2181C469.715 78.2181 468.195 79.0661 467.107 80.7621C466.051 82.4581 465.523 85.1621 465.523 88.8741C465.523 92.1061 466.115 94.5861 467.299 96.3141C468.515 98.0101 470.371 98.8581 472.867 98.8581C474.371 98.8581 475.587 98.5861 476.515 98.0421C477.443 97.4981 478.339 96.6821 479.203 95.5941L479.683 95.9781C478.883 97.8661 477.651 99.3221 475.987 100.346C474.323 101.37 472.355 101.882 470.083 101.882ZM1.056 168.162V167.682L2.016 167.346C2.656 167.154 3.072 166.866 3.264 166.482C3.488 166.098 3.6 165.586 3.6 164.946V139.794C3.6 139.154 3.488 138.642 3.264 138.258C3.04 137.874 2.608 137.57 1.968 137.346L1.056 136.962V136.482H12.72C17.488 136.482 20.928 137.362 23.04 139.122C25.184 140.85 26.256 143.138 26.256 145.986C26.256 147.81 25.808 149.49 24.912 151.026C24.048 152.53 22.608 153.73 20.592 154.626C18.576 155.522 15.856 155.97 12.432 155.97H10.8V164.802C10.8 166.05 11.424 166.866 12.672 167.25L14.112 167.682V168.162H1.056ZM10.8 155.01H12.624C14.192 155.01 15.472 154.754 16.464 154.242C17.456 153.73 18.192 152.834 18.672 151.554C19.152 150.274 19.392 148.498 19.392 146.226C19.392 143.922 19.12 142.13 18.576 140.85C18.064 139.57 17.296 138.69 16.272 138.21C15.248 137.698 13.968 137.442 12.432 137.442H10.8V155.01ZM39.2111 144.354C41.2911 144.354 43.0671 144.786 44.5391 145.65C46.0111 146.482 47.1311 147.634 47.8991 149.106C48.6991 150.546 49.0991 152.194 49.0991 154.05C49.0991 154.402 49.0831 154.77 49.0511 155.154C49.0191 155.506 48.9551 155.826 48.8591 156.114H34.5551C34.5871 159.57 35.1951 162.066 36.3791 163.602C37.5951 165.106 39.3871 165.858 41.7551 165.858C43.3551 165.858 44.6511 165.602 45.6431 165.09C46.6351 164.578 47.5631 163.826 48.4271 162.834L48.9071 163.266C47.9151 165.026 46.5871 166.402 44.9231 167.394C43.2911 168.386 41.3231 168.882 39.0191 168.882C36.7471 168.882 34.7311 168.402 32.9711 167.442C31.2111 166.45 29.8351 165.042 28.8431 163.218C27.8511 161.394 27.3551 159.218 27.3551 156.69C27.3551 154.066 27.9311 151.842 29.0831 150.018C30.2351 148.162 31.7071 146.754 33.4991 145.794C35.3231 144.834 37.2271 144.354 39.2111 144.354ZM39.0671 145.314C38.1391 145.314 37.3391 145.602 36.6671 146.178C36.0271 146.722 35.5151 147.714 35.1311 149.154C34.7791 150.562 34.5871 152.562 34.5551 155.154H42.7631C43.0831 151.666 42.9551 149.154 42.3791 147.618C41.8031 146.082 40.6991 145.314 39.0671 145.314ZM51.4913 168.162V167.682L52.2113 167.49C52.8513 167.298 53.2833 167.01 53.5073 166.626C53.7633 166.242 53.8913 165.746 53.8913 165.138V150.114C53.8913 149.41 53.7633 148.898 53.5073 148.578C53.2833 148.226 52.8513 147.986 52.2113 147.858L51.4913 147.666V147.186L59.7473 144.402L60.2273 144.882L60.6593 149.01V149.394C61.1073 148.498 61.6833 147.682 62.3873 146.946C63.1233 146.178 63.9233 145.554 64.7873 145.074C65.6833 144.594 66.5633 144.354 67.4273 144.354C68.6433 144.354 69.5713 144.69 70.2113 145.362C70.8513 146.034 71.1713 146.882 71.1713 147.906C71.1713 148.994 70.8513 149.842 70.2113 150.45C69.6033 151.026 68.8673 151.314 68.0033 151.314C66.6593 151.314 65.4753 150.642 64.4513 149.298L64.3553 149.202C64.0353 148.754 63.6673 148.514 63.2513 148.482C62.8353 148.418 62.4513 148.61 62.0993 149.058C61.7793 149.346 61.5073 149.698 61.2833 150.114C61.0913 150.498 60.8993 150.946 60.7073 151.458V164.85C60.7073 166.13 61.2673 166.93 62.3873 167.25L63.9233 167.682V168.162H51.4913ZM72.6788 168.162V167.682L73.3508 167.49C73.9588 167.33 74.3748 167.058 74.5988 166.674C74.8548 166.29 74.9988 165.778 75.0308 165.138V150.114C75.0308 149.41 74.9188 148.898 74.6948 148.578C74.4708 148.226 74.0388 147.986 73.3988 147.858L72.6788 147.666V147.186L80.8868 144.402L81.3668 144.882L81.7508 148.146C82.8068 147.09 84.0068 146.194 85.3508 145.458C86.7268 144.722 88.1508 144.354 89.6228 144.354C91.1588 144.354 92.3908 144.674 93.3188 145.314C94.2468 145.922 94.9508 146.882 95.4308 148.194C96.6788 147.01 98.0228 146.082 99.4628 145.41C100.935 144.706 102.359 144.354 103.735 144.354C106.007 144.354 107.671 144.898 108.727 145.986C109.815 147.074 110.359 148.786 110.359 151.122V165.186C110.359 166.434 110.935 167.218 112.087 167.538L112.615 167.682V168.162H101.527V167.682L102.007 167.538C102.615 167.346 103.031 167.058 103.255 166.674C103.511 166.29 103.639 165.778 103.639 165.138V150.45C103.639 149.106 103.399 148.194 102.919 147.714C102.439 147.202 101.671 146.946 100.615 146.946C99.7828 146.946 98.9668 147.138 98.1667 147.522C97.3988 147.874 96.5828 148.418 95.7188 149.154C95.8787 149.666 95.9748 150.226 96.0068 150.834C96.0708 151.442 96.1028 152.082 96.1028 152.754V165.186C96.1348 166.434 96.7108 167.218 97.8308 167.538L98.2628 167.682V168.162H87.1268V167.682L87.7988 167.49C88.4068 167.298 88.8228 167.026 89.0468 166.674C89.3028 166.29 89.4308 165.778 89.4308 165.138V150.498C89.4308 149.218 89.1908 148.306 88.7108 147.762C88.2628 147.218 87.4788 146.946 86.3588 146.946C85.6228 146.946 84.8868 147.138 84.1508 147.522C83.4148 147.874 82.6468 148.402 81.8468 149.106V165.186C81.8468 166.434 82.4068 167.218 83.5268 167.538L83.9588 167.682V168.162H72.6788ZM120.251 141.858C119.163 141.858 118.235 141.522 117.467 140.85C116.731 140.146 116.363 139.266 116.363 138.21C116.363 137.122 116.731 136.242 117.467 135.57C118.235 134.898 119.163 134.562 120.251 134.562C121.339 134.562 122.251 134.898 122.987 135.57C123.723 136.242 124.091 137.122 124.091 138.21C124.091 139.266 123.723 140.146 122.987 140.85C122.251 141.522 121.339 141.858 120.251 141.858ZM114.587 168.162V167.682L115.259 167.49C115.899 167.298 116.331 167.01 116.555 166.626C116.811 166.242 116.939 165.73 116.939 165.09V150.066C116.939 149.394 116.811 148.898 116.555 148.578C116.331 148.226 115.899 147.986 115.259 147.858L114.587 147.714V147.234L123.371 144.402L123.851 144.882L123.707 151.698V165.138C123.707 165.778 123.819 166.29 124.043 166.674C124.299 167.058 124.731 167.346 125.339 167.538L125.819 167.682V168.162H114.587ZM137.064 168.882C135.016 168.882 133.416 168.37 132.264 167.346C131.144 166.322 130.584 164.69 130.584 162.45V146.034H127.272V145.554L128.424 145.362C129.416 145.138 130.264 144.818 130.968 144.402C131.704 143.986 132.424 143.426 133.128 142.722L137.064 138.354H137.544L137.4 145.074H142.776V146.034H137.352V163.314C137.352 164.434 137.592 165.282 138.072 165.858C138.584 166.434 139.224 166.722 139.992 166.722C140.664 166.722 141.256 166.562 141.768 166.242C142.28 165.89 142.792 165.426 143.304 164.85L143.784 165.33C143.144 166.418 142.264 167.282 141.144 167.922C140.024 168.562 138.664 168.882 137.064 168.882ZM153.873 168.882C152.305 168.882 150.897 168.69 149.649 168.306C148.401 167.954 147.249 167.506 146.193 166.962L146.241 161.25H146.721L148.353 164.13C149.057 165.41 149.825 166.37 150.657 167.01C151.521 167.618 152.609 167.922 153.921 167.922C155.457 167.922 156.689 167.586 157.617 166.914C158.577 166.21 159.057 165.282 159.057 164.13C159.057 163.074 158.721 162.21 158.049 161.538C157.377 160.866 156.129 160.258 154.305 159.714L152.289 159.09C150.337 158.514 148.801 157.618 147.681 156.402C146.561 155.186 146.001 153.698 146.001 151.938C146.001 149.826 146.833 148.034 148.497 146.562C150.161 145.09 152.545 144.354 155.649 144.354C156.897 144.354 158.065 144.498 159.153 144.786C160.273 145.042 161.345 145.442 162.369 145.986L162.081 151.17H161.601L159.921 148.194C159.313 147.138 158.705 146.402 158.097 145.986C157.521 145.538 156.641 145.314 155.457 145.314C154.369 145.314 153.345 145.618 152.385 146.226C151.425 146.834 150.945 147.698 150.945 148.818C150.945 149.906 151.345 150.77 152.145 151.41C152.977 152.05 154.193 152.642 155.793 153.186L157.953 153.81C160.257 154.514 161.905 155.49 162.897 156.738C163.889 157.954 164.385 159.426 164.385 161.154C164.385 163.49 163.457 165.362 161.601 166.77C159.777 168.178 157.201 168.882 153.873 168.882ZM172.716 152.322C171.564 152.322 170.588 151.922 169.788 151.122C168.988 150.322 168.588 149.362 168.588 148.242C168.588 147.122 168.988 146.146 169.788 145.314C170.588 144.482 171.564 144.066 172.716 144.066C173.868 144.066 174.844 144.482 175.644 145.314C176.444 146.146 176.844 147.122 176.844 148.242C176.844 149.362 176.444 150.322 175.644 151.122C174.844 151.922 173.868 152.322 172.716 152.322ZM172.716 168.882C171.564 168.882 170.588 168.482 169.788 167.682C168.988 166.882 168.588 165.922 168.588 164.802C168.588 163.682 168.988 162.706 169.788 161.874C170.588 161.042 171.564 160.626 172.716 160.626C173.868 160.626 174.844 161.042 175.644 161.874C176.444 162.706 176.844 163.682 176.844 164.802C176.844 165.922 176.444 166.882 175.644 167.682C174.844 168.482 173.868 168.882 172.716 168.882Z" fill="#402B2B"/>
</svg>
