<svg width="123" height="95" viewBox="0 0 123 95" fill="none" xmlns="http://www.w3.org/2000/svg">
<path d="M120.325 74.2076C118.427 65.4466 115.297 57.1618 111.123 49.5435C110.554 48.496 109.889 47.3532 109.225 46.3057C104.387 38.2113 98.4107 30.974 91.4854 24.6889C90.6316 23.8318 89.683 23.07 88.7343 22.3082C81.3347 16.1183 72.8916 11.0712 63.7844 7.45256C62.646 6.97642 61.5077 6.59552 60.3693 6.21461C51.2621 2.97685 41.396 1.16751 31.2453 0.977051C30.6761 0.977051 30.012 0.977051 29.4428 0.977051C28.8736 0.977051 28.2096 0.977051 27.6404 0.977051C17.3948 1.16751 7.62355 2.97685 -1.48362 6.21461C-2.62202 6.59552 -3.7604 7.07165 -4.89879 7.45256C-14.006 11.0712 -22.4491 16.1183 -29.8487 22.3082C-30.7973 23.07 -31.746 23.9271 -32.5998 24.6889C-39.525 30.974 -45.5965 38.2113 -50.3398 46.3057C-51.0039 47.3532 -51.5731 48.496 -52.2371 49.5435C-56.4113 57.1618 -59.5418 65.4466 -61.4392 74.2076C-61.7237 75.4456 -61.9135 76.6836 -62.1981 77.9215C-63.1468 83.2543 -63.6211 88.6823 -63.6211 94.2056H122.412C122.412 88.6823 121.938 83.1591 120.989 77.9215C120.799 76.6836 120.609 75.4456 120.325 74.2076Z" fill="#FCDDD4"/>
</svg>
