<svg width="191" height="95" viewBox="0 0 191 95" fill="none" xmlns="http://www.w3.org/2000/svg">
<path d="M188.072 74.5454C186.14 65.6761 182.951 57.2888 178.7 49.5764C178.12 48.516 177.443 47.3591 176.767 46.2986C171.839 38.1042 165.752 30.7774 158.699 24.4146C157.829 23.547 156.863 22.7757 155.897 22.0045C148.36 15.7381 139.76 10.6286 130.485 6.96522C129.325 6.4832 128.166 6.09759 127.006 5.71196C117.73 2.43418 107.682 0.602479 97.3429 0.409668C96.7631 0.409668 96.0868 0.409668 95.5071 0.409668C94.9273 0.409668 94.2509 0.409668 93.6712 0.409668C83.2359 0.602479 73.2837 2.43418 64.0079 5.71196C62.8484 6.09759 61.689 6.5796 60.5295 6.96522C51.2537 10.6286 42.6542 15.7381 35.1176 22.0045C34.1513 22.7757 33.1851 23.6434 32.3155 24.4146C25.262 30.7774 19.0781 38.1042 14.247 46.2986C13.5706 47.3591 12.9909 48.516 12.3145 49.5764C8.06309 57.2888 4.87454 65.6761 2.94208 74.5454C2.65221 75.7987 2.45894 77.052 2.16907 78.3052C1.20284 83.7039 0.719727 89.199 0.719727 94.7905H190.198C190.198 89.199 189.715 83.6075 188.748 78.3052C188.555 77.052 188.362 75.7987 188.072 74.5454Z" fill="#0F264C"/>
</svg>
