<svg width="635" height="268" viewBox="0 0 635 268" fill="none" xmlns="http://www.w3.org/2000/svg">
<path d="M16.5 66V65L19.5 64.2C21.8333 63.5333 23 61.8667 23 59.2V40.2L6.5 6.6C5.9 5.26666 5.33333 4.26666 4.8 3.6C4.33333 2.93333 3.6 2.36667 2.6 1.9L0.8 0.999996V-2.6226e-06H27.6V0.999996L25.8 1.7C24.3333 2.3 23.5333 3.13333 23.4 4.2C23.2667 5.2 23.5333 6.46666 24.2 8L36 34.2L49.2 7C49.7333 5.93333 49.9333 4.83333 49.8 3.7C49.7333 2.56666 49.0333 1.83333 47.7 1.5L46.3 0.999996V-2.6226e-06H58.3V0.999996L56.4 1.7C55.1333 2.16666 54.2 2.83333 53.6 3.7C53 4.5 52.4 5.53333 51.8 6.8L38.1 35.6V59.2C38.1 60.5333 38.3333 61.6333 38.8 62.5C39.3333 63.3 40.2333 63.8667 41.5 64.2L44.6 65V66H16.5ZM76.4211 67.5C71.3544 67.5 66.9544 66.4667 63.2211 64.4C59.4878 62.2667 56.5878 59.2667 54.5211 55.4C52.5211 51.5333 51.5211 47 51.5211 41.8C51.5211 36.6 52.5878 32.1 54.7211 28.3C56.9211 24.5 59.8878 21.5667 63.6211 19.5C67.4211 17.4333 71.6878 16.4 76.4211 16.4C81.1544 16.4 85.3878 17.4333 89.1211 19.5C92.8544 21.5 95.7878 24.4 97.9211 28.2C100.121 32 101.221 36.5333 101.221 41.8C101.221 47.0667 100.188 51.6333 98.1211 55.5C96.1211 59.3 93.2544 62.2667 89.5211 64.4C85.8544 66.4667 81.4878 67.5 76.4211 67.5ZM76.4211 65.5C78.7544 65.5 80.6211 64.8333 82.0211 63.5C83.4211 62.1667 84.4211 59.8 85.0211 56.4C85.6878 53 86.0211 48.2 86.0211 42C86.0211 35.7333 85.6878 30.9 85.0211 27.5C84.4211 24.1 83.4211 21.7333 82.0211 20.4C80.6211 19.0667 78.7544 18.4 76.4211 18.4C74.0878 18.4 72.1878 19.0667 70.7211 20.4C69.3211 21.7333 68.2878 24.1 67.6211 27.5C67.0211 30.9 66.7211 35.7333 66.7211 42C66.7211 48.2 67.0211 53 67.6211 56.4C68.2878 59.8 69.3211 62.1667 70.7211 63.5C72.1878 64.8333 74.0878 65.5 76.4211 65.5ZM123.323 67.5C120.723 67.5 118.323 67 116.123 66C113.989 65 112.289 63.4 111.023 61.2C109.823 58.9333 109.256 55.9667 109.323 52.3L109.623 26.6C109.623 25.0667 109.356 23.9667 108.823 23.3C108.289 22.6333 107.456 22.1667 106.323 21.9L105.123 21.5V20.5L123.023 17L124.023 18L123.523 32.2V56.3C123.523 58.4333 124.123 60 125.323 61C126.589 62 128.156 62.5 130.023 62.5C131.889 62.5 133.556 62.2333 135.023 61.7C136.489 61.1667 137.956 60.3667 139.423 59.3L139.823 26.7C139.823 25.1667 139.589 24.1 139.123 23.5C138.656 22.8333 137.789 22.3667 136.523 22.1L135.523 21.8V20.8L153.023 17L154.023 18L153.723 32.2V59.3C153.723 60.7667 153.923 61.9 154.323 62.7C154.723 63.5 155.589 64.1667 156.923 64.7L157.923 65V66L140.423 67L139.523 61.1C137.323 62.9 134.923 64.4333 132.323 65.7C129.789 66.9 126.789 67.5 123.323 67.5ZM161.961 66V65L163.461 64.6C164.794 64.2 165.694 63.6 166.161 62.8C166.694 62 166.961 60.9667 166.961 59.7V28.4C166.961 26.9333 166.694 25.8667 166.161 25.2C165.694 24.4667 164.794 23.9667 163.461 23.7L161.961 23.3V22.3L179.161 16.5L180.161 17.5L181.061 26.1V26.9C181.994 25.0333 183.194 23.3333 184.661 21.8C186.194 20.2 187.861 18.9 189.661 17.9C191.528 16.9 193.361 16.4 195.161 16.4C197.694 16.4 199.628 17.1 200.961 18.5C202.294 19.9 202.961 21.6667 202.961 23.8C202.961 26.0667 202.294 27.8333 200.961 29.1C199.694 30.3 198.161 30.9 196.361 30.9C193.561 30.9 191.094 29.5 188.961 26.7L188.761 26.5C188.094 25.5667 187.328 25.0667 186.461 25C185.594 24.8667 184.794 25.2667 184.061 26.2C183.394 26.8 182.828 27.5333 182.361 28.4C181.961 29.2 181.561 30.1333 181.161 31.2V59.1C181.161 61.7667 182.328 63.4333 184.661 64.1L187.861 65V66H161.961ZM242.479 67.5C238.612 67.5 235.346 66.4 232.679 64.2C230.079 62 228.779 58.8333 228.779 54.7C228.779 51.5667 230.379 48.7 233.579 46.1C236.779 43.4333 241.812 41.4333 248.679 40.1C249.746 39.9 250.946 39.7 252.279 39.5C253.612 39.2333 255.012 38.9667 256.479 38.7V30.8C256.479 26.2667 255.912 23.1 254.779 21.3C253.712 19.4333 252.012 18.5 249.679 18.5C248.079 18.5 246.812 19.0333 245.879 20.1C244.946 21.1 244.346 22.8667 244.079 25.4L243.879 26.5C243.746 29.3667 243.046 31.4667 241.779 32.8C240.512 34.1333 238.946 34.8 237.079 34.8C235.346 34.8 233.912 34.2667 232.779 33.2C231.646 32.1333 231.079 30.7 231.079 28.9C231.079 26.1667 232.012 23.8667 233.879 22C235.812 20.1333 238.346 18.7333 241.479 17.8C244.612 16.8667 248.012 16.4 251.679 16.4C257.612 16.4 262.179 17.8667 265.379 20.8C268.646 23.6667 270.279 28.3667 270.279 34.9V57C270.279 60 271.679 61.5 274.479 61.5H276.679L277.579 62.3C276.312 63.9 274.912 65.1333 273.379 66C271.912 66.8667 269.812 67.3 267.079 67.3C264.146 67.3 261.812 66.6333 260.079 65.3C258.412 63.9 257.312 62.0667 256.779 59.8C254.779 61.9333 252.712 63.7667 250.579 65.3C248.512 66.7667 245.812 67.5 242.479 67.5ZM248.579 61.4C249.912 61.4 251.146 61.1 252.279 60.5C253.479 59.8333 254.879 58.8333 256.479 57.5V40.7C255.812 40.8333 255.146 40.9667 254.479 41.1C253.812 41.2333 253.046 41.3667 252.179 41.5C249.112 42.3 246.646 43.6667 244.779 45.6C242.979 47.4667 242.079 50 242.079 53.2C242.079 55.9333 242.712 58 243.979 59.4C245.246 60.7333 246.779 61.4 248.579 61.4ZM298.184 66.3L282.784 24C282.05 21.8667 280.584 20.3667 278.384 19.5L276.684 18.9V17.9H301.184V18.9L299.684 19.3C297.084 20.1 296.217 21.7 297.084 24.1L306.384 52.4L314.684 30.4L312.784 24.7C312.317 23.2333 311.817 22.1333 311.284 21.4C310.817 20.6 310.184 20.0333 309.384 19.7L307.684 18.9V17.9H328.384V18.9L326.984 19.5C325.984 19.9 325.384 20.4333 325.184 21.1C324.984 21.7667 325.117 22.7667 325.584 24.1L334.784 51.9L344.284 24.3C345.217 21.7667 344.717 20.1667 342.784 19.5L340.584 18.9V17.9H352.584V18.9L350.184 19.6C349.05 19.9333 348.217 20.4667 347.684 21.2C347.217 21.8667 346.784 22.8 346.384 24L331.984 66.3H326.884L315.784 33.6L303.984 66.3H298.184ZM378.272 16.4C382.605 16.4 386.305 17.3 389.372 19.1C392.439 20.8333 394.772 23.2333 396.372 26.3C398.039 29.3 398.872 32.7333 398.872 36.6C398.872 37.3333 398.839 38.1 398.772 38.9C398.705 39.6333 398.572 40.3 398.372 40.9H368.572C368.639 48.1 369.905 53.3 372.372 56.5C374.905 59.6333 378.639 61.2 383.572 61.2C386.905 61.2 389.605 60.6667 391.672 59.6C393.739 58.5333 395.672 56.9667 397.472 54.9L398.472 55.8C396.405 59.4667 393.639 62.3333 390.172 64.4C386.772 66.4667 382.672 67.5 377.872 67.5C373.139 67.5 368.939 66.5 365.272 64.5C361.605 62.4333 358.739 59.5 356.672 55.7C354.605 51.9 353.572 47.3667 353.572 42.1C353.572 36.6333 354.772 32 357.172 28.2C359.572 24.3333 362.639 21.4 366.372 19.4C370.172 17.4 374.139 16.4 378.272 16.4ZM377.972 18.4C376.039 18.4 374.372 19 372.972 20.2C371.639 21.3333 370.572 23.4 369.772 26.4C369.039 29.3333 368.639 33.5 368.572 38.9H385.672C386.339 31.6333 386.072 26.4 384.872 23.2C383.672 20 381.372 18.4 377.972 18.4ZM421.155 67.5C417.889 67.5 414.955 67.1 412.355 66.3C409.755 65.5667 407.355 64.6333 405.155 63.5L405.255 51.6H406.255L409.655 57.6C411.122 60.2667 412.722 62.2667 414.455 63.6C416.255 64.8667 418.522 65.5 421.255 65.5C424.455 65.5 427.022 64.8 428.955 63.4C430.955 61.9333 431.955 60 431.955 57.6C431.955 55.4 431.255 53.6 429.855 52.2C428.455 50.8 425.855 49.5333 422.055 48.4L417.855 47.1C413.789 45.9 410.589 44.0333 408.255 41.5C405.922 38.9667 404.755 35.8667 404.755 32.2C404.755 27.8 406.489 24.0667 409.955 21C413.422 17.9333 418.389 16.4 424.855 16.4C427.455 16.4 429.889 16.7 432.155 17.3C434.489 17.8333 436.722 18.6667 438.855 19.8L438.255 30.6H437.255L433.755 24.4C432.489 22.2 431.222 20.6667 429.955 19.8C428.755 18.8667 426.922 18.4 424.455 18.4C422.189 18.4 420.055 19.0333 418.055 20.3C416.055 21.5667 415.055 23.3667 415.055 25.7C415.055 27.9667 415.889 29.7667 417.555 31.1C419.289 32.4333 421.822 33.6667 425.155 34.8L429.655 36.1C434.455 37.5667 437.889 39.6 439.955 42.2C442.022 44.7333 443.055 47.8 443.055 51.4C443.055 56.2667 441.122 60.1667 437.255 63.1C433.455 66.0333 428.089 67.5 421.155 67.5ZM472.71 67.5C467.643 67.5 463.243 66.4667 459.51 64.4C455.777 62.2667 452.877 59.2667 450.81 55.4C448.81 51.5333 447.81 47 447.81 41.8C447.81 36.6 448.877 32.1 451.01 28.3C453.21 24.5 456.177 21.5667 459.91 19.5C463.71 17.4333 467.977 16.4 472.71 16.4C477.443 16.4 481.677 17.4333 485.41 19.5C489.143 21.5 492.077 24.4 494.21 28.2C496.41 32 497.51 36.5333 497.51 41.8C497.51 47.0667 496.477 51.6333 494.41 55.5C492.41 59.3 489.543 62.2667 485.81 64.4C482.143 66.4667 477.777 67.5 472.71 67.5ZM472.71 65.5C475.043 65.5 476.91 64.8333 478.31 63.5C479.71 62.1667 480.71 59.8 481.31 56.4C481.977 53 482.31 48.2 482.31 42C482.31 35.7333 481.977 30.9 481.31 27.5C480.71 24.1 479.71 21.7333 478.31 20.4C476.91 19.0667 475.043 18.4 472.71 18.4C470.377 18.4 468.477 19.0667 467.01 20.4C465.61 21.7333 464.577 24.1 463.91 27.5C463.31 30.9 463.01 35.7333 463.01 42C463.01 48.2 463.31 53 463.91 56.4C464.577 59.8 465.61 62.1667 467.01 63.5C468.477 64.8333 470.377 65.5 472.71 65.5ZM501.902 66V65L503.302 64.6C504.569 64.2667 505.436 63.7 505.902 62.9C506.436 62.1 506.736 61.0333 506.802 59.7V28.4C506.802 26.9333 506.569 25.8667 506.102 25.2C505.636 24.4667 504.736 23.9667 503.402 23.7L501.902 23.3V22.3L519.002 16.5L520.002 17.5L520.802 24.3C523.002 22.1 525.502 20.2333 528.302 18.7C531.169 17.1667 534.136 16.4 537.202 16.4C540.402 16.4 542.969 17.0667 544.902 18.4C546.836 19.6667 548.302 21.6667 549.302 24.4C551.902 21.9333 554.702 20 557.702 18.6C560.769 17.1333 563.736 16.4 566.602 16.4C571.336 16.4 574.802 17.5333 577.002 19.8C579.269 22.0667 580.402 25.6333 580.402 30.5V59.8C580.402 62.4 581.602 64.0333 584.002 64.7L585.102 65V66H562.002V65L563.002 64.7C564.269 64.3 565.136 63.7 565.602 62.9C566.136 62.1 566.402 61.0333 566.402 59.7V29.1C566.402 26.3 565.902 24.4 564.902 23.4C563.902 22.3333 562.302 21.8 560.102 21.8C558.369 21.8 556.669 22.2 555.002 23C553.402 23.7333 551.702 24.8667 549.902 26.4C550.236 27.4667 550.436 28.6333 550.502 29.9C550.636 31.1667 550.702 32.5 550.702 33.9V59.8C550.769 62.4 551.969 64.0333 554.302 64.7L555.202 65V66H532.002V65L533.402 64.6C534.669 64.2 535.536 63.6333 536.002 62.9C536.536 62.1 536.802 61.0333 536.802 59.7V29.2C536.802 26.5333 536.302 24.6333 535.302 23.5C534.369 22.3667 532.736 21.8 530.402 21.8C528.869 21.8 527.336 22.2 525.802 23C524.269 23.7333 522.669 24.8333 521.002 26.3V59.8C521.002 62.4 522.169 64.0333 524.502 64.7L525.402 65V66H501.902ZM614.112 16.4C618.445 16.4 622.145 17.3 625.212 19.1C628.278 20.8333 630.612 23.2333 632.212 26.3C633.878 29.3 634.712 32.7333 634.712 36.6C634.712 37.3333 634.678 38.1 634.612 38.9C634.545 39.6333 634.412 40.3 634.212 40.9H604.412C604.478 48.1 605.745 53.3 608.212 56.5C610.745 59.6333 614.478 61.2 619.412 61.2C622.745 61.2 625.445 60.6667 627.512 59.6C629.578 58.5333 631.512 56.9667 633.312 54.9L634.312 55.8C632.245 59.4667 629.478 62.3333 626.012 64.4C622.612 66.4667 618.512 67.5 613.712 67.5C608.978 67.5 604.778 66.5 601.112 64.5C597.445 62.4333 594.578 59.5 592.512 55.7C590.445 51.9 589.412 47.3667 589.412 42.1C589.412 36.6333 590.612 32 593.012 28.2C595.412 24.3333 598.478 21.4 602.212 19.4C606.012 17.4 609.978 16.4 614.112 16.4ZM613.812 18.4C611.878 18.4 610.212 19 608.812 20.2C607.478 21.3333 606.412 23.4 605.612 26.4C604.878 29.3333 604.478 33.5 604.412 38.9H621.512C622.178 31.6333 621.912 26.4 620.712 23.2C619.512 20 617.212 18.4 613.812 18.4ZM21 167.5C16.7333 167.5 13.4 166.433 11 164.3C8.66667 162.167 7.5 158.767 7.5 154.1V119.9H0.6V118.9L3 118.5C5.06667 118.033 6.83333 117.367 8.3 116.5C9.83333 115.633 11.3333 114.467 12.8 113L21 103.9H22L21.7 117.9H32.9V119.9H21.6V155.9C21.6 158.233 22.1 160 23.1 161.2C24.1667 162.4 25.5 163 27.1 163C28.5 163 29.7333 162.667 30.8 162C31.8667 161.267 32.9333 160.3 34 159.1L35 160.1C33.6667 162.367 31.8333 164.167 29.5 165.5C27.1667 166.833 24.3333 167.5 21 167.5ZM38.1328 166V165L39.6328 164.6C40.9661 164.2 41.8661 163.6 42.3328 162.8C42.8661 162 43.1328 160.967 43.1328 159.7V128.4C43.1328 126.933 42.8661 125.867 42.3328 125.2C41.8661 124.467 40.9661 123.967 39.6328 123.7L38.1328 123.3V122.3L55.3328 116.5L56.3328 117.5L57.2328 126.1V126.9C58.1661 125.033 59.3661 123.333 60.8328 121.8C62.3661 120.2 64.0328 118.9 65.8328 117.9C67.6995 116.9 69.5328 116.4 71.3328 116.4C73.8661 116.4 75.7995 117.1 77.1328 118.5C78.4661 119.9 79.1328 121.667 79.1328 123.8C79.1328 126.067 78.4661 127.833 77.1328 129.1C75.8661 130.3 74.3328 130.9 72.5328 130.9C69.7328 130.9 67.2661 129.5 65.1328 126.7L64.9328 126.5C64.2661 125.567 63.4995 125.067 62.6328 125C61.7661 124.867 60.9661 125.267 60.2328 126.2C59.5661 126.8 58.9995 127.533 58.5328 128.4C58.1328 129.2 57.7328 130.133 57.3328 131.2V159.1C57.3328 161.767 58.4995 163.433 60.8328 164.1L64.0328 165V166H38.1328ZM94.725 167.5C90.8583 167.5 87.5917 166.4 84.925 164.2C82.325 162 81.025 158.833 81.025 154.7C81.025 151.567 82.625 148.7 85.825 146.1C89.025 143.433 94.0583 141.433 100.925 140.1C101.992 139.9 103.192 139.7 104.525 139.5C105.858 139.233 107.258 138.967 108.725 138.7V130.8C108.725 126.267 108.158 123.1 107.025 121.3C105.958 119.433 104.258 118.5 101.925 118.5C100.325 118.5 99.0583 119.033 98.125 120.1C97.1917 121.1 96.5917 122.867 96.325 125.4L96.125 126.5C95.9917 129.367 95.2917 131.467 94.025 132.8C92.7583 134.133 91.1917 134.8 89.325 134.8C87.5917 134.8 86.1583 134.267 85.025 133.2C83.8917 132.133 83.325 130.7 83.325 128.9C83.325 126.167 84.2583 123.867 86.125 122C88.0583 120.133 90.5917 118.733 93.725 117.8C96.8583 116.867 100.258 116.4 103.925 116.4C109.858 116.4 114.425 117.867 117.625 120.8C120.892 123.667 122.525 128.367 122.525 134.9V157C122.525 160 123.925 161.5 126.725 161.5H128.925L129.825 162.3C128.558 163.9 127.158 165.133 125.625 166C124.158 166.867 122.058 167.3 119.325 167.3C116.392 167.3 114.058 166.633 112.325 165.3C110.658 163.9 109.558 162.067 109.025 159.8C107.025 161.933 104.958 163.767 102.825 165.3C100.758 166.767 98.0583 167.5 94.725 167.5ZM100.825 161.4C102.158 161.4 103.392 161.1 104.525 160.5C105.725 159.833 107.125 158.833 108.725 157.5V140.7C108.058 140.833 107.392 140.967 106.725 141.1C106.058 141.233 105.292 141.367 104.425 141.5C101.358 142.3 98.8917 143.667 97.025 145.6C95.225 147.467 94.325 150 94.325 153.2C94.325 155.933 94.9583 158 96.225 159.4C97.4917 160.733 99.025 161.4 100.825 161.4ZM132.083 166V165L133.383 164.7C134.649 164.3 135.649 163.7 136.383 162.9C137.116 162.1 137.483 161.033 137.483 159.7C137.483 157.233 137.483 154.8 137.483 152.4C137.549 149.933 137.583 147.467 137.583 145V119.9H131.983V118.8L134.183 118.4C135.583 118.2 136.549 117.733 137.083 117C137.616 116.2 138.049 115.1 138.383 113.7C139.049 111.1 140.016 108.833 141.283 106.9C142.616 104.9 144.116 103.067 145.783 101.4C148.316 99 150.983 97.3333 153.783 96.4C156.649 95.4 159.449 94.9 162.183 94.9C163.916 94.9 165.583 95.1667 167.183 95.7C168.849 96.1667 170.183 96.9333 171.183 98C172.249 99 172.783 100.333 172.783 102C172.783 103.8 172.249 105.233 171.183 106.3C170.183 107.3 168.683 107.8 166.683 107.8C165.083 107.8 163.616 107.367 162.283 106.5C160.949 105.633 159.649 104.1 158.383 101.9L156.983 100.2C156.249 99.2 155.483 98.7333 154.683 98.8C153.949 98.8667 153.449 99.4333 153.183 100.5C152.716 102.9 152.349 105.667 152.083 108.8C151.883 111.867 151.783 114.9 151.783 117.9H168.483C169.883 117.9 170.849 117.533 171.383 116.8C171.916 116 172.349 114.967 172.683 113.7C173.349 111.1 174.316 108.833 175.583 106.9C176.916 104.9 178.416 103.067 180.083 101.4C182.616 99 185.283 97.3333 188.083 96.4C190.949 95.4 193.749 94.9 196.483 94.9C198.283 94.9 199.983 95.1667 201.583 95.7C203.183 96.1667 204.516 96.9333 205.583 98C206.649 99 207.183 100.333 207.183 102C207.183 103.8 206.649 105.233 205.583 106.3C204.516 107.3 202.983 107.8 200.983 107.8C199.383 107.8 197.916 107.367 196.583 106.5C195.249 105.633 193.949 104.1 192.683 101.9L191.283 100.2C190.549 99.2 189.816 98.7333 189.083 98.8C188.349 98.8667 187.816 99.4333 187.483 100.5C187.016 102.9 186.649 105.667 186.383 108.8C186.183 111.867 186.083 114.9 186.083 117.9H197.283V119.9H186.083V145C186.083 147.4 186.083 149.833 186.083 152.3C186.083 154.7 186.083 157.1 186.083 159.5C186.149 162.033 187.516 163.667 190.183 164.4L192.683 165V166H166.383V165L167.683 164.7C168.949 164.3 169.949 163.7 170.683 162.9C171.416 162.1 171.816 161.033 171.883 159.7C171.883 157.233 171.883 154.8 171.883 152.4C171.883 149.933 171.883 147.467 171.883 145V119.9H151.783V145C151.783 147.4 151.783 149.833 151.783 152.3C151.783 154.7 151.783 157.1 151.783 159.5C151.849 162.033 153.183 163.667 155.783 164.4L158.283 165V166H132.083ZM216.637 111.2C214.37 111.2 212.437 110.5 210.837 109.1C209.303 107.633 208.537 105.8 208.537 103.6C208.537 101.333 209.303 99.5 210.837 98.1C212.437 96.7 214.37 96 216.637 96C218.903 96 220.803 96.7 222.337 98.1C223.87 99.5 224.637 101.333 224.637 103.6C224.637 105.8 223.87 107.633 222.337 109.1C220.803 110.5 218.903 111.2 216.637 111.2ZM204.837 166V165L206.237 164.6C207.57 164.2 208.47 163.6 208.937 162.8C209.47 162 209.737 160.933 209.737 159.6V128.3C209.737 126.9 209.47 125.867 208.937 125.2C208.47 124.467 207.57 123.967 206.237 123.7L204.837 123.4V122.4L223.137 116.5L224.137 117.5L223.837 131.7V159.7C223.837 161.033 224.07 162.1 224.537 162.9C225.07 163.7 225.97 164.3 227.237 164.7L228.237 165V166H204.837ZM257.464 167.5C252.931 167.5 248.797 166.533 245.064 164.6C241.397 162.6 238.464 159.733 236.264 156C234.131 152.2 233.064 147.567 233.064 142.1C233.064 136.7 234.231 132.1 236.564 128.3C238.964 124.433 242.131 121.5 246.064 119.5C250.064 117.433 254.431 116.4 259.164 116.4C263.031 116.4 266.297 117.033 268.964 118.3C271.631 119.567 273.664 121.233 275.064 123.3C276.464 125.3 277.164 127.4 277.164 129.6C277.164 131.467 276.597 132.933 275.464 134C274.331 135 272.864 135.5 271.064 135.5C269.131 135.5 267.564 134.8 266.364 133.4C265.164 132 264.464 130.167 264.264 127.9C264.197 126.433 264.231 125.2 264.364 124.2C264.497 123.133 264.497 122.067 264.364 121C264.097 119.867 263.664 119.133 263.064 118.8C262.531 118.4 261.764 118.2 260.764 118.2C256.697 118.2 253.531 119.967 251.264 123.5C249.064 127.033 247.964 132.667 247.964 140.4C247.964 147.133 249.197 152.3 251.664 155.9C254.197 159.433 258.064 161.2 263.264 161.2C266.397 161.2 268.931 160.633 270.864 159.5C272.797 158.367 274.664 156.667 276.464 154.4L277.464 155.2C275.797 159.133 273.231 162.167 269.764 164.3C266.297 166.433 262.197 167.5 257.464 167.5ZM303.855 189V188L305.055 187.6C307.522 186.933 308.755 185.333 308.755 182.8V128.4C308.755 126.933 308.489 125.833 307.955 125.1C307.489 124.367 306.589 123.867 305.255 123.6L303.855 123.3V122.3L320.855 116.5L321.855 117.5L322.755 120.6C324.955 119.267 327.389 118.233 330.055 117.5C332.789 116.767 335.589 116.4 338.455 116.4C344.189 116.4 348.722 118.6 352.055 123C355.455 127.333 357.155 133.567 357.155 141.7C357.155 149.7 355.289 156 351.555 160.6C347.889 165.2 342.689 167.5 335.955 167.5C330.689 167.5 326.255 166.733 322.655 165.2V182.5C322.655 185.167 323.855 186.833 326.255 187.5L328.155 188V189H303.855ZM331.155 164.6C334.489 164.6 337.122 162.867 339.055 159.4C341.055 155.933 342.055 150.167 342.055 142.1C342.055 134.033 341.122 128.4 339.255 125.2C337.389 121.933 334.689 120.3 331.155 120.3C328.689 120.3 325.955 121.1 322.955 122.7V163C325.489 164.067 328.222 164.6 331.155 164.6ZM387.354 116.4C391.687 116.4 395.387 117.3 398.454 119.1C401.521 120.833 403.854 123.233 405.454 126.3C407.121 129.3 407.954 132.733 407.954 136.6C407.954 137.333 407.921 138.1 407.854 138.9C407.787 139.633 407.654 140.3 407.454 140.9H377.654C377.721 148.1 378.987 153.3 381.454 156.5C383.987 159.633 387.721 161.2 392.654 161.2C395.987 161.2 398.687 160.667 400.754 159.6C402.821 158.533 404.754 156.967 406.554 154.9L407.554 155.8C405.487 159.467 402.721 162.333 399.254 164.4C395.854 166.467 391.754 167.5 386.954 167.5C382.221 167.5 378.021 166.5 374.354 164.5C370.687 162.433 367.821 159.5 365.754 155.7C363.687 151.9 362.654 147.367 362.654 142.1C362.654 136.633 363.854 132 366.254 128.2C368.654 124.333 371.721 121.4 375.454 119.4C379.254 117.4 383.221 116.4 387.354 116.4ZM387.054 118.4C385.121 118.4 383.454 119 382.054 120.2C380.721 121.333 379.654 123.4 378.854 126.4C378.121 129.333 377.721 133.5 377.654 138.9H394.754C395.421 131.633 395.154 126.4 393.954 123.2C392.754 120 390.454 118.4 387.054 118.4ZM412.938 166V165L414.438 164.6C415.771 164.2 416.671 163.6 417.138 162.8C417.671 162 417.938 160.967 417.938 159.7V128.4C417.938 126.933 417.671 125.867 417.138 125.2C416.671 124.467 415.771 123.967 414.438 123.7L412.938 123.3V122.3L430.138 116.5L431.138 117.5L432.038 126.1V126.9C432.971 125.033 434.171 123.333 435.638 121.8C437.171 120.2 438.838 118.9 440.638 117.9C442.504 116.9 444.338 116.4 446.138 116.4C448.671 116.4 450.604 117.1 451.938 118.5C453.271 119.9 453.938 121.667 453.938 123.8C453.938 126.067 453.271 127.833 451.938 129.1C450.671 130.3 449.138 130.9 447.338 130.9C444.538 130.9 442.071 129.5 439.938 126.7L439.738 126.5C439.071 125.567 438.304 125.067 437.438 125C436.571 124.867 435.771 125.267 435.038 126.2C434.371 126.8 433.804 127.533 433.338 128.4C432.938 129.2 432.538 130.133 432.138 131.2V159.1C432.138 161.767 433.304 163.433 435.638 164.1L438.838 165V166H412.938ZM457.078 166V165L458.478 164.6C459.745 164.267 460.611 163.7 461.078 162.9C461.611 162.1 461.911 161.033 461.978 159.7V128.4C461.978 126.933 461.745 125.867 461.278 125.2C460.811 124.467 459.911 123.967 458.578 123.7L457.078 123.3V122.3L474.178 116.5L475.178 117.5L475.978 124.3C478.178 122.1 480.678 120.233 483.478 118.7C486.345 117.167 489.311 116.4 492.378 116.4C495.578 116.4 498.145 117.067 500.078 118.4C502.011 119.667 503.478 121.667 504.478 124.4C507.078 121.933 509.878 120 512.878 118.6C515.945 117.133 518.911 116.4 521.778 116.4C526.511 116.4 529.978 117.533 532.178 119.8C534.445 122.067 535.578 125.633 535.578 130.5V159.8C535.578 162.4 536.778 164.033 539.178 164.7L540.278 165V166H517.178V165L518.178 164.7C519.445 164.3 520.311 163.7 520.778 162.9C521.311 162.1 521.578 161.033 521.578 159.7V129.1C521.578 126.3 521.078 124.4 520.078 123.4C519.078 122.333 517.478 121.8 515.278 121.8C513.545 121.8 511.845 122.2 510.178 123C508.578 123.733 506.878 124.867 505.078 126.4C505.411 127.467 505.611 128.633 505.678 129.9C505.811 131.167 505.878 132.5 505.878 133.9V159.8C505.945 162.4 507.145 164.033 509.478 164.7L510.378 165V166H487.178V165L488.578 164.6C489.845 164.2 490.711 163.633 491.178 162.9C491.711 162.1 491.978 161.033 491.978 159.7V129.2C491.978 126.533 491.478 124.633 490.478 123.5C489.545 122.367 487.911 121.8 485.578 121.8C484.045 121.8 482.511 122.2 480.978 123C479.445 123.733 477.845 124.833 476.178 126.3V159.8C476.178 162.4 477.345 164.033 479.678 164.7L480.578 165V166H457.078ZM556.188 111.2C553.921 111.2 551.988 110.5 550.388 109.1C548.854 107.633 548.088 105.8 548.088 103.6C548.088 101.333 548.854 99.5 550.388 98.1C551.988 96.7 553.921 96 556.188 96C558.454 96 560.354 96.7 561.888 98.1C563.421 99.5 564.188 101.333 564.188 103.6C564.188 105.8 563.421 107.633 561.888 109.1C560.354 110.5 558.454 111.2 556.188 111.2ZM544.388 166V165L545.788 164.6C547.121 164.2 548.021 163.6 548.488 162.8C549.021 162 549.288 160.933 549.288 159.6V128.3C549.288 126.9 549.021 125.867 548.488 125.2C548.021 124.467 547.121 123.967 545.788 123.7L544.388 123.4V122.4L562.688 116.5L563.688 117.5L563.388 131.7V159.7C563.388 161.033 563.621 162.1 564.088 162.9C564.621 163.7 565.521 164.3 566.788 164.7L567.788 165V166H544.388ZM591.215 167.5C586.948 167.5 583.615 166.433 581.215 164.3C578.882 162.167 577.715 158.767 577.715 154.1V119.9H570.815V118.9L573.215 118.5C575.282 118.033 577.048 117.367 578.515 116.5C580.048 115.633 581.548 114.467 583.015 113L591.215 103.9H592.215L591.915 117.9H603.115V119.9H591.815V155.9C591.815 158.233 592.315 160 593.315 161.2C594.382 162.4 595.715 163 597.315 163C598.715 163 599.948 162.667 601.015 162C602.082 161.267 603.148 160.3 604.215 159.1L605.215 160.1C603.882 162.367 602.048 164.167 599.715 165.5C597.382 166.833 594.548 167.5 591.215 167.5ZM26.8 267.5C22.2667 267.5 18.1333 266.533 14.4 264.6C10.7333 262.6 7.8 259.733 5.6 256C3.46667 252.2 2.4 247.567 2.4 242.1C2.4 236.7 3.56667 232.1 5.9 228.3C8.3 224.433 11.4667 221.5 15.4 219.5C19.4 217.433 23.7667 216.4 28.5 216.4C32.3667 216.4 35.6333 217.033 38.3 218.3C40.9667 219.567 43 221.233 44.4 223.3C45.8 225.3 46.5 227.4 46.5 229.6C46.5 231.467 45.9333 232.933 44.8 234C43.6667 235 42.2 235.5 40.4 235.5C38.4667 235.5 36.9 234.8 35.7 233.4C34.5 232 33.8 230.167 33.6 227.9C33.5333 226.433 33.5667 225.2 33.7 224.2C33.8333 223.133 33.8333 222.067 33.7 221C33.4333 219.867 33 219.133 32.4 218.8C31.8667 218.4 31.1 218.2 30.1 218.2C26.0333 218.2 22.8667 219.967 20.6 223.5C18.4 227.033 17.3 232.667 17.3 240.4C17.3 247.133 18.5333 252.3 21 255.9C23.5333 259.433 27.4 261.2 32.6 261.2C35.7333 261.2 38.2667 260.633 40.2 259.5C42.1333 258.367 44 256.667 45.8 254.4L46.8 255.2C45.1333 259.133 42.5667 262.167 39.1 264.3C35.6333 266.433 31.5333 267.5 26.8 267.5ZM76.1281 267.5C71.0615 267.5 66.6615 266.467 62.9281 264.4C59.1948 262.267 56.2948 259.267 54.2281 255.4C52.2281 251.533 51.2281 247 51.2281 241.8C51.2281 236.6 52.2948 232.1 54.4281 228.3C56.6281 224.5 59.5948 221.567 63.3281 219.5C67.1281 217.433 71.3948 216.4 76.1281 216.4C80.8615 216.4 85.0948 217.433 88.8281 219.5C92.5615 221.5 95.4948 224.4 97.6281 228.2C99.8281 232 100.928 236.533 100.928 241.8C100.928 247.067 99.8948 251.633 97.8281 255.5C95.8281 259.3 92.9615 262.267 89.2281 264.4C85.5615 266.467 81.1948 267.5 76.1281 267.5ZM76.1281 265.5C78.4615 265.5 80.3281 264.833 81.7281 263.5C83.1281 262.167 84.1281 259.8 84.7281 256.4C85.3948 253 85.7281 248.2 85.7281 242C85.7281 235.733 85.3948 230.9 84.7281 227.5C84.1281 224.1 83.1281 221.733 81.7281 220.4C80.3281 219.067 78.4615 218.4 76.1281 218.4C73.7948 218.4 71.8948 219.067 70.4281 220.4C69.0281 221.733 67.9948 224.1 67.3281 227.5C66.7281 230.9 66.4281 235.733 66.4281 242C66.4281 248.2 66.7281 253 67.3281 256.4C67.9948 259.8 69.0281 262.167 70.4281 263.5C71.8948 264.833 73.7948 265.5 76.1281 265.5ZM105.32 266V265L106.72 264.6C109.054 263.933 110.22 262.3 110.22 259.7V228.4C110.22 226.933 109.987 225.867 109.52 225.2C109.054 224.467 108.154 223.967 106.82 223.7L105.32 223.3V222.3L122.42 216.5L123.42 217.5L124.22 223.5C126.554 221.433 129.187 219.733 132.12 218.4C135.054 217.067 137.954 216.4 140.82 216.4C145.22 216.4 148.587 217.6 150.92 220C153.32 222.4 154.52 226.067 154.52 231V259.8C154.52 262.4 155.787 264.033 158.32 264.7L159.22 265V266H135.62V265L136.92 264.6C139.254 263.867 140.42 262.233 140.42 259.7V227.8C140.42 223.533 138.287 221.4 134.02 221.4C131.087 221.4 127.887 222.867 124.42 225.8V259.8C124.42 262.4 125.587 264.033 127.92 264.7L128.82 265V266H105.32ZM180.433 267.5C177.166 267.5 174.233 267.1 171.633 266.3C169.033 265.567 166.633 264.633 164.433 263.5L164.533 251.6H165.533L168.933 257.6C170.399 260.267 171.999 262.267 173.733 263.6C175.533 264.867 177.799 265.5 180.533 265.5C183.733 265.5 186.299 264.8 188.233 263.4C190.233 261.933 191.233 260 191.233 257.6C191.233 255.4 190.533 253.6 189.133 252.2C187.733 250.8 185.133 249.533 181.333 248.4L177.133 247.1C173.066 245.9 169.866 244.033 167.533 241.5C165.199 238.967 164.033 235.867 164.033 232.2C164.033 227.8 165.766 224.067 169.233 221C172.699 217.933 177.666 216.4 184.133 216.4C186.733 216.4 189.166 216.7 191.433 217.3C193.766 217.833 195.999 218.667 198.133 219.8L197.533 230.6H196.533L193.033 224.4C191.766 222.2 190.499 220.667 189.233 219.8C188.033 218.867 186.199 218.4 183.733 218.4C181.466 218.4 179.333 219.033 177.333 220.3C175.333 221.567 174.333 223.367 174.333 225.7C174.333 227.967 175.166 229.767 176.833 231.1C178.566 232.433 181.099 233.667 184.433 234.8L188.933 236.1C193.733 237.567 197.166 239.6 199.233 242.2C201.299 244.733 202.333 247.8 202.333 251.4C202.333 256.267 200.399 260.167 196.533 263.1C192.733 266.033 187.366 267.5 180.433 267.5ZM224.202 267.5C221.602 267.5 219.202 267 217.002 266C214.868 265 213.168 263.4 211.902 261.2C210.702 258.933 210.135 255.967 210.202 252.3L210.502 226.6C210.502 225.067 210.235 223.967 209.702 223.3C209.168 222.633 208.335 222.167 207.202 221.9L206.002 221.5V220.5L223.902 217L224.902 218L224.402 232.2V256.3C224.402 258.433 225.002 260 226.202 261C227.468 262 229.035 262.5 230.902 262.5C232.768 262.5 234.435 262.233 235.902 261.7C237.368 261.167 238.835 260.367 240.302 259.3L240.702 226.7C240.702 225.167 240.468 224.1 240.002 223.5C239.535 222.833 238.668 222.367 237.402 222.1L236.402 221.8V220.8L253.902 217L254.902 218L254.602 232.2V259.3C254.602 260.767 254.802 261.9 255.202 262.7C255.602 263.5 256.468 264.167 257.802 264.7L258.802 265V266L241.302 267L240.402 261.1C238.202 262.9 235.802 264.433 233.202 265.7C230.668 266.9 227.668 267.5 224.202 267.5ZM263.14 266V265L264.34 264.6C266.74 263.8 267.94 262.133 267.94 259.6V206.1C267.94 204.767 267.673 203.767 267.14 203.1C266.607 202.367 265.673 201.833 264.34 201.5L263.04 201.2V200.2L281.34 195.9L282.54 196.8L282.14 210.8V245C282.14 247.467 282.14 249.933 282.14 252.4C282.207 254.8 282.24 257.2 282.24 259.6C282.24 260.933 282.507 262.033 283.04 262.9C283.573 263.7 284.473 264.3 285.74 264.7L287.04 265V266H263.14ZM310.453 267.5C306.186 267.5 302.853 266.433 300.453 264.3C298.12 262.167 296.953 258.767 296.953 254.1V219.9H290.053V218.9L292.453 218.5C294.52 218.033 296.286 217.367 297.753 216.5C299.286 215.633 300.786 214.467 302.253 213L310.453 203.9H311.453L311.153 217.9H322.353V219.9H311.053V255.9C311.053 258.233 311.553 260 312.553 261.2C313.62 262.4 314.953 263 316.553 263C317.953 263 319.186 262.667 320.253 262C321.32 261.267 322.386 260.3 323.453 259.1L324.453 260.1C323.12 262.367 321.286 264.167 318.953 265.5C316.62 266.833 313.786 267.5 310.453 267.5ZM342.186 267.5C338.319 267.5 335.053 266.4 332.386 264.2C329.786 262 328.486 258.833 328.486 254.7C328.486 251.567 330.086 248.7 333.286 246.1C336.486 243.433 341.519 241.433 348.386 240.1C349.453 239.9 350.653 239.7 351.986 239.5C353.319 239.233 354.719 238.967 356.186 238.7V230.8C356.186 226.267 355.619 223.1 354.486 221.3C353.419 219.433 351.719 218.5 349.386 218.5C347.786 218.5 346.519 219.033 345.586 220.1C344.653 221.1 344.053 222.867 343.786 225.4L343.586 226.5C343.453 229.367 342.753 231.467 341.486 232.8C340.219 234.133 338.653 234.8 336.786 234.8C335.053 234.8 333.619 234.267 332.486 233.2C331.353 232.133 330.786 230.7 330.786 228.9C330.786 226.167 331.719 223.867 333.586 222C335.519 220.133 338.053 218.733 341.186 217.8C344.319 216.867 347.719 216.4 351.386 216.4C357.319 216.4 361.886 217.867 365.086 220.8C368.353 223.667 369.986 228.367 369.986 234.9V257C369.986 260 371.386 261.5 374.186 261.5H376.386L377.286 262.3C376.019 263.9 374.619 265.133 373.086 266C371.619 266.867 369.519 267.3 366.786 267.3C363.853 267.3 361.519 266.633 359.786 265.3C358.119 263.9 357.019 262.067 356.486 259.8C354.486 261.933 352.419 263.767 350.286 265.3C348.219 266.767 345.519 267.5 342.186 267.5ZM348.286 261.4C349.619 261.4 350.853 261.1 351.986 260.5C353.186 259.833 354.586 258.833 356.186 257.5V240.7C355.519 240.833 354.853 240.967 354.186 241.1C353.519 241.233 352.753 241.367 351.886 241.5C348.819 242.3 346.353 243.667 344.486 245.6C342.686 247.467 341.786 250 341.786 253.2C341.786 255.933 342.419 258 343.686 259.4C344.953 260.733 346.486 261.4 348.286 261.4ZM379.148 266V265L380.548 264.6C382.882 263.933 384.048 262.3 384.048 259.7V228.4C384.048 226.933 383.815 225.867 383.348 225.2C382.882 224.467 381.982 223.967 380.648 223.7L379.148 223.3V222.3L396.248 216.5L397.248 217.5L398.048 223.5C400.382 221.433 403.015 219.733 405.948 218.4C408.882 217.067 411.782 216.4 414.648 216.4C419.048 216.4 422.415 217.6 424.748 220C427.148 222.4 428.348 226.067 428.348 231V259.8C428.348 262.4 429.615 264.033 432.148 264.7L433.048 265V266H409.448V265L410.748 264.6C413.082 263.867 414.248 262.233 414.248 259.7V227.8C414.248 223.533 412.115 221.4 407.848 221.4C404.915 221.4 401.715 222.867 398.248 225.8V259.8C398.248 262.4 399.415 264.033 401.748 264.7L402.648 265V266H379.148ZM455.473 267.5C451.206 267.5 447.873 266.433 445.473 264.3C443.139 262.167 441.973 258.767 441.973 254.1V219.9H435.073V218.9L437.473 218.5C439.539 218.033 441.306 217.367 442.773 216.5C444.306 215.633 445.806 214.467 447.273 213L455.473 203.9H456.473L456.173 217.9H467.373V219.9H456.073V255.9C456.073 258.233 456.573 260 457.573 261.2C458.639 262.4 459.973 263 461.573 263C462.973 263 464.206 262.667 465.273 262C466.339 261.267 467.406 260.3 468.473 259.1L469.473 260.1C468.139 262.367 466.306 264.167 463.973 265.5C461.639 266.833 458.806 267.5 455.473 267.5ZM485.605 267.5C483.205 267.5 481.172 266.667 479.505 265C477.839 263.333 477.005 261.333 477.005 259C477.005 256.667 477.839 254.633 479.505 252.9C481.172 251.167 483.205 250.3 485.605 250.3C488.005 250.3 490.039 251.167 491.705 252.9C493.372 254.633 494.205 256.667 494.205 259C494.205 261.333 493.372 263.333 491.705 265C490.039 266.667 488.005 267.5 485.605 267.5Z" fill="white"/>
</svg>
